<svg width="14" height="14" viewBox="0 0 14 14" fill="none" xmlns="http://www.w3.org/2000/svg">
<g clip-path="url(#clip0_1_14370)">
<path d="M7 3C4.7944 3 3 4.7944 3 7C3 9.2056 4.7944 11 7 11C9.2056 11 11 9.2056 11 7C11 4.7944 9.2056 3 7 3Z" fill="#696CFF"/>
</g>
<path d="M7 1.5C10.0376 1.5 12.5 3.96243 12.5 7C12.5 10.0376 10.0376 12.5 7 12.5C3.96243 12.5 1.5 10.0376 1.5 7C1.5 3.96243 3.96243 1.5 7 1.5Z" stroke="#696CFF" stroke-opacity="0.16" stroke-width="3"/>
<defs>
<clipPath id="clip0_1_14370">
<path d="M3 7C3 4.79086 4.79086 3 7 3C9.20914 3 11 4.79086 11 7C11 9.20914 9.20914 11 7 11C4.79086 11 3 9.20914 3 7Z" fill="white"/>
</clipPath>
</defs>
</svg>
