<svg width="32" height="32" viewBox="0 0 32 32" fill="none" xmlns="http://www.w3.org/2000/svg">
<path d="M30.8798 27.2176C30.6795 28.1154 30.1829 28.9198 29.4701 29.5012C28.6912 30.2911 27.7632 30.9184 26.7399 31.3465C25.7166 31.7747 24.6184 31.9952 23.5091 31.9953H22.9908C20.6626 31.8689 18.383 31.2796 16.2851 30.2619H16.2692C15.7828 30.0354 15.2805 29.809 14.7941 29.5331C12.3453 28.1601 10.0992 26.4534 8.12031 24.462C5.55215 22.0498 3.44468 19.1901 1.90101 16.0229C1.08062 14.2871 0.533042 12.4351 0.277615 10.5323C-0.0979967 8.54057 0.127949 6.48207 0.926655 4.61921C1.43089 3.77877 2.04673 3.01058 2.75736 2.33561C3.07712 1.97401 3.46806 1.68228 3.90571 1.47868C4.34337 1.27508 4.81834 1.16399 5.3009 1.15234C5.82571 1.21034 6.33378 1.37201 6.7956 1.62797C7.25743 1.88393 7.66381 2.22908 7.99114 2.64338C8.71992 3.43594 9.60976 4.262 10.3401 5.02426L11.3448 6.01297C11.9348 6.53603 12.3 7.2664 12.3654 8.05417C12.3654 8.77657 12.0991 9.47345 11.6191 10.0141C11.3082 10.3921 10.9782 10.7541 10.6304 11.0984L10.3066 11.4381C10.1185 11.6135 9.97494 11.8304 9.88564 12.0712C9.80591 12.3083 9.77401 12.5512 9.78996 12.8C10.0467 13.4873 10.4502 14.1124 10.97 14.6307C11.7817 15.731 12.5918 16.6878 13.4179 17.7244C14.912 19.459 16.6852 20.932 18.6644 22.0827C18.8669 22.231 19.0998 22.3299 19.347 22.3729C19.5606 22.3889 19.7775 22.357 19.9785 22.2772C20.5446 21.944 21.0469 21.5166 21.4679 21.0126C22.034 20.3193 22.8468 19.8724 23.7355 19.7656C24.5908 19.7773 25.4066 20.1271 26.0048 20.7384C26.3285 21.0126 26.6841 21.3858 27.0254 21.743L27.5102 22.2438L28.0125 22.7301L28.8721 23.604C29.3845 24.059 29.865 24.5454 30.3137 25.0632C30.7634 25.6851 30.9659 26.4553 30.8798 27.2176ZM25.0655 16.1201C24.7443 16.1168 24.4371 15.9877 24.2099 15.7605C23.9828 15.5334 23.8537 15.2262 23.8504 14.905C23.852 13.9877 23.6726 13.0791 23.3223 12.2313C22.9721 11.3835 22.4579 10.6131 21.8093 9.96451C21.1606 9.31588 20.3903 8.80169 19.5425 8.45143C18.6947 8.10116 17.7861 7.92173 16.8688 7.92341C16.5465 7.92341 16.2374 7.79538 16.0096 7.5675C15.7817 7.33961 15.6536 7.03053 15.6536 6.70825C15.6536 6.38597 15.7817 6.07689 16.0096 5.84901C16.2374 5.62112 16.5465 5.4931 16.8688 5.4931C18.1053 5.49121 19.33 5.73336 20.4728 6.20568C21.6156 6.67801 22.6539 7.37121 23.5282 8.24556C24.4026 9.11991 25.0958 10.1582 25.5681 11.301C26.0404 12.4437 26.2826 13.6685 26.2807 14.905C26.2811 15.0647 26.25 15.2229 26.189 15.3705C26.1281 15.5181 26.0386 15.6522 25.9257 15.7652C25.8128 15.8781 25.6787 15.9676 25.531 16.0285C25.3834 16.0894 25.2252 16.1206 25.0655 16.1201Z" fill="white"/>
<path d="M30.6839 15.5546C30.363 15.5512 30.056 15.4224 29.8289 15.1955C29.6018 14.9687 29.4725 14.662 29.4688 14.341C29.4713 12.778 29.1656 11.2299 28.5692 9.78524C27.9727 8.34055 27.0973 7.02765 25.9929 5.92166C24.8886 4.81567 23.577 3.9383 22.1332 3.33974C20.6894 2.74119 19.1417 2.43321 17.5788 2.43342C17.4156 2.43934 17.2529 2.4123 17.1004 2.35394C16.9479 2.29558 16.8087 2.20708 16.6912 2.09373C16.5737 1.98038 16.4802 1.84451 16.4163 1.69423C16.3525 1.54395 16.3196 1.38234 16.3196 1.21906C16.3196 1.05578 16.3525 0.894174 16.4163 0.743893C16.4802 0.593613 16.5737 0.457742 16.6912 0.344395C16.8087 0.231048 16.9479 0.142549 17.1004 0.0841856C17.2529 0.0258218 17.4156 -0.00121046 17.5788 0.00470364C19.4607 0.00470247 21.3241 0.375637 23.0626 1.0963C24.8011 1.81696 26.3804 2.87321 27.7104 4.20467C29.0404 5.53613 30.0949 7.11667 30.8136 8.85594C31.5323 10.5952 31.9012 12.4591 31.8991 14.341C31.8995 14.5007 31.8684 14.6589 31.8075 14.8065C31.7465 14.9541 31.657 15.0883 31.5441 15.2012C31.4312 15.3141 31.2971 15.4036 31.1495 15.4645C31.0018 15.5254 30.8436 15.555 30.6839 15.5546Z" fill="white"/>
</svg>
