<svg width="49" height="63" viewBox="0 0 49 63" fill="none" xmlns="http://www.w3.org/2000/svg">
<g filter="url(#filter0_d_267_17552)">
<rect x="7" y="2" width="36" height="51" fill="#130D38"/>
<path d="M39.875 0H9.125C6.29557 0 4 2.30957 4 5.15625V49.8438C4 52.6904 6.29557 55 9.125 55H39.875C42.7044 55 45 52.6904 45 49.8438V5.15625C45 2.30957 42.7044 0 39.875 0ZM19.375 3.4375H29.625C30.5646 3.4375 31.3333 4.21094 31.3333 5.15625C31.3333 6.10156 30.5646 6.875 29.625 6.875H19.375C18.4354 6.875 17.6667 6.10156 17.6667 5.15625C17.6667 4.21094 18.4354 3.4375 19.375 3.4375ZM24.5 17.1875C28.269 17.1875 31.3333 20.2705 31.3333 24.0625C31.3333 27.8545 28.269 30.9375 24.5 30.9375C20.731 30.9375 17.6667 27.8545 17.6667 24.0625C17.6667 20.2705 20.731 17.1875 24.5 17.1875ZM36.4583 42.625C36.4583 43.7637 35.3906 44.6875 34.0667 44.6875H14.9333C13.6094 44.6875 12.5417 43.7637 12.5417 42.625V40.5625C12.5417 37.1465 15.7555 34.375 19.7167 34.375H20.2505C21.5638 34.9229 22.9945 35.2344 24.5 35.2344C26.0055 35.2344 27.4469 34.9229 28.7495 34.375H29.2833C33.2445 34.375 36.4583 37.1465 36.4583 40.5625V42.625Z" fill="#E7E7FF"/>
</g>
<defs>
<filter id="filter0_d_267_17552" x="0" y="0" width="49" height="63" filterUnits="userSpaceOnUse" color-interpolation-filters="sRGB">
<feFlood flood-opacity="0" result="BackgroundImageFix"/>
<feColorMatrix in="SourceAlpha" type="matrix" values="0 0 0 0 0 0 0 0 0 0 0 0 0 0 0 0 0 0 127 0" result="hardAlpha"/>
<feOffset dy="4"/>
<feGaussianBlur stdDeviation="2"/>
<feComposite in2="hardAlpha" operator="out"/>
<feColorMatrix type="matrix" values="0 0 0 0 0 0 0 0 0 0 0 0 0 0 0 0 0 0 0.25 0"/>
<feBlend mode="normal" in2="BackgroundImageFix" result="effect1_dropShadow_267_17552"/>
<feBlend mode="normal" in="SourceGraphic" in2="effect1_dropShadow_267_17552" result="shape"/>
</filter>
</defs>
</svg>
