<svg width="23" height="23" viewBox="0 0 23 23" fill="none" xmlns="http://www.w3.org/2000/svg">
<rect width="23" height="23" rx="4" fill="#E7E7FF"/>
<path d="M6.48709 5.08446C6.65116 5.01361 6.83083 4.98664 7.00846 5.00618C7.1861 5.02573 7.35561 5.09113 7.50035 5.19595C8.30184 5.78007 8.92592 6.57735 9.45885 7.34028L9.76879 7.79186L10.0612 8.22311C10.3417 8.63262 10.2975 9.18308 9.95882 9.5414L9.88168 9.61573L8.51361 10.6318C8.44769 10.6795 8.40128 10.7495 8.38297 10.8287C8.36466 10.908 8.3757 10.9913 8.41403 11.063C8.72397 11.6268 9.27513 12.4655 9.90623 13.0966C10.5373 13.7277 11.4159 14.3153 12.0183 14.6603C12.0837 14.6973 12.1597 14.7113 12.234 14.7001C12.3084 14.689 12.3768 14.6532 12.4285 14.5986L12.4699 14.5467L13.3604 13.1912C13.5242 12.9738 13.7657 12.8281 14.0344 12.7847C14.3032 12.7413 14.5783 12.8035 14.8021 12.9584L15.2972 13.302C16.2046 13.9352 17.0972 14.6035 17.783 15.4814C17.8963 15.6272 17.9684 15.8008 17.9918 15.9839C18.0151 16.1671 17.9887 16.3532 17.9155 16.5227C17.3321 17.8838 15.8357 19.0576 14.2987 19.0008L14.0883 18.9896L13.9249 18.9756L13.744 18.9545L13.5469 18.9279L13.3331 18.8921L13.1045 18.8473L12.8619 18.7926L12.6052 18.7274L12.3352 18.6495L12.0534 18.5584C10.7589 18.1201 9.11595 17.2576 7.43023 15.5726C5.7445 13.8875 4.8827 12.2439 4.44374 10.9494L4.35258 10.6676L4.27545 10.3976L4.20953 10.1409L4.15484 9.89832L4.11066 9.66972L4.0756 9.45585L4.04755 9.25881L4.02722 9.07789L4.01319 8.91451L4.00197 8.70414C3.94517 7.16427 5.12392 5.66787 6.48709 5.08446Z" fill="#130D38"/>
<path d="M17.25 7.25H15.75V5.75C15.75 5.55109 15.671 5.36032 15.5303 5.21967C15.3897 5.07902 15.1989 5 15 5C14.8011 5 14.6103 5.07902 14.4697 5.21967C14.329 5.36032 14.25 5.55109 14.25 5.75L14.2766 7.25H12.75C12.5511 7.25 12.3603 7.32902 12.2197 7.46967C12.079 7.61032 12 7.80109 12 8C12 8.19891 12.079 8.38968 12.2197 8.53033C12.3603 8.67098 12.5511 8.75 12.75 8.75L14.2766 8.72337L14.25 10.25C14.25 10.4489 14.329 10.6397 14.4697 10.7803C14.6103 10.921 14.8011 11 15 11C15.1989 11 15.3897 10.921 15.5303 10.7803C15.671 10.6397 15.75 10.4489 15.75 10.25V8.72337L17.25 8.75C17.4489 8.75 17.6397 8.67098 17.7803 8.53033C17.921 8.38968 18 8.19891 18 8C18 7.80109 17.921 7.61032 17.7803 7.46967C17.6397 7.32902 17.4489 7.25 17.25 7.25Z" fill="#C31C00"/>
</svg>
