<svg width="15" height="19" viewBox="0 0 15 19" fill="none" xmlns="http://www.w3.org/2000/svg">
<path d="M1.94805 1.01824C1.30001 1.19786 0.77524 1.72615 0.602665 2.37771C0.55688 2.53972 0.549836 3.66674 0.549836 9.97806C0.549836 18.1877 0.532226 17.589 0.778762 18.0327C1.25775 18.8921 2.44816 19.2549 3.32513 18.8076C3.4167 18.7618 4.37114 18.1666 5.44534 17.4833C6.51601 16.8001 7.43876 16.226 7.49159 16.2084C7.5585 16.1837 7.61485 16.1872 7.67121 16.2189C7.71699 16.2436 8.6327 16.8212 9.70689 17.5009C10.7811 18.1842 11.725 18.7759 11.8024 18.8146C12.0948 18.9625 12.3343 19.0048 12.7322 18.9907C13.1443 18.9731 13.3979 18.8991 13.6796 18.7195C14.0389 18.4906 14.3559 18.0891 14.4826 17.7087C14.546 17.508 14.5496 17.3037 14.5496 9.98159C14.5496 2.65947 14.546 2.45519 14.4826 2.25444C14.296 1.68389 13.7783 1.19082 13.2007 1.03233C12.9753 0.968935 12.7217 0.965412 7.54089 0.968935C3.1596 0.972456 2.0854 0.9795 1.94805 1.01824ZM12.8661 2.66651L12.9647 2.7616V9.97806C12.9647 17.1452 12.9647 17.1945 12.8942 17.272C12.7992 17.3777 12.6829 17.4164 12.5808 17.3777C12.5315 17.3601 11.6087 16.786 10.5275 16.0992C9.44627 15.4124 8.49886 14.8207 8.42138 14.7785C7.91774 14.5249 7.19927 14.5249 6.69563 14.7785C6.61814 14.8207 5.67074 15.4124 4.59303 16.0957C3.51531 16.7825 2.59256 17.3565 2.54326 17.3777C2.43408 17.4164 2.32137 17.3812 2.22276 17.272C2.15232 17.1945 2.15232 17.1452 2.15232 9.98159C2.15232 2.81795 2.15232 2.76865 2.22276 2.69116C2.2615 2.6489 2.3249 2.59959 2.36364 2.58199C2.40238 2.5679 4.75856 2.55733 7.60077 2.56085L12.771 2.5679L12.8661 2.66651Z" fill="currentColor"/>
</svg>
