<svg width="25" height="24" viewBox="0 0 25 24" fill="none" stroke-width="1.4" xmlns="http://www.w3.org/2000/svg">
<path d="M4.49969 6.99933C4.49969 6.4689 4.71041 5.96019 5.08548 5.58511C5.46055 5.21004 5.96926 4.99933 6.49969 4.99933H18.4997C19.0301 4.99933 19.5388 5.21004 19.9139 5.58511C20.289 5.96019 20.4997 6.4689 20.4997 6.99933V18.9993C20.4997 19.5298 20.289 20.0385 19.9139 20.4135C19.5388 20.7886 19.0301 20.9993 18.4997 20.9993H6.49969C5.96926 20.9993 5.46055 20.7886 5.08548 20.4135C4.71041 20.0385 4.49969 19.5298 4.49969 18.9993V6.99933Z" stroke="currentColor" stroke-linecap="round" stroke-linejoin="round"/>
<path d="M16.4997 3V7" stroke="currentColor" stroke-linecap="round" stroke-linejoin="round"/>
<path d="M8.50031 3V7" stroke="currentColor" stroke-linecap="round" stroke-linejoin="round"/>
<path d="M4.49969 10.9993H20.4997" stroke="currentColor" stroke-linecap="round" stroke-linejoin="round"/>
<path d="M7.49969 13.9993H7.51414" stroke="currentColor" stroke-linecap="round" stroke-linejoin="round"/>
<path d="M10.5104 13.9993H10.5171" stroke="currentColor" stroke-linecap="round" stroke-linejoin="round"/>
<path d="M13.5104 13.9993H13.5171" stroke="currentColor" stroke-linecap="round" stroke-linejoin="round"/>
<path d="M16.515 13.9993H16.5216" stroke="currentColor" stroke-linecap="round" stroke-linejoin="round"/>
<path d="M13.515 16.9993H13.5216" stroke="currentColor" stroke-linecap="round" stroke-linejoin="round"/>
<path d="M7.51044 16.9993H7.5171" stroke="currentColor" stroke-linecap="round" stroke-linejoin="round"/>
<path d="M10.5104 16.9993H10.5171" stroke="currentColor" stroke-linecap="round" stroke-linejoin="round"/>
</svg>
