<svg width="50" height="50" viewBox="0 0 50 50" fill="none" xmlns="http://www.w3.org/2000/svg">
<path d="M49.9685 42.2548C49.6433 43.7103 48.8372 45.0142 47.6799 45.9568C46.4155 47.2373 44.9089 48.2541 43.2476 48.9482C41.5862 49.6423 39.8034 49.9999 38.0025 50H37.1611C33.3813 49.7951 29.6804 48.8398 26.2746 47.1899H26.2488C25.4591 46.8228 24.6436 46.4557 23.854 46.0085C19.8785 43.7826 16.232 41.0159 13.0193 37.7876C8.85003 33.8771 5.42862 29.2413 2.92253 24.1068C1.59065 21.293 0.70168 18.2907 0.287004 15.206C-0.322788 11.9772 0.0440266 8.6401 1.3407 5.62018C2.1593 4.25774 3.1591 3.01241 4.31278 1.9182C4.8319 1.33201 5.46657 0.859093 6.17709 0.529033C6.88761 0.198973 7.6587 0.0188727 8.44212 0C9.29414 0.0940212 10.119 0.356109 10.8687 0.77105C11.6185 1.18599 12.2782 1.74552 12.8096 2.41714C13.9928 3.70198 15.4374 5.0411 16.6231 6.27682L18.2542 7.87963C19.2121 8.72757 19.8049 9.91159 19.9111 11.1887C19.9111 12.3598 19.4787 13.4895 18.6994 14.3659C18.1948 14.9788 17.659 15.5655 17.0943 16.1238L16.5688 16.6744C16.2633 16.9588 16.0303 17.3104 15.8853 17.7007C15.7558 18.0851 15.7041 18.4789 15.7299 18.8822C16.1468 19.9964 16.8018 21.0098 17.6458 21.85C18.9635 23.6337 20.2787 25.1848 21.6198 26.8652C24.0454 29.6772 26.9242 32.0651 30.1373 33.9305C30.4661 34.1709 30.8441 34.3312 31.2454 34.401C31.5923 34.4269 31.9444 34.3752 32.2706 34.2459C33.1897 33.7056 34.0052 33.0128 34.6887 32.1959C35.6078 31.0719 36.9273 30.3473 38.3701 30.1742C39.7585 30.1933 41.083 30.7602 42.0541 31.7512C42.5797 32.1959 43.157 32.8008 43.7111 33.3799L44.4981 34.1916L45.3136 34.9801L46.709 36.3968C47.5409 37.1344 48.3211 37.9229 49.0494 38.7622C49.7795 39.7704 50.1083 41.0191 49.9685 42.2548Z" fill="#130D38"/>
<path d="M28.648 18V16.11C28.648 16.11 28.684 16.074 28.756 16.002C28.828 15.918 28.936 15.804 29.08 15.66C29.224 15.504 29.398 15.318 29.602 15.102C29.818 14.874 30.064 14.616 30.34 14.328C30.628 14.04 30.94 13.716 31.276 13.356C31.864 12.732 32.41 12.168 32.914 11.664C33.418 11.16 33.826 10.692 34.138 10.26C34.45 9.816 34.606 9.396 34.606 9C34.606 8.544 34.444 8.19 34.12 7.938C33.808 7.686 33.448 7.56 33.04 7.56C32.644 7.56 32.32 7.656 32.068 7.848C31.828 8.028 31.648 8.262 31.528 8.55C31.42 8.838 31.366 9.144 31.366 9.468H28.63C28.666 8.496 28.876 7.698 29.26 7.074C29.644 6.438 30.166 5.964 30.826 5.652C31.486 5.34 32.248 5.184 33.112 5.184C34.144 5.184 34.966 5.376 35.578 5.76C36.202 6.132 36.652 6.612 36.928 7.2C37.204 7.776 37.342 8.37 37.342 8.982C37.342 9.582 37.216 10.134 36.964 10.638C36.724 11.142 36.364 11.658 35.884 12.186C35.416 12.702 34.84 13.302 34.156 13.986C34.156 13.986 34.102 14.04 33.994 14.148C33.886 14.256 33.754 14.388 33.598 14.544C33.442 14.7 33.286 14.856 33.13 15.012C32.974 15.168 32.842 15.3 32.734 15.408C32.626 15.516 32.572 15.57 32.572 15.57H37.576V18H28.648ZM43.9403 18V15.894H38.4683V13.626L42.6083 5.4H45.3803L41.4563 13.464H44.1383V10.386H46.7843V13.464H47.9903V15.894H46.7843V18H43.9403Z" fill="#130D38"/>
</svg>
