<svg width="17" height="17" viewBox="0 0 17 17" fill="none" xmlns="http://www.w3.org/2000/svg">
<path d="M14.212 11.0839C14.5095 10.2883 14.671 9.43644 14.671 8.50035C14.671 7.82637 14.5775 7.18048 14.416 6.58138C13.8635 6.72179 13.2855 6.79668 12.682 6.79668C11.4461 6.79814 10.2279 6.47235 9.1303 5.84676C8.03265 5.22118 7.08767 4.31414 6.375 3.20212C5.61336 5.23411 4.17496 6.86843 2.3545 7.77021C2.3205 8.00423 2.3205 8.25697 2.3205 8.50035C2.3205 9.39404 2.48034 10.279 2.79089 11.1046C3.10144 11.9303 3.55661 12.6805 4.13043 13.3125C5.28931 14.5887 6.86109 15.3057 8.5 15.3057C9.3925 15.3057 10.251 15.0904 11.0245 14.7066C11.509 15.7269 11.73 16.2324 11.713 16.2324C10.319 16.7473 9.2395 17 8.5 17C6.443 17 4.4795 16.1107 3.0345 14.51C2.15479 13.5458 1.50133 12.3603 1.1305 11.0559H0V6.79668H0.9265C1.20721 5.29194 1.85257 3.89895 2.79411 2.76552C3.73565 1.63209 4.93825 0.800506 6.2743 0.359003C7.61035 -0.0825002 9.03001 -0.117451 10.3826 0.257857C11.7353 0.633166 12.9704 1.40473 13.957 2.49069C15.0278 3.66602 15.7584 5.16442 16.0565 6.79668H17V11.0559H16.949L13.923 14.1169L9.418 13.5552V11.9919H13.5235L14.212 11.0839ZM6.1795 8.28506C6.4345 8.28506 6.681 8.39738 6.8595 8.60332C7.03889 8.80249 7.13955 9.07166 7.13955 9.35219C7.13955 9.63272 7.03889 9.90189 6.8595 10.1011C6.681 10.2976 6.4345 10.41 6.1795 10.41C5.644 10.41 5.2105 9.94192 5.2105 9.35219C5.2105 8.76246 5.644 8.28506 6.1795 8.28506ZM10.812 8.28506C11.3475 8.28506 11.7725 8.76246 11.7725 9.35219C11.7725 9.94192 11.3475 10.41 10.812 10.41C10.2765 10.41 9.843 9.94192 9.843 9.35219C9.843 9.06917 9.94509 8.79774 10.1268 8.59761C10.3085 8.39748 10.555 8.28506 10.812 8.28506Z" fill="#130D38"/>
</svg>
