<svg width="19" height="19" viewBox="0 0 19 19" fill="none" xmlns="http://www.w3.org/2000/svg">
<path d="M5.625 14.3574C8.97891 17.701 12.0959 18.1521 13.7207 18.1104L13.7578 18.4951C12.049 18.5456 8.80699 18.0756 5.34668 14.6211L5.625 14.3574ZM15.2236 18.083C15.0764 18.1895 14.9177 18.2783 14.748 18.3447L14.709 17.9434C14.7881 17.906 14.8649 17.8624 14.9395 17.8125L15.2236 18.083ZM16.5684 16.7344L15.9453 17.3887L15.667 17.124L16.2891 16.4688L16.5684 16.7344ZM16.7764 13.1904C17.5352 13.8992 17.7225 15.0781 17.2129 15.9678L16.9219 15.6904C17.27 14.995 17.1323 14.1087 16.5771 13.5371L16.7764 13.1904ZM0.930664 5.84082C1.11863 7.44718 1.91569 10.3118 4.93555 13.6328L4.65723 13.8975C1.56023 10.4948 0.738204 7.54139 0.545898 5.8623L0.930664 5.84082ZM8.625 11.1982C9.78418 12.3382 10.5692 12.6923 11.0508 12.7715H11.0518C11.0741 12.7751 11.0961 12.7748 11.1172 12.7773L11.5107 13.1514C11.3685 13.1764 11.1959 13.1856 10.9902 13.1523C10.3953 13.0553 9.53735 12.638 8.3457 11.4639L8.625 11.1982ZM15.9395 12.6406L15.7471 12.9756L14.8506 12.459L15.042 12.124L15.9395 12.6406ZM12.5332 11.9014C13.0131 11.6 13.5956 11.5204 14.1445 11.6787L13.9453 12.0244C13.561 11.9369 13.165 11.9916 12.8242 12.1768L12.5332 11.9014ZM6.4248 7.75781C6.4275 7.80436 6.43077 7.85418 6.43848 7.90723C6.51328 8.424 6.85513 9.25392 7.93652 10.4727L7.65723 10.7383C6.61832 9.56844 6.20546 8.70805 6.08105 8.0957L6.05762 7.96484C6.02551 7.74386 6.03467 7.56034 6.05957 7.41113L6.4248 7.75781ZM7.21484 4.50879C7.48742 5.15928 7.44954 5.90146 7.10938 6.49902L6.82031 6.22461C7.04505 5.77319 7.07436 5.2293 6.89258 4.73633L7.21484 4.50879ZM1.16504 4.31152C1.06348 4.47725 0.986783 4.65421 0.939453 4.83984L0.538086 4.86133C0.59617 4.56441 0.718529 4.28937 0.880859 4.04199L1.16504 4.31152ZM6.68457 3.65918L6.36914 3.88184L5.7832 3.05273L6.09766 2.83008L6.68457 3.65918ZM2.5752 2.75098L1.81543 3.55078L1.53613 3.28516L2.29492 2.48438L2.5752 2.75098ZM3.03027 1.80273C3.79131 1.32245 4.78377 1.42455 5.47461 2.0459L5.14941 2.27539C4.61268 1.83714 3.89503 1.76823 3.32129 2.0791L3.03027 1.80273Z" fill="#4787FD" stroke="white"/>
<path d="M9.424 7V6.264C9.424 6.264 9.45067 6.23733 9.504 6.184C9.55733 6.12533 9.62933 6.048 9.72 5.952C9.81067 5.856 9.91467 5.74667 10.032 5.624C10.1547 5.496 10.2827 5.36267 10.416 5.224C10.5547 5.08 10.6933 4.936 10.832 4.792C11.0667 4.54667 11.2827 4.32267 11.48 4.12C11.6827 3.912 11.8427 3.71733 11.96 3.536C12.0827 3.34933 12.144 3.17067 12.144 3C12.144 2.74933 12.0667 2.54933 11.912 2.4C11.7627 2.24533 11.5627 2.168 11.312 2.168C11.1147 2.168 10.9493 2.21333 10.816 2.304C10.6827 2.39467 10.584 2.51467 10.52 2.664C10.456 2.81333 10.424 2.976 10.424 3.152H9.432C9.44267 2.752 9.528 2.416 9.688 2.144C9.848 1.86667 10.0693 1.65867 10.352 1.52C10.6347 1.376 10.9627 1.304 11.336 1.304C11.752 1.304 12.0933 1.38133 12.36 1.536C12.6267 1.68533 12.824 1.888 12.952 2.144C13.08 2.39467 13.144 2.67467 13.144 2.984C13.144 3.24533 13.0853 3.488 12.968 3.712C12.856 3.93067 12.7013 4.14667 12.504 4.36C12.312 4.57333 12.096 4.8 11.856 5.04C11.712 5.184 11.5813 5.31467 11.464 5.432C11.352 5.544 11.2533 5.64533 11.168 5.736C11.0827 5.82133 11.0107 5.89333 10.952 5.952C10.8987 6.01067 10.856 6.056 10.824 6.088C10.7973 6.11467 10.784 6.128 10.784 6.128H13.28V7H9.424ZM16.4566 7V5.96H13.8966V5.144L15.7766 1.4H16.7846L14.9766 5.072H16.5206V3.616H17.4806V5.072H18.1286V5.96H17.4806V7H16.4566Z" fill="white"/>
</svg>
