<svg width="14" height="14" viewBox="0 0 14 14" fill="none" xmlns="http://www.w3.org/2000/svg">
<path fill-rule="evenodd" clip-rule="evenodd" d="M3.5004 0.195954C4.3019 0.780076 4.92599 1.57737 5.45892 2.34031L5.76887 2.7919L6.06128 3.22315C6.20754 3.43684 6.27008 3.69687 6.23698 3.95369C6.20387 4.21051 6.07744 4.44618 5.88177 4.61579L4.51367 5.63187C4.44757 5.6796 4.40105 5.7497 4.38273 5.82914C4.36442 5.90859 4.37556 5.99198 4.4141 6.06383C4.72404 6.62691 5.2752 7.46558 5.90631 8.09669C6.53741 8.72779 7.41605 9.31542 8.01841 9.66042C8.09393 9.70282 8.18283 9.71467 8.26682 9.69354C8.35081 9.67241 8.42352 9.61991 8.47 9.54682L9.36056 8.19135C9.52428 7.97386 9.76581 7.82816 10.0346 7.78477C10.3033 7.74137 10.5784 7.80364 10.8023 7.95854L11.2672 8.28041C12.136 8.88346 13.0693 9.56856 13.7832 10.4823C13.8964 10.628 13.9684 10.8014 13.9917 10.9845C14.0151 11.1675 13.9888 11.3534 13.9157 11.5229C13.3288 12.8924 11.8436 14.0585 10.2988 14.0017L10.0884 13.9898L9.92504 13.9758L9.74413 13.9547L9.54708 13.9281L9.33321 13.893L9.22101 13.872L8.9854 13.8215L8.86198 13.7935L8.60533 13.7275L8.33536 13.6504L8.05347 13.5592C6.759 13.1203 5.11602 12.2578 3.43027 10.572C1.74452 8.88627 0.882713 7.24399 0.443745 5.94953L0.352585 5.66763L0.27545 5.39766L0.209535 5.14101L0.154839 4.89839C0.13906 4.82239 0.124332 4.74619 0.110662 4.66979L0.0756002 4.45591L0.047551 4.25887L0.0272155 4.07795L0.0131909 3.91456L0.00197128 3.7042C-0.0548282 2.1643 1.12394 0.668581 2.48712 0.0844587C2.65119 0.0136115 2.83086 -0.0133622 3.00851 0.00618455C3.18615 0.0257313 3.35566 0.0911267 3.5004 0.195954ZM12.2209 0.790595C12.3471 0.664831 12.5164 0.591815 12.6945 0.586378C12.8725 0.58094 13.046 0.643488 13.1796 0.761318C13.3133 0.879148 13.397 1.04342 13.4139 1.22078C13.4308 1.39814 13.3796 1.57527 13.2706 1.71622L13.2124 1.78213L10.9033 4.09127H12.0154C12.1941 4.09147 12.366 4.15991 12.496 4.2826C12.626 4.40529 12.7042 4.57298 12.7146 4.75141C12.7251 4.92983 12.6671 5.10551 12.5524 5.24257C12.4376 5.37963 12.2749 5.46771 12.0974 5.48882L12.0154 5.49373H9.21049C9.03874 5.49371 8.87297 5.43065 8.74462 5.31652C8.61627 5.20239 8.53427 5.04512 8.51417 4.87454L8.50927 4.7925V1.98759C8.50946 1.80886 8.5779 1.63695 8.70059 1.50699C8.82329 1.37703 8.99098 1.29882 9.1694 1.28835C9.34782 1.27787 9.52351 1.33592 9.66056 1.45064C9.79762 1.56535 9.8857 1.72807 9.90681 1.90555L9.91172 1.98759V3.09974L12.2209 0.790595Z" fill="#47965A"/>
</svg>
