<svg width="20" height="20" viewBox="0 0 20 20" fill="none" xmlns="http://www.w3.org/2000/svg">
<path d="M4.34301 0.275316C4.29873 0.295444 3.31642 1.25762 2.16101 2.41706C0.711706 3.86636 0.0434171 4.55881 0.0192621 4.64335C0.00315871 4.71179 -0.00489297 4.82854 0.00315871 4.90503C0.0232879 5.02983 0.844559 5.86721 7.31811 12.3448C11.3278 16.3585 14.6572 19.6718 14.7176 19.704C14.778 19.7362 14.9149 19.7604 15.0195 19.7604H15.2128L17.3545 17.6146C18.7998 16.1693 19.5043 15.4366 19.5245 15.3601C19.6009 15.0461 19.6533 15.1065 17.274 12.7192C16.0502 11.4953 14.9793 10.4406 14.8947 10.3761C14.7699 10.2836 14.6975 10.2594 14.5324 10.2594H14.3311L13.381 11.2055L12.435 12.1515L10.0275 9.74409L7.62407 7.34066L8.51378 6.45498C9.00091 5.96785 9.42765 5.52098 9.45986 5.4606C9.55245 5.27943 9.53232 5.05801 9.39947 4.88088C9.19415 4.60712 4.8704 0.319601 4.75365 0.279343C4.6208 0.227007 4.45574 0.227007 4.34301 0.275316ZM6.44853 3.34703L8.30847 5.20697L7.41876 6.09265C6.93163 6.57978 6.50489 7.02665 6.47268 7.08704C6.44048 7.14742 6.41632 7.27222 6.41632 7.36884V7.54195L9.30687 10.4325C12.4148 13.5405 12.2779 13.4197 12.604 13.3432C12.6765 13.3231 13.0388 12.9929 13.6427 12.3891L14.5686 11.4671L16.4407 13.3392L18.3127 15.2112L16.642 16.8819L14.9712 18.5526L8.09912 11.6805L1.22299 4.80439L2.88163 3.14574C3.7955 2.23187 4.55236 1.48307 4.56444 1.48307C4.57651 1.48307 5.42194 2.32044 6.44853 3.34703Z" fill="currentColor"/>
</svg>
