<svg width="11" height="12" viewBox="0 0 11 12" fill="none" xmlns="http://www.w3.org/2000/svg">
<path d="M9.8125 10.0312C10.0703 10.3594 10.0469 10.8281 9.71875 11.0859C9.57812 11.2031 9.41406 11.25 9.25 11.25C9.01562 11.25 8.80469 11.1797 8.66406 10.9922L5.5 7.17188L2.3125 10.9688C2.17188 11.1562 1.96094 11.25 1.75 11.25C1.5625 11.25 1.39844 11.1797 1.25781 11.0625C0.929688 10.8047 0.90625 10.3359 1.16406 10.0078L4.51562 6L1.16406 1.99219C0.90625 1.66406 0.929688 1.19531 1.25781 0.9375C1.58594 0.679688 2.05469 0.703125 2.3125 1.03125L5.5 4.82812L8.66406 1.03125C8.92188 0.703125 9.39062 0.679688 9.71875 0.9375C10.0469 1.19531 10.0703 1.66406 9.8125 1.99219L6.46094 6L9.8125 10.0312Z" fill="currentColor"/>
</svg>
