<svg width="13" height="13" viewBox="0 0 13 13" fill="none" xmlns="http://www.w3.org/2000/svg">
<path fill-rule="evenodd" clip-rule="evenodd" d="M6.34445 8.08041L2.06131 12.3635C1.83403 12.5908 1.52577 12.7185 1.20435 12.7185C0.882935 12.7185 0.574681 12.5908 0.347404 12.3635C0.120126 12.1363 -0.00755787 11.828 -0.00755787 11.5066C-0.00755787 11.1852 0.120126 10.8769 0.347404 10.6496L4.63216 6.3665L0.34821 2.08336C0.235727 1.97083 0.146511 1.83724 0.0856562 1.69022C0.0248013 1.54321 -0.00650215 1.38564 -0.00646496 1.22653C-0.00642681 1.06742 0.0249491 0.90987 0.0858736 0.762883C0.146798 0.615897 0.236078 0.482349 0.348615 0.369866C0.461151 0.257382 0.594741 0.168166 0.741756 0.107311C0.888772 0.0464555 1.04633 0.0151529 1.20545 0.0151904C1.36456 0.0152279 1.52211 0.0466045 1.6691 0.107529C1.81608 0.168454 1.94963 0.257733 2.06211 0.37027L6.34445 4.65341L10.6276 0.37027C10.7393 0.254505 10.8729 0.162147 11.0207 0.0985833C11.1685 0.0350198 11.3275 0.00152401 11.4883 5.08063e-05C11.6492 -0.00142239 11.8087 0.0291562 11.9576 0.0900025C12.1066 0.150849 12.2419 0.240744 12.3557 0.354443C12.4695 0.468142 12.5595 0.603369 12.6205 0.752231C12.6815 0.901093 12.7122 1.06061 12.7109 1.22148C12.7096 1.38234 12.6762 1.54133 12.6128 1.68917C12.5494 1.83701 12.4571 1.97074 12.3415 2.08256L8.05673 6.3665L12.3407 10.6505C12.4563 10.7623 12.5486 10.896 12.612 11.0438C12.6754 11.1917 12.7088 11.3507 12.7101 11.5115C12.7114 11.6724 12.6807 11.8319 12.6197 11.9808C12.5587 12.1296 12.4687 12.2649 12.3549 12.3786C12.2411 12.4923 12.1058 12.5822 11.9568 12.643C11.8079 12.7039 11.6484 12.7344 11.4875 12.733C11.3266 12.7315 11.1677 12.698 11.0199 12.6344C10.8721 12.5709 10.7385 12.4785 10.6268 12.3627L6.34445 8.08041Z" fill="#130D38"/>
</svg>
