<svg width="22" height="24" viewBox="0 0 22 24" fill="none" xmlns="http://www.w3.org/2000/svg">
<path d="M4.46731 0.0903015C3.17807 0.409098 2.12323 1.3608 1.66378 2.61254C1.4997 3.05792 1.49032 3.22669 1.61221 3.48923C1.72942 3.75177 1.94507 3.92054 2.20761 3.96273C2.63892 4.02837 2.98585 3.81271 3.14056 3.39547C3.45467 2.51409 3.98443 1.96557 4.7486 1.73116C5.04396 1.6374 5.19867 1.6374 11.4386 1.6374C17.6786 1.6374 17.8333 1.6374 18.1287 1.73116C18.9256 1.97495 19.5867 2.69693 19.7555 3.50329C19.8305 3.85491 19.8305 20.1416 19.7555 20.4932C19.5867 21.3043 18.9303 22.0169 18.1287 22.2654C17.8333 22.3591 17.6786 22.3591 11.4386 22.3591C5.19867 22.3591 5.04396 22.3591 4.7486 22.2654C4.16258 22.0872 3.58594 21.5997 3.32809 21.0746C3.13118 20.6714 3.07024 20.3667 3.07024 19.7666V19.2181H3.4406H3.80628L3.82972 19.4525C3.85785 19.7197 4.02194 19.9729 4.25166 20.0901C4.46731 20.2026 4.92675 20.1651 5.12835 20.0197C5.4237 19.8088 5.46121 19.6541 5.46121 18.4773C5.46121 17.3381 5.44245 17.235 5.19867 17.0052C4.93613 16.7615 4.59858 16.7146 4.25635 16.8787C4.04069 16.9818 3.82035 17.2865 3.82035 17.4741V17.5772H2.49359C1.19497 17.5772 1.15746 17.5819 0.960558 17.685C0.407353 17.9757 0.407353 18.8196 0.960558 19.1102C1.07307 19.1712 1.2231 19.2181 1.29811 19.2181H1.42938V19.8228C1.42938 21.1355 1.77161 22.0075 2.62486 22.8561C3.17807 23.4093 3.80159 23.7515 4.56576 23.925C4.85643 23.9906 5.62998 24 11.448 24C17.8099 24 18.0115 23.9953 18.3865 23.9062C19.8961 23.5452 21.0916 22.2935 21.3823 20.7792C21.4807 20.2541 21.4807 3.74239 21.3823 3.21731C21.0916 1.69835 19.8961 0.45129 18.3865 0.0903015C18.0115 0.00122452 17.8146 -0.00346375 11.4152 0.00122452C5.11897 0.00122452 4.81424 0.00591278 4.46731 0.0903015Z" fill="currentColor"/>
<path d="M4.21411 3.92533C3.99377 4.06598 3.85312 4.29101 3.82968 4.54886L3.80624 4.77858H2.47011H1.13398L0.932389 4.89578C0.402625 5.2052 0.41669 6.02563 0.960518 6.31161C1.07303 6.37256 1.22306 6.41944 1.29338 6.41944H1.42465L1.43871 8.21032L1.45278 10.0059L1.56529 10.1653C1.85596 10.5685 2.50293 10.606 2.84048 10.2356C3.06082 9.99652 3.0702 9.88869 3.0702 8.1025V6.41944H3.44525C3.79686 6.41944 3.82031 6.42413 3.82031 6.52258C3.82031 6.71011 4.04065 7.01484 4.25631 7.11798C4.59854 7.28207 4.93609 7.23518 5.19863 6.9914C5.44241 6.76168 5.46117 6.65854 5.46117 5.51931C5.46117 4.34258 5.42366 4.18787 5.12831 3.9769C4.90796 3.82219 4.42508 3.79406 4.21411 3.92533Z" fill="currentColor"/>
<path d="M11.2042 7.05206C10.2197 7.25365 9.32892 8.04126 8.99137 9.00703C8.81322 9.50866 8.78509 10.2869 8.92574 10.8026C9.07576 11.3464 9.30548 11.7262 9.74617 12.1622C10.1728 12.5841 10.5338 12.7904 11.1198 12.9357C12.6997 13.3436 14.3453 12.3684 14.7719 10.7792C14.875 10.3807 14.8797 9.68212 14.7719 9.27894C14.5094 8.25223 13.6936 7.40367 12.681 7.10363C12.3153 6.99111 11.6074 6.96767 11.2042 7.05206ZM12.4325 8.83825C12.9013 9.06328 13.1732 9.50866 13.1685 10.0525C13.1638 10.5729 12.8919 11.0042 12.4184 11.2386C11.4527 11.7215 10.3041 10.8307 10.5244 9.7712C10.7026 8.90858 11.6355 8.45382 12.4325 8.83825Z" fill="currentColor"/>
<path d="M4.3641 10.2635C4.06875 10.3526 3.82027 10.7089 3.82027 11.037V11.2011H2.54978C1.11051 11.2011 1.04487 11.2152 0.829217 11.5434C0.730766 11.6934 0.702637 11.7871 0.702637 11.9981C0.702637 12.406 0.927669 12.6873 1.3496 12.8139C1.42462 12.8373 1.4293 12.9639 1.4293 14.5766C1.4293 15.9831 1.44337 16.3394 1.49494 16.4425C1.81842 17.0613 2.6998 17.052 2.98109 16.4331C3.06079 16.2597 3.07017 16.0956 3.07017 14.5391V12.842H3.44522H3.82027V12.9967C3.82027 13.2499 4.0078 13.5499 4.24221 13.6718C4.6829 13.9062 5.20329 13.7281 5.3955 13.278C5.4752 13.0858 5.48926 10.9527 5.40956 10.7464C5.26423 10.3573 4.78604 10.1369 4.3641 10.2635Z" fill="currentColor"/>
<path d="M10.9135 13.8032C9.91021 13.986 8.99132 14.4595 8.20371 15.1956C8.03025 15.355 7.8521 15.566 7.80053 15.6597C7.48173 16.2879 8.049 17.0052 8.74285 16.8505C8.8413 16.8271 9.05227 16.6724 9.34762 16.3958C9.70861 16.0582 9.89145 15.9316 10.2665 15.7441C10.876 15.4441 11.2698 15.3597 11.9777 15.3831C12.8638 15.4159 13.5342 15.6972 14.2046 16.3254C14.7062 16.7849 14.9828 16.874 15.3813 16.6911C15.7939 16.5036 15.9626 15.9504 15.7423 15.5378C15.6579 15.3831 15.0672 14.844 14.7484 14.6283C13.853 14.0189 12.8825 13.7282 11.7949 13.7376C11.4948 13.7376 11.101 13.7704 10.9135 13.8032Z" fill="currentColor"/>
</svg>
