<svg width="22" height="22" viewBox="0 0 22 22" fill="none" xmlns="http://www.w3.org/2000/svg">
<path d="M2.74997 11.9175H3.66663V18.3342C3.66663 19.3453 4.48888 20.1675 5.49997 20.1675H16.5C17.5111 20.1675 18.3333 19.3453 18.3333 18.3342V11.9175H19.25C19.4312 11.9175 19.6084 11.8637 19.7591 11.763C19.9098 11.6622 20.0273 11.5191 20.0967 11.3516C20.166 11.1841 20.1842 10.9998 20.1488 10.8221C20.1135 10.6443 20.0262 10.481 19.8981 10.3528L11.6481 2.10275C11.563 2.01755 11.462 1.94996 11.3508 1.90384C11.2396 1.85772 11.1204 1.83398 11 1.83398C10.8796 1.83398 10.7604 1.85772 10.6492 1.90384C10.538 1.94996 10.4369 2.01755 10.3519 2.10275L2.10188 10.3528C1.97373 10.481 1.88645 10.6443 1.8511 10.8221C1.81575 10.9998 1.8339 11.1841 1.90326 11.3516C1.97263 11.5191 2.09009 11.6622 2.2408 11.763C2.39151 11.8637 2.5687 11.9175 2.74997 11.9175ZM11 4.047L16.5 9.547V13.7508L16.5009 18.3342H5.49997V9.547L11 4.047Z" fill="white" fill-opacity="0.9"/>
<path d="M10.9999 16.4993C14.3943 16.4993 15.4925 13.2552 15.5374 13.1177L13.7957 12.5485C13.7884 12.5696 13.0798 14.666 10.9999 14.666C8.9484 14.666 8.23157 12.6301 8.20315 12.543L6.4624 13.1177C6.50732 13.2552 7.60549 16.4993 10.9999 16.4993Z" fill="white" fill-opacity="0.9"/>
</svg>
