<svg width="32" height="32" viewBox="0 0 32 32" fill="none" xmlns="http://www.w3.org/2000/svg">
<path fill-rule="evenodd" clip-rule="evenodd" d="M4.73682 23.8563H0V2.55326C0 1.19428 1.11314 0.0859375 2.478 0.0859375H4.73682V23.8563ZM4.73682 26.8762H0V29.1186C0 30.4776 1.11314 31.5859 2.478 31.5859H4.73682V26.8762ZM12.1895 31.5859H7.45272V7.81559H12.1895V31.5859ZM12.1895 0.0859375H7.45272V4.79565H12.1895V0.0859375ZM14.9786 7.8402C19.6518 7.8402 23.4416 11.4208 23.4416 15.8359C23.4416 20.251 19.6518 23.8317 14.9786 23.8317L14.9054 23.8309V19.659L14.9786 19.6601C17.2134 19.6601 19.0262 17.9474 19.0262 15.8359C19.0262 13.7245 17.2134 12.0118 14.9786 12.0118L14.9054 12.0128V7.84093L14.9786 7.8402ZM14.9786 0.0859375C24.1844 0.0859375 31.6487 7.13838 31.6487 15.8359C31.6487 24.5335 24.1844 31.5859 14.9786 31.5859L14.9054 31.5849V26.8791L14.9786 26.8797C21.4338 26.8797 26.6676 21.9345 26.6676 15.8359C26.6676 9.73735 21.4338 4.79214 14.9786 4.79214L14.9054 4.79282V0.0869856L14.9786 0.0859375Z" fill="url(#paint0_linear_1886_4043)"/>
<defs>
<linearGradient id="paint0_linear_1886_4043" x1="2.99306" y1="31.0706" x2="29.6025" y2="4.50227" gradientUnits="userSpaceOnUse">
<stop stop-color="#A96AFA"/>
<stop offset="0.45098" stop-color="#5732FA"/>
<stop offset="1" stop-color="#08DEBA"/>
</linearGradient>
</defs>
</svg>
