<svg width="210" height="35" viewBox="0 0 210 35" fill="none" xmlns="http://www.w3.org/2000/svg">
<path fill-rule="evenodd" clip-rule="evenodd" d="M47.561 26.5343C45.7136 26.5343 44.1225 26.0932 42.7871 25.2114C41.4513 24.3291 40.4277 23.1555 39.7164 21.6895C39.005 20.2235 38.6492 18.5837 38.6492 16.7701C38.6492 14.9815 39.005 13.3602 39.7164 11.9069C40.4277 10.4537 41.4513 9.29799 42.7871 8.44122C44.1225 7.58401 45.7136 7.15523 47.561 7.15523C48.9339 7.15523 50.1823 7.43478 51.3056 7.99397C52.4289 8.55272 53.3399 9.34144 54.039 10.3602V0H58.0455V26.087H54.1889L54.039 23.2174C53.44 24.1865 52.5788 24.9814 51.4555 25.6025C50.3318 26.2235 49.0339 26.5343 47.561 26.5343ZM48.3474 23.0686C49.5209 23.0686 50.5316 22.7951 51.3805 22.2487C52.2291 21.7018 52.8782 20.9565 53.3276 20.0124C53.777 19.0683 54.0015 18.0122 54.0015 16.8447C54.0015 15.503 53.7457 14.3727 53.2341 13.4537C52.7221 12.5341 52.0359 11.8262 51.1746 11.3293C50.3133 10.8324 49.3585 10.584 48.3098 10.584C47.2364 10.584 46.2755 10.8447 45.427 11.3666C44.5781 11.8881 43.9104 12.6088 43.4235 13.5279C42.9366 14.4474 42.6932 15.5403 42.6932 16.8075C42.6932 18.0496 42.9428 19.1429 43.442 20.087C43.9416 21.0311 44.6155 21.7641 45.464 22.2856C46.313 22.8074 47.2739 23.0686 48.3474 23.0686Z" fill="white"/>
<path fill-rule="evenodd" clip-rule="evenodd" d="M66.2317 26.5353C65.0335 26.5353 63.935 26.318 62.9366 25.8831C61.9381 25.4481 61.1394 24.8086 60.5401 23.9637C59.9412 23.1192 59.6414 22.1005 59.6414 20.9079C59.6414 19.4915 59.9972 18.3552 60.7086 17.498C61.4199 16.6408 62.3813 16.0074 63.5919 15.5975C64.8025 15.1875 66.1316 14.9826 67.5799 14.9826H72.2978C72.2978 13.9142 72.1231 13.0509 71.7735 12.3925C71.4242 11.7341 70.9496 11.2496 70.3508 10.9388C69.7514 10.6285 69.0524 10.4731 68.2538 10.4731C67.2051 10.4731 66.2878 10.7154 65.5014 11.1999C64.7151 11.6841 64.2221 12.4482 64.0223 13.4916H60.0158C60.1406 12.1502 60.5962 11.0073 61.3824 10.0632C62.1692 9.11907 63.1738 8.39839 64.3967 7.90152C65.6201 7.40466 66.9184 7.15625 68.2913 7.15625C70.0884 7.15625 71.5799 7.48541 72.7657 8.14378C73.9516 8.80218 74.8376 9.71555 75.4245 10.8831C76.0111 12.0506 76.3043 13.38 76.3043 14.8706V20.5353C76.3291 21.2556 76.4852 21.7836 76.7723 22.1189C77.0594 22.4546 77.5775 22.6469 78.3264 22.6965V26.088C77.3279 26.088 76.4605 25.9761 75.724 25.7527C74.9875 25.5288 74.382 25.1874 73.9079 24.7278C73.4334 24.2683 73.059 23.678 72.7847 22.9577C72.1854 23.9514 71.3117 24.7963 70.1633 25.4915C69.0149 26.1873 67.7047 26.5353 66.2317 26.5353ZM67.168 23.293C68.1912 23.293 69.0899 23.0384 69.8639 22.5288C70.6378 22.0197 71.2368 21.349 71.661 20.5164C72.0857 19.6842 72.2978 18.7836 72.2978 17.8149V17.7403H67.8794C67.1552 17.7403 66.4752 17.8272 65.8384 18.001C65.202 18.1748 64.6904 18.4671 64.3032 18.8766C63.9165 19.2866 63.7229 19.8519 63.7229 20.5726C63.7229 21.5167 64.0598 22.2062 64.7341 22.6408C65.408 23.0757 66.2194 23.293 67.168 23.293Z" fill="white"/>
<path fill-rule="evenodd" clip-rule="evenodd" d="M85.7159 26.0895C83.869 26.0895 82.4458 25.6422 81.4474 24.7477C80.4489 23.8536 79.9497 22.3876 79.9497 20.3502V10.9218H77.1414V7.60493H79.9497V3.13281H83.9188V7.60493V10.9218V20.3502C83.9188 21.2943 84.1309 21.9281 84.5552 22.2511C84.9798 22.5737 85.6413 22.7353 86.5397 22.7353H88.6367V26.0895H85.7159Z" fill="white"/>
<path fill-rule="evenodd" clip-rule="evenodd" d="M84.6179 7.60156H88.6364V8.45466C88.6364 9.81157 87.5243 10.9184 86.1609 10.9184H84.6179V7.60156Z" fill="url(#paint0_linear_1_24998)"/>
<path fill-rule="evenodd" clip-rule="evenodd" d="M96.513 26.5353C95.3148 26.5353 94.2162 26.318 93.2178 25.8831C92.2194 25.4481 91.4207 24.8086 90.8214 23.9637C90.2225 23.1192 89.9226 22.1005 89.9226 20.9079C89.9226 19.4915 90.2785 18.3552 90.9898 17.498C91.7012 16.6408 92.6626 16.0074 93.8731 15.5975C95.0837 15.1875 96.4129 14.9826 97.8611 14.9826H102.579C102.579 13.9142 102.404 13.0509 102.055 12.3925C101.705 11.7341 101.231 11.2496 100.632 10.9388C100.033 10.6285 99.3337 10.4731 98.535 10.4731C97.4863 10.4731 96.569 10.7154 95.7827 11.1999C94.9964 11.6841 94.5033 12.4482 94.3036 13.4916H90.297C90.4218 12.1502 90.8774 11.0073 91.6637 10.0632C92.4504 9.11907 93.455 8.39839 94.678 7.90152C95.9013 7.40466 97.1996 7.15625 98.5725 7.15625C100.37 7.15625 101.861 7.48541 103.047 8.14378C104.233 8.80218 105.119 9.71555 105.706 10.8831C106.292 12.0506 106.586 13.38 106.586 14.8706V20.5353C106.61 21.2556 106.766 21.7836 107.054 22.1189C107.341 22.4546 107.859 22.6469 108.608 22.6965V26.088C107.609 26.088 106.742 25.9761 106.005 25.7527C105.269 25.5288 104.663 25.1874 104.189 24.7278C103.715 24.2683 103.34 23.678 103.066 22.9577C102.467 23.9514 101.593 24.7963 100.445 25.4915C99.2962 26.1873 97.986 26.5353 96.513 26.5353ZM97.4493 23.293C98.4724 23.293 99.3712 23.0384 100.145 22.5288C100.919 22.0197 101.518 21.349 101.942 20.5164C102.367 19.6842 102.579 18.7836 102.579 17.8149V17.7403H98.1606C97.4365 17.7403 96.7564 17.8272 96.1196 18.001C95.4832 18.1748 94.9717 18.4671 94.5845 18.8766C94.1977 19.2866 94.0041 19.8519 94.0041 20.5726C94.0041 21.5167 94.3411 22.2062 95.0153 22.6408C95.6892 23.0757 96.5007 23.293 97.4493 23.293Z" fill="white"/>
<path fill-rule="evenodd" clip-rule="evenodd" d="M110.485 34.286V7.60249H114.304L114.454 10.3975C115.103 9.45338 115.977 8.67692 117.075 8.06817C118.174 7.45981 119.472 7.15523 120.97 7.15523C122.817 7.15523 124.402 7.58401 125.725 8.44122C127.048 9.29799 128.072 10.4537 128.795 11.9069C129.519 13.3602 129.881 14.9938 129.881 16.8075C129.881 18.621 129.519 20.267 128.795 21.7453C128.072 23.2235 127.042 24.3915 125.706 25.2487C124.371 26.1054 122.792 26.5343 120.97 26.5343C119.422 26.5343 118.093 26.2174 116.982 25.584C115.871 24.9502 115.028 24.1738 114.454 23.2547V34.286H110.485ZM120.146 23.0686C121.294 23.0686 122.293 22.7951 123.141 22.2487C123.99 21.7018 124.652 20.9565 125.126 20.0124C125.6 19.0683 125.837 18 125.837 16.8075C125.837 15.5653 125.594 14.4781 125.107 13.5467C124.62 12.6149 123.953 11.8881 123.104 11.3666C122.255 10.8447 121.269 10.584 120.146 10.584C119.047 10.584 118.074 10.8509 117.225 11.3851C116.376 11.9192 115.708 12.6522 115.222 13.584C114.735 14.5154 114.492 15.6026 114.492 16.8447C114.492 17.9877 114.728 19.0372 115.203 19.9939C115.677 20.9504 116.339 21.7018 117.188 22.2487C118.036 22.7951 119.022 23.0686 120.146 23.0686ZM131.762 26.087V0H135.731V10.2487C136.355 9.25453 137.229 8.49083 138.352 7.95667C139.475 7.42251 140.649 7.15523 141.872 7.15523C144.019 7.15523 145.76 7.83247 147.095 9.18649C148.431 10.5406 149.099 12.5592 149.099 15.2423V26.087H145.167V15.7268C145.167 14.062 144.792 12.7764 144.043 11.8696C143.295 10.9628 142.184 10.5094 140.711 10.5094C139.213 10.5094 138.009 11.0124 137.098 12.0188C136.186 13.0248 135.731 14.41 135.731 16.1741V26.087H131.762ZM160.231 26.5343C158.433 26.5343 156.817 26.1428 155.381 25.3602C153.946 24.5776 152.81 23.4535 151.974 21.9875C151.138 20.522 150.719 18.7953 150.719 16.8075C150.719 14.82 151.15 13.1056 152.012 11.6647C152.873 10.2237 154.034 9.1119 155.494 8.32929C156.954 7.54672 158.583 7.15523 160.38 7.15523C162.178 7.15523 163.8 7.54056 165.248 8.31046C166.696 9.08072 167.857 10.1864 168.731 11.6273C169.604 13.0683 170.041 14.795 170.041 16.8075C170.041 18.6956 169.623 20.3728 168.787 21.8387C167.951 23.3043 166.796 24.4534 165.323 25.2856C163.85 26.1182 162.153 26.5343 160.231 26.5343ZM160.268 23.1054C161.366 23.1054 162.346 22.8324 163.207 22.2856C164.069 21.7391 164.749 20.9877 165.248 20.0313C165.747 19.0745 165.997 17.9877 165.997 16.7701C165.997 15.528 165.754 14.4412 165.267 13.5094C164.78 12.5776 164.112 11.8573 163.263 11.3478C162.415 10.8386 161.429 10.584 160.306 10.584C159.132 10.584 158.127 10.8571 157.291 11.4039C156.455 11.9504 155.818 12.6895 155.381 13.6213C154.945 14.5527 154.726 15.6149 154.726 16.8075C154.726 18.1738 154.982 19.3294 155.494 20.2735C156.005 21.2173 156.686 21.9256 157.534 22.3975C158.383 22.8697 159.294 23.1054 160.268 23.1054ZM171.831 26.087V7.60249H175.65L175.725 10.3229C176.349 9.30458 177.217 8.52197 178.327 7.9751C179.438 7.42867 180.618 7.15523 181.866 7.15523C184.038 7.15523 185.798 7.83247 187.146 9.18649C188.494 10.5406 189.168 12.5592 189.168 15.2423V26.087H185.198V15.7268C185.198 14.062 184.824 12.7764 184.075 11.8696C183.326 10.9628 182.203 10.5094 180.705 10.5094C179.232 10.5094 178.047 11.0124 177.148 12.0188C176.249 13.0248 175.8 14.41 175.8 16.1741V26.087H171.831ZM200.167 26.5343C198.345 26.5343 196.735 26.1243 195.337 25.3044C193.939 24.4845 192.847 23.3416 192.061 21.876C191.274 20.41 190.881 18.733 190.881 16.8447C190.881 14.8819 191.268 13.1802 192.042 11.7392C192.816 10.2983 193.908 9.17378 195.318 8.36663C196.729 7.55903 198.357 7.15523 200.205 7.15523C202.002 7.15523 203.575 7.54672 204.923 8.32929C206.271 9.1119 207.326 10.1741 208.087 11.5154C208.848 12.8572 209.229 14.3851 209.229 16.0994C209.229 16.4471 209.223 16.7455 209.21 16.994C209.198 17.2424 209.166 17.5404 209.117 17.888H194.85C194.925 18.9318 195.187 19.857 195.637 20.6646C196.086 21.4722 196.697 22.1056 197.471 22.5652C198.245 23.0247 199.131 23.2547 200.13 23.2547C201.203 23.2547 202.121 23.0124 202.882 22.5278C203.644 22.0437 204.211 21.3542 204.586 20.4597H208.705C208.38 21.5776 207.837 22.5963 207.076 23.5154C206.314 24.4349 205.36 25.1679 204.211 25.7144C203.063 26.2608 201.715 26.5343 200.167 26.5343ZM194.888 15.093H205.185C205.135 13.6521 204.623 12.5157 203.65 11.6831C202.676 10.8509 201.49 10.4348 200.092 10.4348C198.844 10.4348 197.709 10.8197 196.685 11.59C195.661 12.3603 195.063 13.5279 194.888 15.093Z" fill="url(#paint1_linear_1_24998)"/>
<path fill-rule="evenodd" clip-rule="evenodd" d="M4.73682 23.8563H0V2.55326C0 1.19428 1.11314 0.0859375 2.478 0.0859375H4.73682V23.8563ZM4.73682 26.8762H0V29.1186C0 30.4776 1.11314 31.5859 2.478 31.5859H4.73682V26.8762ZM12.1895 31.5859H7.45272V7.81559H12.1895V31.5859ZM12.1895 0.0859375H7.45272V4.79565H12.1895V0.0859375ZM14.9786 7.8402C19.6518 7.8402 23.4416 11.4208 23.4416 15.8359C23.4416 20.251 19.6518 23.8317 14.9786 23.8317L14.9054 23.8309V19.659L14.9786 19.6601C17.2134 19.6601 19.0262 17.9474 19.0262 15.8359C19.0262 13.7245 17.2134 12.0118 14.9786 12.0118L14.9054 12.0128V7.84093L14.9786 7.8402ZM14.9786 0.0859375C24.1844 0.0859375 31.6487 7.13838 31.6487 15.8359C31.6487 24.5335 24.1844 31.5859 14.9786 31.5859L14.9054 31.5849V26.8791L14.9786 26.8797C21.4338 26.8797 26.6676 21.9345 26.6676 15.8359C26.6676 9.73735 21.4338 4.79214 14.9786 4.79214L14.9054 4.79282V0.0869856L14.9786 0.0859375Z" fill="url(#paint2_linear_1_24998)"/>
<defs>
<linearGradient id="paint0_linear_1_24998" x1="83.677" y1="12.9346" x2="88.1627" y2="7.10661" gradientUnits="userSpaceOnUse">
<stop stop-color="#A96AFA"/>
<stop offset="0.45098" stop-color="#5732FA"/>
<stop offset="1" stop-color="#08DEBA"/>
</linearGradient>
<linearGradient id="paint1_linear_1_24998" x1="135.305" y1="43.1101" x2="171.546" y2="-8.93914" gradientUnits="userSpaceOnUse">
<stop stop-color="#A96AFA"/>
<stop offset="0.470588" stop-color="#5732FA"/>
<stop offset="1" stop-color="#08DEBA"/>
</linearGradient>
<linearGradient id="paint2_linear_1_24998" x1="2.99306" y1="31.0706" x2="29.6025" y2="4.50227" gradientUnits="userSpaceOnUse">
<stop stop-color="#A96AFA"/>
<stop offset="0.45098" stop-color="#5732FA"/>
<stop offset="1" stop-color="#08DEBA"/>
</linearGradient>
</defs>
</svg>
