<svg width="200" height="33" viewBox="0 0 200 33" fill="none" xmlns="http://www.w3.org/2000/svg">
<g clip-path="url(#clip0_172950_1606)">
<mask id="mask0_172950_1606" style="mask-type:luminance" maskUnits="userSpaceOnUse" x="0" y="0" width="200" height="33">
<path d="M200 0H0V33H200V0Z" fill="white"/>
</mask>
<g mask="url(#mask0_172950_1606)">
<path fill-rule="evenodd" clip-rule="evenodd" d="M47.6099 25.0312C45.8732 25.0312 44.3775 24.6154 43.1223 23.7839C41.8665 22.9521 40.9043 21.8455 40.2356 20.4633C39.567 19.0811 39.2324 17.535 39.2324 15.825C39.2324 14.1387 39.567 12.61 40.2356 11.2397C40.9043 9.86947 41.8665 8.77989 43.1223 7.97205C44.3775 7.16383 45.8732 6.75955 47.6099 6.75955C48.9004 6.75955 50.074 7.02313 51.1299 7.55035C52.1858 8.07717 53.0423 8.82081 53.6994 9.78136V0.0131836H57.4656V24.6095H53.8403L53.6994 21.9038C53.1363 22.8176 52.3267 23.5671 51.2709 24.1526C50.2145 24.7382 48.9945 25.0312 47.6099 25.0312ZM48.349 21.7636C49.4522 21.7636 50.4023 21.5058 51.2004 20.9905C51.998 20.4748 52.6082 19.7722 53.0307 18.882C53.4531 17.9918 53.6641 16.9961 53.6641 15.8953C53.6641 14.6303 53.4237 13.5646 52.9428 12.6981C52.4614 11.8311 51.8164 11.1636 51.0067 10.6951C50.1971 10.2266 49.2996 9.99239 48.3137 9.99239C47.3047 9.99239 46.4014 10.2382 45.6037 10.7303C44.8057 11.222 44.1781 11.9014 43.7204 12.768C43.2628 13.635 43.0339 14.6654 43.0339 15.8602C43.0339 17.0314 43.2685 18.0622 43.7379 18.9524C44.2075 19.8426 44.841 20.5337 45.6386 21.0253C46.4366 21.5173 47.3399 21.7636 48.349 21.7636Z" fill="#0B1739"/>
<path fill-rule="evenodd" clip-rule="evenodd" d="M65.1614 25.0313C64.035 25.0313 63.0024 24.8265 62.0638 24.4163C61.1252 24.0062 60.3745 23.4032 59.8111 22.6066C59.2481 21.8104 58.9662 20.8499 58.9662 19.7255C58.9662 18.39 59.3007 17.3186 59.9694 16.5105C60.6381 15.7022 61.5418 15.1051 62.6798 14.7185C63.8178 14.332 65.0673 14.1387 66.4287 14.1387H70.8637C70.8637 13.1314 70.6995 12.3175 70.3708 11.6967C70.0425 11.0759 69.5964 10.619 69.0334 10.3261C68.47 10.0335 67.813 9.88694 67.0621 9.88694C66.0764 9.88694 65.214 10.1154 64.4749 10.5723C63.7357 11.0287 63.2722 11.7492 63.0845 12.7329H59.3182C59.4355 11.4682 59.8637 10.3906 60.6029 9.50051C61.3425 8.61033 62.2869 7.93081 63.4364 7.46233C64.5864 6.99386 65.8068 6.75964 67.0974 6.75964C68.7868 6.75964 70.1888 7.07 71.3035 7.69074C72.4183 8.31152 73.2511 9.17274 73.803 10.2735C74.3543 11.3743 74.63 12.6278 74.63 14.0332V19.3742C74.6532 20.0532 74.8 20.5511 75.0698 20.8673C75.3397 21.1838 75.8269 21.3652 76.5307 21.4119V24.6096C75.5921 24.6096 74.7768 24.504 74.0844 24.2934C73.3921 24.0824 72.823 23.7604 72.3773 23.3271C71.9312 22.8938 71.5792 22.3373 71.3214 21.6581C70.758 22.5951 69.9367 23.3917 68.8573 24.0472C67.7777 24.7032 66.546 25.0313 65.1614 25.0313ZM66.0416 21.9743C67.0033 21.9743 67.8482 21.7343 68.5757 21.2538C69.3033 20.7737 69.8663 20.1414 70.265 19.3564C70.6643 18.5717 70.8637 17.7225 70.8637 16.8092V16.7389H66.7102C66.0295 16.7389 65.3902 16.8208 64.7916 16.9847C64.1934 17.1486 63.7125 17.4241 63.3485 17.8103C62.985 18.1968 62.803 18.7298 62.803 19.4093C62.803 20.2995 63.1197 20.9496 63.7535 21.3593C64.387 21.7694 65.1498 21.9743 66.0416 21.9743Z" fill="#0B1739"/>
<path fill-rule="evenodd" clip-rule="evenodd" d="M83.4778 24.6098C81.7415 24.6098 80.4037 24.1881 79.4651 23.3448C78.5266 22.5017 78.0573 21.1195 78.0573 19.1985V10.3088H75.4174V7.18154H78.0573V2.96497H81.7884V7.18154V10.3088V19.1985C81.7884 20.0886 81.9878 20.6862 82.3865 20.9908C82.786 21.295 83.4075 21.4473 84.2522 21.4473H86.2232V24.6098H83.4778Z" fill="#0B1739"/>
<path fill-rule="evenodd" clip-rule="evenodd" d="M82.4458 7.18103H86.2232V7.98539C86.2232 9.26475 85.1778 10.3084 83.896 10.3084H82.4458V7.18103Z" fill="url(#paint0_linear_172950_1606)"/>
<path fill-rule="evenodd" clip-rule="evenodd" d="M93.6273 25.0313C92.5008 25.0313 91.4686 24.8265 90.5298 24.4163C89.5909 24.0062 88.8405 23.4032 88.2769 22.6066C87.7141 21.8104 87.4323 20.8499 87.4323 19.7255C87.4323 18.39 87.767 17.3186 88.4356 16.5105C89.1042 15.7022 90.0075 15.1051 91.1455 14.7185C92.2835 14.332 93.5331 14.1387 94.8951 14.1387H99.3298C99.3298 13.1314 99.1653 12.3175 98.8372 11.6967C98.5083 11.0759 98.062 10.619 97.4992 10.3261C96.9364 10.0335 96.2785 9.88694 95.5281 9.88694C94.5422 9.88694 93.6802 10.1154 92.9405 10.5723C92.2017 11.0287 91.738 11.7492 91.5504 12.7329H87.7843C87.9017 11.4682 88.3298 10.3906 89.0686 9.50051C89.8083 8.61033 90.7529 7.93081 91.9025 7.46233C93.0521 6.99386 94.2728 6.75964 95.5637 6.75964C97.2529 6.75964 98.6546 7.07 99.7694 7.69074C100.884 8.31152 101.717 9.17274 102.269 10.2735C102.821 11.3743 103.096 12.6278 103.096 14.0332V19.3742C103.119 20.0532 103.266 20.5511 103.536 20.8673C103.806 21.1838 104.293 21.3652 104.997 21.4119V24.6096C104.058 24.6096 103.243 24.504 102.55 24.2934C101.858 24.0824 101.289 23.7604 100.843 23.3271C100.398 22.8938 100.045 22.3373 99.7876 21.6581C99.224 22.5951 98.4025 23.3917 97.3232 24.0472C96.2438 24.7032 95.0124 25.0313 93.6273 25.0313ZM94.5075 21.9743C95.4694 21.9743 96.3141 21.7343 97.0413 21.2538C97.7694 20.7737 98.3322 20.1414 98.7314 19.3564C99.1306 18.5717 99.3298 17.7225 99.3298 16.8092V16.7389H95.1761C94.4959 16.7389 93.8562 16.8208 93.2579 16.9847C92.6595 17.1486 92.1785 17.4241 91.8149 17.8103C91.4513 18.1968 91.2686 18.7298 91.2686 19.4093C91.2686 20.2995 91.586 20.9496 92.2199 21.3593C92.8529 21.7694 93.6157 21.9743 94.5075 21.9743Z" fill="#0B1739"/>
<path fill-rule="evenodd" clip-rule="evenodd" d="M106.76 32.34V7.18124H110.35L110.49 9.8165C111.101 8.92633 111.922 8.19428 112.954 7.62031C113.987 7.04671 115.207 6.75955 116.615 6.75955C118.351 6.75955 119.841 7.16382 121.085 7.97205C122.329 8.77989 123.291 9.86947 123.971 11.2397C124.652 12.61 124.993 14.1502 124.993 15.8602C124.993 17.5702 124.652 19.122 123.971 20.5158C123.291 21.9097 122.323 23.0108 121.068 23.8191C119.812 24.6269 118.328 25.0312 116.615 25.0312C115.16 25.0312 113.911 24.7324 112.866 24.1352C111.822 23.5377 111.03 22.8056 110.49 21.939V32.34H106.76ZM115.841 21.7636C116.92 21.7636 117.859 21.5058 118.656 20.9905C119.455 20.4748 120.076 19.7722 120.522 18.882C120.968 17.9918 121.191 16.9846 121.191 15.8602C121.191 14.689 120.962 13.664 120.504 12.7858C120.047 11.9072 119.419 11.222 118.622 10.7303C117.823 10.2382 116.897 9.99239 115.841 9.99239C114.808 9.99239 113.893 10.244 113.095 10.7477C112.297 11.2513 111.669 11.9424 111.212 12.821C110.755 13.6991 110.526 14.7242 110.526 15.8953C110.526 16.973 110.748 17.9625 111.194 18.8646C111.64 19.7664 112.262 20.4748 113.06 20.9905C113.858 21.5058 114.784 21.7636 115.841 21.7636ZM126.76 24.6095V0.0131836H130.491V9.67625C131.078 8.73889 131.899 8.01883 132.955 7.51519C134.011 7.01155 135.114 6.75955 136.264 6.75955C138.282 6.75955 139.919 7.39808 141.174 8.6747C142.429 9.95139 143.057 11.8547 143.057 14.3844V24.6095H139.361V14.8413C139.361 13.2717 139.009 12.0595 138.305 11.2046C137.602 10.3495 136.557 9.9221 135.173 9.9221C133.764 9.9221 132.632 10.3963 131.776 11.3452C130.919 12.2937 130.491 13.5998 130.491 15.263V24.6095H126.76ZM153.522 25.0312C151.832 25.0312 150.312 24.662 148.964 23.9242C147.614 23.1864 146.546 22.1265 145.76 20.7443C144.974 19.3625 144.581 17.7344 144.581 15.8602C144.581 13.9863 144.986 12.3699 145.796 11.0113C146.605 9.65266 147.697 8.60441 149.069 7.86651C150.441 7.12866 151.973 6.75955 153.662 6.75955C155.352 6.75955 156.877 7.12285 158.238 7.84876C159.599 8.57504 160.69 9.61751 161.512 10.976C162.333 12.3347 162.744 13.9628 162.744 15.8602C162.744 17.6405 162.35 19.2218 161.564 20.604C160.779 21.9858 159.693 23.0692 158.309 23.8539C156.924 24.6389 155.328 25.0312 153.522 25.0312ZM153.557 21.7983C154.589 21.7983 155.511 21.5409 156.32 21.0253C157.13 20.5101 157.769 19.8016 158.238 18.8998C158.707 17.9977 158.942 16.973 158.942 15.825C158.942 14.6538 158.714 13.6292 158.256 12.7506C157.798 11.8721 157.171 11.1929 156.373 10.7125C155.575 10.2324 154.648 9.99239 153.593 9.99239C152.489 9.99239 151.545 10.2499 150.759 10.7654C149.973 11.2806 149.374 11.9776 148.964 12.8561C148.553 13.7343 148.347 14.7358 148.347 15.8602C148.347 17.1484 148.588 18.238 149.069 19.1282C149.55 20.018 150.189 20.6859 150.987 21.1308C151.785 21.5761 152.641 21.7983 153.557 21.7983ZM164.426 24.6095V7.18124H168.017L168.087 9.74621C168.674 8.78608 169.489 8.04818 170.533 7.53256C171.578 7.01736 172.687 6.75955 173.86 6.75955C175.901 6.75955 177.555 7.39808 178.823 8.6747C180.09 9.95139 180.724 11.8547 180.724 14.3844V24.6095H176.993V14.8413C176.993 13.2717 176.641 12.0595 175.936 11.2046C175.232 10.3495 174.177 9.9221 172.769 9.9221C171.384 9.9221 170.269 10.3963 169.425 11.3452C168.58 12.2937 168.158 13.5998 168.158 15.263V24.6095H164.426ZM191.064 25.0312C189.35 25.0312 187.837 24.6446 186.523 23.8716C185.208 23.0986 184.182 22.021 183.443 20.6391C182.704 19.257 182.334 17.6757 182.334 15.8953C182.334 14.0447 182.698 12.4402 183.425 11.0816C184.153 9.72295 185.179 8.66274 186.505 7.90172C187.831 7.14027 189.362 6.75955 191.098 6.75955C192.788 6.75955 194.267 7.12866 195.534 7.86651C196.801 8.60441 197.793 9.60588 198.508 10.8706C199.224 12.1357 199.582 13.5763 199.582 15.1926C199.582 15.5205 199.576 15.8018 199.564 16.0361C199.552 16.2703 199.523 16.5513 199.476 16.8791H186.065C186.136 17.8631 186.382 18.7355 186.805 19.497C187.226 20.2584 187.802 20.8556 188.529 21.2889C189.257 21.7222 190.089 21.939 191.028 21.939C192.037 21.939 192.9 21.7106 193.616 21.2537C194.331 20.7973 194.865 20.1471 195.217 19.3038H199.089C198.783 20.3578 198.274 21.3182 197.558 22.1848C196.842 23.0518 195.945 23.7429 194.865 24.2581C193.785 24.7734 192.518 25.0312 191.064 25.0312ZM186.1 14.2438H195.78C195.734 12.8851 195.252 11.8137 194.337 11.0287C193.422 10.244 192.307 9.85173 190.993 9.85173C189.82 9.85173 188.752 10.2146 187.79 10.9409C186.828 11.6672 186.265 12.768 186.1 14.2438Z" fill="url(#paint1_linear_172950_1606)"/>
<path fill-rule="evenodd" clip-rule="evenodd" d="M4.92343 21.8894H0.654175V2.63977C0.654175 1.41178 1.65744 0.410278 2.88758 0.410278H4.92343V21.8894ZM4.92343 24.6182H0.654175V26.6444C0.654175 27.8724 1.65744 28.8739 2.88758 28.8739H4.92343V24.6182ZM11.6405 28.8739H7.37124V7.39485H11.6405V28.8739ZM11.6405 0.410278H7.37124V4.66601H11.6405V0.410278ZM14.1543 7.41709C18.3662 7.41709 21.7819 10.6526 21.7819 14.6421C21.7819 18.6316 18.3662 21.8671 14.1543 21.8671L14.0883 21.8664V18.0967L14.1543 18.0977C16.1685 18.0977 17.8023 16.55 17.8023 14.6421C17.8023 12.7342 16.1685 11.1865 14.1543 11.1865L14.0883 11.1875V7.41774L14.1543 7.41709ZM14.1543 0.410278C22.4513 0.410278 29.1789 6.78292 29.1789 14.6421C29.1789 22.5013 22.4513 28.8739 14.1543 28.8739L14.0883 28.873V24.6208L14.1543 24.6213C19.9723 24.6213 24.6895 20.1528 24.6895 14.6421C24.6895 9.13139 19.9723 4.66284 14.1543 4.66284L14.0883 4.66346V0.411225L14.1543 0.410278Z" fill="url(#paint2_linear_172950_1606)"/>
</g>
</g>
<defs>
<linearGradient id="paint0_linear_172950_1606" x1="81.5613" y1="12.2093" x2="85.7941" y2="6.72664" gradientUnits="userSpaceOnUse">
<stop stop-color="#A96AFA"/>
<stop offset="0.45098" stop-color="#5732FA"/>
<stop offset="1" stop-color="#08DEBA"/>
</linearGradient>
<linearGradient id="paint1_linear_172950_1606" x1="130.091" y1="40.6598" x2="164.296" y2="-8.31892" gradientUnits="userSpaceOnUse">
<stop stop-color="#A96AFA"/>
<stop offset="0.470588" stop-color="#5732FA"/>
<stop offset="1" stop-color="#08DEBA"/>
</linearGradient>
<linearGradient id="paint2_linear_172950_1606" x1="3.35179" y1="28.4083" x2="27.3961" y2="4.46264" gradientUnits="userSpaceOnUse">
<stop stop-color="#A96AFA"/>
<stop offset="0.45098" stop-color="#5732FA"/>
<stop offset="1" stop-color="#08DEBA"/>
</linearGradient>
<clipPath id="clip0_172950_1606">
<rect width="200" height="33" fill="white"/>
</clipPath>
</defs>
</svg>
