<svg width="24" height="24" viewBox="0 0 24 24" fill="none" xmlns="http://www.w3.org/2000/svg">
<path fill-rule="evenodd" clip-rule="evenodd" d="M3.9386 17.7462H0.523193V2.57981C0.523193 1.61231 1.3258 0.823242 2.30991 0.823242H3.9386V17.7462ZM3.9386 19.8962H0.523193V21.4926C0.523193 22.4601 1.3258 23.2491 2.30991 23.2491H3.9386V19.8962ZM9.31222 23.2491H5.89684V6.32624H9.31222V23.2491ZM9.31222 0.823242H5.89684V4.17624H9.31222V0.823242ZM11.3233 6.34376C14.6928 6.34376 17.4254 8.89296 17.4254 12.0362C17.4254 15.1794 14.6928 17.7286 11.3233 17.7286L11.2705 17.7281V14.758L11.3233 14.7588C12.9346 14.7588 14.2417 13.5394 14.2417 12.0362C14.2417 10.533 12.9346 9.31364 11.3233 9.31364L11.2705 9.31442V6.34427L11.3233 6.34376ZM11.3233 0.823242C17.9609 0.823242 23.343 5.84411 23.343 12.0362C23.343 18.2283 17.9609 23.2491 11.3233 23.2491L11.2705 23.2484V19.8982L11.3233 19.8986C15.9777 19.8986 19.7514 16.378 19.7514 12.0362C19.7514 7.69442 15.9777 4.17374 11.3233 4.17374L11.2705 4.17423V0.823988L11.3233 0.823242Z" fill="url(#paint0_linear_172977_1425)"/>
<defs>
<linearGradient id="paint0_linear_172977_1425" x1="2.68129" y1="22.8823" x2="21.6243" y2="3.7268" gradientUnits="userSpaceOnUse">
<stop stop-color="#A96AFA"/>
<stop offset="0.45098" stop-color="#5732FA"/>
<stop offset="1" stop-color="#08DEBA"/>
</linearGradient>
</defs>
</svg>
