<svg width="17" height="17" viewBox="0 0 17 17" fill="none" xmlns="http://www.w3.org/2000/svg">
<path d="M12.5762 0.5C12.6905 0.5 12.7809 0.526514 12.8604 0.581055L12.9375 0.645508C13.0355 0.743613 13.082 0.853451 13.082 1.00586V1.50586H15.1914C15.2571 1.50586 15.3093 1.52012 15.3584 1.55469L15.4072 1.5957C15.4557 1.64423 15.4812 1.69189 15.4912 1.74902L15.4961 1.80957V3.91992H15.9961C16.1106 3.91992 16.2017 3.94623 16.2812 4.00098L16.3574 4.06543C16.4555 4.16354 16.5019 4.27337 16.502 4.42578C16.502 4.5402 16.4755 4.63051 16.4209 4.70996L16.3574 4.78711C16.2592 4.88527 16.1487 4.93164 15.9961 4.93164H15.4961V7.04102C15.4961 7.10673 15.4825 7.15901 15.4482 7.20801L15.4062 7.25684C15.3422 7.32096 15.28 7.3458 15.1924 7.3457H14.0967C14.0411 7.14452 13.9506 6.95638 13.8232 6.78516L13.7178 6.65723C13.4167 6.32248 13.0271 6.13867 12.5762 6.13867C12.1817 6.13872 11.834 6.27878 11.5518 6.53809L11.4355 6.65723C11.2523 6.86127 11.1266 7.093 11.0566 7.3457H9.96094C9.89525 7.3457 9.84367 7.332 9.79492 7.29785L9.74609 7.25684C9.68177 7.19252 9.6564 7.12934 9.65625 7.04102V5.94336C9.84836 5.88943 10.0294 5.80482 10.1963 5.68652L10.3242 5.58789C10.6775 5.28879 10.8633 4.88873 10.8633 4.42578C10.8632 4.02074 10.7206 3.66479 10.4482 3.38184L10.3242 3.26465C10.1231 3.09457 9.89853 2.97631 9.65625 2.9082V1.81055C9.65627 1.74487 9.67063 1.6934 9.70508 1.64453L9.74609 1.59668C9.79493 1.54792 9.84257 1.52095 9.90039 1.51074L9.96191 1.50586H12.0703V1.00586C12.0703 0.891496 12.0968 0.801097 12.1514 0.72168L12.2158 0.645508C12.314 0.547341 12.4236 0.50004 12.5762 0.5Z" fill="#130D38" stroke="#130D38"/>
<path d="M14.7769 16.997C12.9607 16.997 11.1662 16.6012 9.39359 15.8096C7.62094 15.018 6.00812 13.8954 4.55513 12.4419C3.10214 10.9883 1.97985 9.37547 1.18826 7.60341C0.396667 5.83134 0.000581197 4.03689 0 2.22007C0 1.95853 0.0871794 1.74058 0.261538 1.56623C0.435897 1.39187 0.653846 1.30469 0.915385 1.30469H4.44615C4.64957 1.30469 4.8312 1.37385 4.99103 1.51217C5.15086 1.6505 5.2453 1.81382 5.27436 2.00212L5.84103 5.05341C5.87009 5.28588 5.86282 5.48204 5.81923 5.64187C5.77564 5.8017 5.69573 5.93973 5.57949 6.05597L3.46538 8.19187C3.75598 8.72947 4.10092 9.24877 4.50021 9.74976C4.89949 10.2508 5.33916 10.734 5.81923 11.1996C6.26966 11.65 6.74188 12.0679 7.2359 12.4532C7.72991 12.8385 8.25299 13.1907 8.80513 13.5098L10.8538 11.4611C10.9846 11.3303 11.1555 11.2324 11.3665 11.1673C11.5774 11.1022 11.7843 11.0839 11.9872 11.1124L14.9949 11.7226C15.1983 11.7808 15.3654 11.8862 15.4962 12.0391C15.6269 12.192 15.6923 12.3625 15.6923 12.5508V16.0816C15.6923 16.3432 15.6051 16.5611 15.4308 16.7355C15.2564 16.9098 15.0385 16.997 14.7769 16.997Z" fill="#130D38"/>
</svg>
