<svg width="17" height="12" viewBox="0 0 17 12" fill="none" xmlns="http://www.w3.org/2000/svg">
<path d="M0.00146484 9.9C0.00146484 9.475 0.114283 9.0845 0.339919 8.7285C0.565556 8.37251 0.864859 8.10051 1.23783 7.91251C2.03631 7.52501 2.84768 7.23451 3.67192 7.04101C4.49616 6.84751 5.33328 6.75051 6.18328 6.75001C7.03328 6.74951 7.8704 6.84651 8.69465 7.04101C9.51889 7.23551 10.3303 7.52601 11.1287 7.91251C11.5022 8.10001 11.8018 8.37201 12.0274 8.7285C12.2531 9.085 12.3656 9.4755 12.3651 9.9V10.5C12.3651 10.9125 12.2139 11.2658 11.9115 11.5598C11.6091 11.8537 11.2452 12.0005 10.8196 12H1.54692C1.12192 12 0.758222 11.8532 0.455829 11.5598C0.153435 11.2663 0.00198 10.913 0.00146484 10.5V9.9ZM15.456 12H13.4856C13.6272 11.775 13.7336 11.5345 13.8047 11.2785C13.8758 11.0225 13.9111 10.763 13.9106 10.5V9.75C13.9106 9.2 13.7529 8.67175 13.4376 8.16526C13.1224 7.65876 12.6747 7.22451 12.0946 6.86251C12.7515 6.93751 13.3696 7.06576 13.9492 7.24726C14.5287 7.42876 15.0696 7.65051 15.5719 7.91251C16.0356 8.16251 16.3897 8.44051 16.6344 8.7465C16.8791 9.0525 17.0015 9.387 17.0015 9.75V10.5C17.0015 10.9125 16.8503 11.2658 16.5479 11.5598C16.2455 11.8537 15.8815 12.0005 15.456 12ZM6.18328 6.00001C5.33328 6.00001 4.60563 5.70626 4.00033 5.11876C3.39503 4.53126 3.09237 3.82501 3.09237 3.00001C3.09237 2.17502 3.39503 1.46877 4.00033 0.881268C4.60563 0.293769 5.33328 1.92305e-05 6.18328 1.92305e-05C7.03328 1.92305e-05 7.76093 0.293769 8.36624 0.881268C8.97154 1.46877 9.27419 2.17502 9.27419 3.00001C9.27419 3.82501 8.97154 4.53126 8.36624 5.11876C7.76093 5.70626 7.03328 6.00001 6.18328 6.00001ZM13.9106 3.00001C13.9106 3.82501 13.6079 4.53126 13.0026 5.11876C12.3973 5.70626 11.6696 6.00001 10.8196 6.00001C10.678 6.00001 10.4977 5.98451 10.2787 5.95351C10.0598 5.92251 9.8795 5.88801 9.73783 5.85001C10.0856 5.45001 10.3529 5.00626 10.5399 4.51876C10.7269 4.03126 10.8202 3.52501 10.8196 3.00001C10.8191 2.47502 10.7259 1.96877 10.5399 1.48127C10.3539 0.993768 10.0866 0.550018 9.73783 0.150019C9.91813 0.0875189 10.0984 0.0467693 10.2787 0.0277693C10.459 0.00876935 10.6393 -0.000480769 10.8196 1.92305e-05C11.6696 1.92305e-05 12.3973 0.293769 13.0026 0.881268C13.6079 1.46877 13.9106 2.17502 13.9106 3.00001ZM1.54692 10.5H10.8196V9.9C10.8196 9.7625 10.7844 9.6375 10.7138 9.525C10.6432 9.4125 10.5497 9.325 10.4333 9.2625C9.73783 8.925 9.03593 8.67201 8.3276 8.50351C7.61927 8.33501 6.90449 8.25051 6.18328 8.25001C5.46207 8.24951 4.7473 8.33401 4.03896 8.50351C3.33063 8.67301 2.62874 8.926 1.93328 9.2625C1.81737 9.325 1.72387 9.4125 1.65278 9.525C1.58169 9.6375 1.5464 9.7625 1.54692 9.9V10.5ZM6.18328 4.50001C6.60828 4.50001 6.97224 4.35326 7.27515 4.05976C7.57806 3.76626 7.72925 3.41301 7.72874 3.00001C7.72822 2.58701 7.57702 2.23402 7.27515 1.94102C6.97327 1.64802 6.60931 1.50102 6.18328 1.50002C5.75725 1.49902 5.39356 1.64602 5.09219 1.94102C4.79083 2.23602 4.63937 2.58902 4.63783 3.00001C4.63628 3.41101 4.78774 3.76426 5.09219 4.05976C5.39665 4.35526 5.76034 4.50201 6.18328 4.50001Z" fill="#130D38"/>
</svg>
