<svg width="25" height="24" viewBox="0 0 25 24" fill="none" xmlns="http://www.w3.org/2000/svg">
<g clip-path="url(#clip0_171661_5221)">
<path d="M4.5 6C4.5 7.657 8.082 9 12.5 9C16.918 9 20.5 7.657 20.5 6C20.5 4.343 16.918 3 12.5 3C8.082 3 4.5 4.343 4.5 6Z" stroke="currentColor" stroke-width="1.3" stroke-linecap="round" stroke-linejoin="round"/>
<path d="M4.5 6V12C4.5 13.657 8.082 15 12.5 15C13.356 15 14.18 14.95 14.954 14.856M20.5 12V6" stroke="currentColor" stroke-width="1.3" stroke-linecap="round" stroke-linejoin="round"/>
<path d="M4.5 12V18C4.5 19.657 8.082 21 12.5 21C12.671 21 12.841 20.998 13.01 20.994" stroke="currentColor" stroke-width="1.3" stroke-linecap="round" stroke-linejoin="round"/>
<path d="M19.5 16L19.5 22" stroke="currentColor" stroke-width="1.3" stroke-linecap="round" stroke-linejoin="round"/>
<path d="M16.5 19L19.5 22L22.5 19" stroke="currentColor" stroke-width="1.3" stroke-linecap="round" stroke-linejoin="round"/>
</g>
<defs>
<clipPath id="clip0_171661_5221">
<rect width="24" height="24" fill="white" transform="translate(0.5)"/>
</clipPath>
</defs>
</svg>
