<svg width="24" height="24" viewBox="0 0 24 24" fill="none" xmlns="http://www.w3.org/2000/svg">
<g clip-path="url(#clip0_171661_5209)">
<path d="M11.5 6.77783C11.5 7.30827 11.7107 7.81697 12.0858 8.19205C12.4609 8.56712 12.9696 8.77783 13.5 8.77783C14.0304 8.77783 14.5391 8.56712 14.9142 8.19205C15.2893 7.81697 15.5 7.30827 15.5 6.77783C15.5 6.2474 15.2893 5.73869 14.9142 5.36362C14.5391 4.98855 14.0304 4.77783 13.5 4.77783C12.9696 4.77783 12.4609 4.98855 12.0858 5.36362C11.7107 5.73869 11.5 6.2474 11.5 6.77783Z" stroke="currentColor" stroke-width="1.3" stroke-linecap="round" stroke-linejoin="round"/>
<path d="M3.5 6.77783H11.5" stroke="currentColor" stroke-width="1.3" stroke-linecap="round" stroke-linejoin="round"/>
<path d="M15.5 6.77783H19.5" stroke="currentColor" stroke-width="1.3" stroke-linecap="round" stroke-linejoin="round"/>
<path d="M5.5 12.7778C5.5 13.3083 5.71071 13.817 6.08579 14.192C6.46086 14.5671 6.96957 14.7778 7.5 14.7778C8.03043 14.7778 8.53914 14.5671 8.91421 14.192C9.28929 13.817 9.5 13.3083 9.5 12.7778C9.5 12.2474 9.28929 11.7387 8.91421 11.3636C8.53914 10.9885 8.03043 10.7778 7.5 10.7778C6.96957 10.7778 6.46086 10.9885 6.08579 11.3636C5.71071 11.7387 5.5 12.2474 5.5 12.7778Z" stroke="currentColor" stroke-width="1.3" stroke-linecap="round" stroke-linejoin="round"/>
<path d="M3.5 12.7778H5.5" stroke="currentColor" stroke-width="1.3" stroke-linecap="round" stroke-linejoin="round"/>
<path d="M9.5 12.7778H19.5" stroke="currentColor" stroke-width="1.3" stroke-linecap="round" stroke-linejoin="round"/>
<path d="M14.5 18.7778C14.5 19.3083 14.7107 19.817 15.0858 20.192C15.4609 20.5671 15.9696 20.7778 16.5 20.7778C17.0304 20.7778 17.5391 20.5671 17.9142 20.192C18.2893 19.817 18.5 19.3083 18.5 18.7778C18.5 18.2474 18.2893 17.7387 17.9142 17.3636C17.5391 16.9885 17.0304 16.7778 16.5 16.7778C15.9696 16.7778 15.4609 16.9885 15.0858 17.3636C14.7107 17.7387 14.5 18.2474 14.5 18.7778Z" stroke="currentColor" stroke-width="1.3" stroke-linecap="round" stroke-linejoin="round"/>
<path d="M3.5 18.7778H14.5" stroke="currentColor" stroke-width="1.3" stroke-linecap="round" stroke-linejoin="round"/>
<path d="M18.5 18.7778H19.5" stroke="currentColor" stroke-width="1.3" stroke-linecap="round" stroke-linejoin="round"/>
</g>
<defs>
<clipPath id="clip0_171661_5209">
<rect width="24" height="24" fill="currentColor"/>
</clipPath>
</defs>
</svg>
