<svg width="20" height="20" viewBox="0 0 20 20" fill="none" xmlns="http://www.w3.org/2000/svg">
<path d="M11.1712 10.9492H8.9863V13.8218H7.34766L10.0712 18.7661L12.7954 13.8218H11.1724V10.9492H11.1712Z" fill="#C31C00"/>
<path d="M17.9824 11.6013C17.9165 11.7674 17.8085 11.9135 17.6691 12.0253C17.5297 12.1371 17.3636 12.2107 17.1871 12.2389C16.2073 12.3926 15.2023 12.2701 14.286 12.1075L13.7475 12.0073L13.2358 11.9092C12.7479 11.8179 12.3899 11.3975 12.376 10.9046L12.378 10.7975L12.6269 9.11167C12.6398 9.03132 12.6231 8.94903 12.58 8.88002C12.5369 8.81102 12.4702 8.75997 12.3924 8.73632C11.7746 8.55683 10.7918 8.35353 9.89931 8.35353C9.0068 8.35353 7.97001 8.55931 7.30013 8.74128C7.22769 8.76139 7.16406 8.80517 7.1194 8.86565C7.07474 8.92613 7.05161 8.99982 7.0537 9.07498L7.06114 9.14092L7.38988 10.7291C7.42789 10.9986 7.36013 11.2724 7.20079 11.4932C7.04145 11.7139 6.80288 11.8644 6.53506 11.9131L5.94204 12.0202C4.85269 12.2141 3.74896 12.3728 2.64324 12.2369C2.46002 12.214 2.28632 12.1422 2.1403 12.0292C1.99429 11.9161 1.88132 11.766 1.81321 11.5943C1.26333 10.2194 1.49142 8.33122 2.61845 7.28451L2.77513 7.14369L2.90058 7.03808L3.04338 6.92503L3.20155 6.80454L3.37807 6.6786L3.57145 6.54869L3.78168 6.41581L4.00927 6.28044L4.25521 6.14458L4.51899 6.00972C5.7442 5.4043 7.51582 4.85244 9.89931 4.85194C12.2828 4.85144 14.0544 5.4043 15.2801 6.00922L15.5439 6.14409L15.7893 6.28044L16.0174 6.41531L16.2277 6.5482L16.4205 6.6786L16.5966 6.80504L16.7557 6.92453L16.898 7.03808L17.0235 7.14369L17.1802 7.28451C18.3092 8.33321 18.5338 10.2248 17.9824 11.6013Z" fill="#130D38"/>
</svg>
