<svg width="36" height="36" viewBox="0 0 36 36" fill="none" xmlns="http://www.w3.org/2000/svg">
<path fill-rule="evenodd" clip-rule="evenodd" d="M9.00102 0.503748C11.062 2.00538 12.6668 4.05502 14.0372 6.01634L14.8342 7.17726L15.5861 8.28591C15.9623 8.83524 16.1231 9.50371 16.0379 10.1639C15.9528 10.8242 15.6277 11.43 15.1245 11.866L11.6066 14.4781C11.4366 14.6008 11.317 14.781 11.2699 14.9852C11.2228 15.1895 11.2514 15.4039 11.3505 15.5886C12.1475 17.0361 13.5648 19.1921 15.1876 20.8145C16.8105 22.4369 19.0698 23.9476 20.6188 24.8345C20.813 24.9435 21.0416 24.974 21.2575 24.9196C21.4735 24.8653 21.6605 24.7303 21.78 24.5425L24.07 21.0579C24.491 20.4988 25.1121 20.1242 25.8032 20.0127C26.4942 19.9011 27.2017 20.0612 27.7773 20.4594L28.9728 21.2868C31.2069 22.8371 33.6069 24.5983 35.4425 26.9472C35.7336 27.3218 35.9188 27.7677 35.9788 28.2382C36.0387 28.7088 35.9712 29.1868 35.7833 29.6224C34.2741 33.143 30.455 36.1409 26.4826 35.9949L25.9417 35.9642L25.5215 35.9282L25.0563 35.8741L24.5496 35.8056L23.9997 35.7155L23.7112 35.6614L23.1053 35.5316L22.788 35.4595L22.128 35.29L21.4338 35.0917L20.7089 34.8574C17.3803 33.7289 13.1555 31.5116 8.8207 27.178C4.48591 22.8443 2.26983 18.6225 1.14106 15.2947L0.906647 14.57L0.7083 13.876L0.538803 13.2162L0.398157 12.5925C0.357582 12.3972 0.319712 12.2012 0.284558 12.0048L0.194401 11.455L0.122274 10.9485L0.0699827 10.4834L0.0339194 10.0634L0.005069 9.52255C-0.140987 5.56387 2.89012 1.71875 6.39546 0.217122C6.81735 0.0349918 7.27937 -0.0343507 7.73616 0.0158989C8.19295 0.0661485 8.62883 0.234264 9.00102 0.503748ZM31.4251 2.03242C31.7496 1.70911 32.185 1.52141 32.6429 1.50743C33.1008 1.49345 33.5469 1.65424 33.8905 1.95715C34.2341 2.26007 34.4495 2.68238 34.493 3.13832C34.5364 3.59425 34.4046 4.04963 34.1244 4.41195L33.9747 4.58141L28.0369 10.5176H30.8968C31.3563 10.5181 31.7984 10.6941 32.1326 11.0095C32.4668 11.3249 32.6679 11.756 32.6948 12.2147C32.7217 12.6733 32.5725 13.125 32.2775 13.4773C31.9825 13.8297 31.5641 14.0561 31.1077 14.1104L30.8968 14.123H23.6841C23.2425 14.1229 22.8162 13.9608 22.4862 13.6674C22.1561 13.374 21.9453 12.9697 21.8936 12.5312L21.881 12.3203V5.10959C21.8815 4.65013 22.0575 4.20819 22.373 3.87409C22.6885 3.53999 23.1196 3.33894 23.5784 3.31201C24.0372 3.28508 24.489 3.43432 24.8414 3.72922C25.1939 4.02412 25.4204 4.44243 25.4747 4.89868L25.4873 5.10959V7.96864L31.4251 2.03242Z" fill="white"/>
</svg>
