<svg width="20" height="20" viewBox="0 0 20 20" fill="none" xmlns="http://www.w3.org/2000/svg">
<path d="M3.992 0.127256C1.84101 0.732224 0.251774 2.61434 0.0261119 4.83255C-0.0795171 5.86483 0.12694 6.86351 0.799124 8.57758C1.77379 11.0695 3.20939 13.2349 5.14912 15.1314C7.2521 17.1959 9.59514 18.6219 12.4135 19.5534C13.4698 19.8991 13.8923 19.9807 14.6701 19.9807C15.8176 19.9807 16.7059 19.7118 17.671 19.0733C19.2698 18.0218 20.3261 15.842 19.9084 14.4688C19.7883 14.0751 19.4955 13.6094 19.217 13.3837C18.9001 13.1292 16.0289 11.4344 15.6784 11.2999C15.2655 11.1415 14.5069 11.1031 14.0364 11.2135C13.2105 11.4056 12.6776 11.8281 12.0198 12.8219C11.7797 13.182 11.5685 13.4941 11.5445 13.5181C11.5013 13.5662 10.8147 13.1868 10.2049 12.7787C9.10541 12.0393 8.03471 10.9734 7.2665 9.84993C6.85359 9.24496 6.44067 8.50556 6.48869 8.46235C6.51269 8.43834 6.82478 8.22708 7.18968 7.98222C7.57859 7.71814 7.95309 7.42526 8.11153 7.25241C8.42842 6.91152 8.7309 6.32096 8.81733 5.87444C8.90375 5.41831 8.85094 4.71252 8.7021 4.31881C8.51484 3.83388 6.81998 0.991495 6.5367 0.689011C6.36865 0.511362 6.1766 0.372124 5.88852 0.232885C5.49481 0.0360317 5.47081 0.0312309 4.95227 0.0216274C4.51054 0.0120258 4.3473 0.0312309 3.992 0.127256ZM5.26435 1.70209C5.38918 1.78371 5.64366 2.17742 6.29663 3.27212C6.77677 4.07874 7.19448 4.81334 7.22329 4.90937C7.36253 5.3655 7.22329 5.91765 6.8872 6.22973C6.79597 6.31136 6.29663 6.66665 5.77809 7.01235C5.0915 7.46847 4.80823 7.68453 4.75061 7.79496C4.61137 8.05904 4.64498 8.33751 4.87064 8.84165C5.8165 10.9734 7.46816 12.894 9.50872 14.2335C10.1041 14.6224 11.4196 15.2946 11.6693 15.3378C11.8758 15.3762 12.1879 15.285 12.3367 15.1458C12.4087 15.0834 12.7256 14.6368 13.0473 14.1567C13.3642 13.6766 13.6955 13.2109 13.7771 13.1196C14.1132 12.7547 14.7422 12.6251 15.1791 12.8219C15.2895 12.87 16.0145 13.2925 16.7971 13.7582C18.3623 14.6945 18.4152 14.7425 18.4152 15.1602C18.4152 15.4675 18.1943 16.0964 17.9302 16.5334C17.6566 17.0039 17.0084 17.6377 16.5426 17.9017C15.9761 18.2186 15.5056 18.3579 14.8814 18.3867C14.5789 18.3963 14.214 18.3867 14.0364 18.3531C13.3162 18.2282 11.7317 17.6473 10.661 17.1143C8.90855 16.2453 7.52097 15.2418 6.12379 13.8398C4.17925 11.8905 2.81088 9.67228 1.95624 7.06516C1.67296 6.20573 1.60575 5.87444 1.60575 5.31748C1.61055 3.70904 2.65723 2.27345 4.21766 1.7309C4.7122 1.55805 5.03869 1.54845 5.26435 1.70209Z" fill="currentColor"/>
<path d="M18.1511 0.99149C18.1271 1.00109 18.0407 1.0203 17.9591 1.0395C17.8534 1.06351 17.3013 1.58205 15.8369 3.04646L13.8539 5.0246V4.13155C13.8539 3.28652 13.8491 3.22891 13.7435 3.08006C13.4266 2.60473 12.7448 2.60473 12.4279 3.08006C12.3175 3.23851 12.3175 3.24331 12.3175 5.21185C12.3175 7.09397 12.3223 7.18999 12.4135 7.34364C12.4663 7.43006 12.5768 7.54049 12.6632 7.5933C12.8168 7.68453 12.9129 7.68933 14.795 7.68933C16.7635 7.68933 16.7683 7.68933 16.9268 7.5789C17.1524 7.43006 17.2821 7.18999 17.2821 6.92112C17.2821 6.65225 17.1524 6.41218 16.9268 6.26334C16.7779 6.15771 16.7203 6.15291 15.8753 6.15291H14.9822L16.9604 4.16996C18.4248 2.70556 18.9433 2.15341 18.9673 2.04778C18.9865 1.96616 19.0105 1.87493 19.0201 1.83652C19.0538 1.73569 18.9529 1.42361 18.8425 1.28437C18.6985 1.09712 18.324 0.943477 18.1511 0.99149Z" fill="currentColor"/>
</svg>
