<svg width="14" height="14" viewBox="0 0 14 14" fill="none" xmlns="http://www.w3.org/2000/svg">
<path d="M2.48709 0.0844575C2.65116 0.0136113 2.83083 -0.013362 3.00846 0.00618446C3.1861 0.0257309 3.35561 0.0911255 3.50035 0.195951C4.30184 0.780066 4.92592 1.57735 5.45885 2.34028L5.76879 2.79186L6.0612 3.22311C6.34168 3.63262 6.29751 4.18308 5.95882 4.5414L5.88168 4.61573L4.51361 5.63179C4.44769 5.6795 4.40128 5.74946 4.38297 5.82875C4.36466 5.90803 4.3757 5.99127 4.41403 6.06304C4.72397 6.62682 5.27513 7.46548 5.90623 8.09657C6.53732 8.72767 7.41595 9.31529 8.0183 9.66029C8.08374 9.6973 8.15969 9.71133 8.23404 9.70014C8.30838 9.68896 8.37685 9.65321 8.42851 9.59858L8.46988 9.54669L9.36043 8.19124C9.52415 7.97375 9.76568 7.82806 10.0344 7.78466C10.3032 7.74126 10.5783 7.80354 10.8021 7.95843L11.2972 8.30203C12.2046 8.93523 13.0972 9.60349 13.783 10.4814C13.8963 10.6272 13.9684 10.8008 13.9918 10.9839C14.0151 11.1671 13.9887 11.3532 13.9155 11.5227C13.3321 12.8838 11.8357 14.0576 10.2987 14.0008L10.0883 13.9896L9.92491 13.9756L9.74399 13.9545L9.54695 13.9279L9.33308 13.8921L9.10448 13.8473L8.86186 13.7926L8.60521 13.7274L8.33525 13.6495L8.05336 13.5584C6.75891 13.1201 5.11595 12.2576 3.43023 10.5726C1.7445 8.88755 0.882701 7.24389 0.443738 5.94944L0.35258 5.66755L0.275446 5.39759L0.209532 5.14094L0.154837 4.89832L0.11066 4.66972L0.0755991 4.45585L0.0475504 4.25881L0.0272151 4.07789L0.0131907 3.91451L0.00197125 3.70414C-0.0548274 2.16427 1.12392 0.667871 2.48709 0.0844575Z" fill="#130D38"/>
<path d="M13.5265 3.66612C13.6482 3.66618 13.7651 3.71564 13.8532 3.80424C13.9412 3.89284 13.9936 4.01379 13.9995 4.14203C14.0053 4.27027 13.9642 4.39597 13.8846 4.49308C13.805 4.59019 13.6931 4.65126 13.572 4.66365L13.5265 4.66599H9.61705L10.0718 5.14592C10.158 5.2365 10.2078 5.35858 10.211 5.48687C10.2142 5.61516 10.1706 5.73984 10.0891 5.83509C10.0076 5.93035 9.89449 5.98888 9.77323 5.99857C9.65197 6.00826 9.53183 5.96837 9.43767 5.88716L9.40166 5.85283L8.19241 4.57633C7.88481 4.25171 8.08504 3.70411 8.50538 3.66812L8.5496 3.66612H13.5265ZM11.9285 0.146585C12.0114 0.0590621 12.122 0.0070728 12.2391 0.000670334C12.3562 -0.00573213 12.4713 0.0339071 12.5623 0.111923L12.5983 0.146252L13.8076 1.42275C14.1152 1.74737 13.915 2.29497 13.4946 2.33096L13.4504 2.33296H8.47349C8.35183 2.3329 8.23486 2.28344 8.14681 2.19484C8.05877 2.10624 8.00639 1.98529 8.00055 1.85705C7.9947 1.72881 8.03583 1.60311 8.11541 1.506C8.19499 1.40889 8.30692 1.34782 8.42801 1.33543L8.47349 1.33309H12.3829L11.9282 0.853158C11.8395 0.75942 11.7896 0.632354 11.7896 0.499871C11.7896 0.367389 11.8398 0.240323 11.9285 0.146585Z" fill="#C31C00"/>
</svg>
