<svg width="23" height="23" viewBox="0 0 23 23" fill="none" xmlns="http://www.w3.org/2000/svg">
<rect width="23" height="23" rx="4" fill="#E7E7FF"/>
<path d="M7.48709 4.08446C7.65116 4.01361 7.83083 3.98664 8.00846 4.00618C8.1861 4.02573 8.35561 4.09113 8.50035 4.19595C9.30184 4.78007 9.92592 5.57735 10.4588 6.34028L10.7688 6.79186L11.0612 7.22311C11.3417 7.63262 11.2975 8.18308 10.9588 8.5414L10.8817 8.61573L9.51361 9.63179C9.44769 9.6795 9.40128 9.74946 9.38297 9.82875C9.36466 9.90803 9.3757 9.99127 9.41403 10.063C9.72397 10.6268 10.2751 11.4655 10.9062 12.0966C11.5373 12.7277 12.4159 13.3153 13.0183 13.6603C13.0837 13.6973 13.1597 13.7113 13.234 13.7001C13.3084 13.689 13.3768 13.6532 13.4285 13.5986L13.4699 13.5467L14.3604 12.1912C14.5242 11.9738 14.7657 11.8281 15.0344 11.7847C15.3032 11.7413 15.5783 11.8035 15.8021 11.9584L16.2972 12.302C17.2046 12.9352 18.0972 13.6035 18.783 14.4814C18.8963 14.6272 18.9684 14.8008 18.9918 14.9839C19.0151 15.1671 18.9887 15.3532 18.9155 15.5227C18.3321 16.8838 16.8357 18.0576 15.2987 18.0008L15.0883 17.9896L14.9249 17.9756L14.744 17.9545L14.5469 17.9279L14.3331 17.8921L14.1045 17.8473L13.8619 17.7926L13.6052 17.7274L13.3352 17.6495L13.0534 17.5584C11.7589 17.1201 10.116 16.2576 8.43023 14.5726C6.7445 12.8875 5.8827 11.2439 5.44374 9.94944L5.35258 9.66755L5.27545 9.39759L5.20953 9.14094L5.15484 8.89832L5.11066 8.66972L5.0756 8.45585L5.04755 8.25881L5.02722 8.07789L5.01319 7.91451L5.00197 7.70414C4.94517 6.16427 6.12392 4.66787 7.48709 4.08446Z" fill="#130D38"/>
<path d="M18.5265 7.66612C18.6482 7.66618 18.7651 7.71564 18.8532 7.80424C18.9412 7.89284 18.9936 8.01379 18.9995 8.14203C19.0053 8.27027 18.9642 8.39597 18.8846 8.49308C18.805 8.59019 18.6931 8.65126 18.572 8.66365L18.5265 8.66599H14.617L15.0718 9.14592C15.158 9.2365 15.2078 9.35858 15.211 9.48687C15.2142 9.61516 15.1706 9.73984 15.0891 9.83509C15.0076 9.93035 14.8945 9.98888 14.7732 9.99857C14.652 10.0083 14.5318 9.96837 14.4377 9.88716L14.4017 9.85283L13.1924 8.57633C12.8848 8.25171 13.085 7.70411 13.5054 7.66812L13.5496 7.66612H18.5265ZM16.9285 4.14659C17.0114 4.05906 17.122 4.00707 17.2391 4.00067C17.3562 3.99427 17.4713 4.03391 17.5623 4.11192L17.5983 4.14625L18.8076 5.42275C19.1152 5.74737 18.915 6.29497 18.4946 6.33096L18.4504 6.33296H13.4735C13.3518 6.3329 13.2349 6.28344 13.1468 6.19484C13.0588 6.10624 13.0064 5.98529 13.0005 5.85705C12.9947 5.72881 13.0358 5.60311 13.1154 5.506C13.195 5.40889 13.3069 5.34782 13.428 5.33543L13.4735 5.33309H17.3829L16.9282 4.85316C16.8395 4.75942 16.7896 4.63235 16.7896 4.49987C16.7896 4.36739 16.8398 4.24032 16.9285 4.14659Z" fill="#C31C00"/>
</svg>
