<svg width="24" height="24" viewBox="0 0 24 24" fill="none" xmlns="http://www.w3.org/2000/svg">
<path d="M13.6526 0.0928621C13.165 0.388232 13.1744 1.129 13.6714 1.41968C13.7792 1.48063 13.9902 1.51345 14.5153 1.54627C17.2111 1.71505 19.5647 3.06531 21.0556 5.2923C21.8995 6.55817 22.3543 7.93187 22.4528 9.50718C22.4997 10.2526 22.5465 10.398 22.8278 10.5808C23.0341 10.7215 23.442 10.7309 23.6624 10.5949C23.9437 10.4214 23.9999 10.2667 23.9999 9.64783C23.9999 8.95863 23.8968 8.21787 23.6952 7.43022C22.9826 4.66875 21.0931 2.32454 18.538 1.04461C17.2064 0.374166 15.6921 -0.000905991 14.3278 -0.000905991C13.8917 -0.000905991 13.7792 0.0131598 13.6526 0.0928621Z" fill="currentColor"/>
<path d="M4.00396 1.46654C3.90082 1.50404 3.73203 1.58375 3.62889 1.64938C3.52574 1.71502 2.80842 2.40891 2.03483 3.19187C0.534541 4.71091 0.417331 4.85625 0.168846 5.54545C0.0469474 5.87833 0.0235053 6.01429 0.00475173 6.53939C-0.00931349 7.04574 0.00475173 7.24265 0.089143 7.66461C0.665817 10.5386 2.58806 13.8908 5.39642 16.9242C8.8002 20.6093 12.8838 23.216 16.3345 23.9099C17.0377 24.0506 17.8488 24.0271 18.3974 23.849C19.1006 23.6192 19.26 23.4927 20.84 21.9267C22.5794 20.2061 22.57 20.2155 22.57 19.4559C22.57 18.6308 22.6779 18.7714 20.0477 16.1459C17.4222 13.5251 17.5441 13.6189 16.7564 13.6189C16.011 13.6189 15.9547 13.6564 14.5951 15.0113L13.4558 16.1412L13.3339 16.0615C13.0713 15.8881 12.0352 15.0348 11.5054 14.5472C10.7693 13.8721 9.50346 12.5734 8.96898 11.9545C8.57047 11.4857 7.97504 10.7355 7.90002 10.6042C7.87189 10.5574 8.20477 10.1963 8.98773 9.40401C10.3427 8.04437 10.3802 7.98811 10.3802 7.24265C10.3802 6.455 10.474 6.5769 7.85314 3.95139C5.26983 1.36339 5.36829 1.43841 4.61345 1.41965C4.36028 1.41028 4.11648 1.43372 4.00396 1.46654ZM6.75605 5.05317C8.08756 6.37999 8.85646 7.1817 8.85646 7.24265C8.85646 7.29891 8.397 7.79588 7.64216 8.5554C6.97641 9.22585 6.39036 9.8494 6.34816 9.93848C6.22626 10.1776 6.20282 10.6699 6.29659 10.9512C6.49819 11.556 8.56109 13.9564 10.0661 15.3489C11.4445 16.6195 12.715 17.6134 13.0901 17.7212C13.3667 17.7962 13.8402 17.7634 14.0606 17.6509C14.1497 17.6087 14.7732 17.0227 15.4437 16.3569C16.1985 15.6115 16.7002 15.1426 16.7564 15.1426C16.8736 15.1426 20.99 19.2497 21.0322 19.4044C21.0557 19.4981 20.8916 19.681 19.7992 20.7781C19.1053 21.472 18.4489 22.0955 18.3364 22.1612C17.7316 22.5175 17.2487 22.5503 16.2641 22.2971C13.9059 21.697 11.3507 20.2389 8.77207 18.0307C8.05943 17.4212 6.47475 15.8318 5.8887 15.1379C3.83518 12.7046 2.42397 10.2807 1.80041 8.11001C1.48629 7.0223 1.46285 6.45031 1.70664 5.90646C1.82854 5.63453 1.97857 5.46575 3.15536 4.27489C4.01334 3.41222 4.50093 2.95276 4.56188 2.95276C4.62752 2.95276 5.37297 3.6654 6.75605 5.05317Z" fill="currentColor"/>
<path d="M13.8074 4.3124C13.5073 4.40617 13.301 4.7156 13.301 5.06723C13.3057 5.55483 13.5401 5.76112 14.1684 5.81738C15.3452 5.9299 16.1281 6.26278 16.8783 6.97542C17.6331 7.68336 18.0832 8.64918 18.1676 9.73689C18.2051 10.2292 18.2801 10.4214 18.5098 10.5761C18.7396 10.7308 19.1381 10.7355 19.3584 10.5808C19.6632 10.3745 19.7101 10.262 19.7054 9.76033C19.6679 7.18171 17.7081 4.87032 15.1529 4.38742C14.67 4.29834 13.9762 4.25614 13.8074 4.3124Z" fill="currentColor"/>
<path d="M12.8415 7.92719C12.5884 8.07721 12.4946 8.23193 12.4759 8.55543C12.4618 8.78985 12.4759 8.86487 12.5696 8.99614C12.7478 9.25869 12.8884 9.33371 13.2869 9.38059C14.1121 9.46967 14.6091 9.95258 14.7216 10.7637C14.7966 11.2935 14.8951 11.4576 15.2514 11.6029C15.5702 11.7389 15.9828 11.5935 16.1703 11.2888C16.2875 11.0965 16.2969 10.5714 16.1938 10.1307C16.0015 9.32902 15.3733 8.54137 14.6231 8.16629C13.9621 7.83811 13.1744 7.73027 12.8415 7.92719Z" fill="currentColor"/>
</svg>
