<svg width="22" height="22" viewBox="0 0 22 22" fill="none" xmlns="http://www.w3.org/2000/svg">
<path d="M6.625 15.3574C9.97891 18.701 13.0959 19.1521 14.7207 19.1104L14.7578 19.4951C13.049 19.5456 9.80699 19.0756 6.34668 15.6211L6.625 15.3574ZM16.2236 19.083C16.0764 19.1895 15.9177 19.2783 15.748 19.3447L15.709 18.9434C15.7881 18.906 15.8649 18.8624 15.9395 18.8125L16.2236 19.083ZM17.5684 17.7344L16.9453 18.3887L16.667 18.124L17.2891 17.4688L17.5684 17.7344ZM17.7764 14.1904C18.5352 14.8992 18.7225 16.0781 18.2129 16.9678L17.9219 16.6904C18.27 15.995 18.1323 15.1087 17.5771 14.5371L17.7764 14.1904ZM1.93066 6.84082C2.11863 8.44718 2.91569 11.3118 5.93555 14.6328L5.65723 14.8975C2.56023 11.4948 1.7382 8.54139 1.5459 6.8623L1.93066 6.84082ZM9.625 12.1982C10.7842 13.3382 11.5692 13.6923 12.0508 13.7715H12.0518C12.0741 13.7751 12.0961 13.7748 12.1172 13.7773L12.5107 14.1514C12.3685 14.1764 12.1959 14.1856 11.9902 14.1523C11.3953 14.0553 10.5374 13.638 9.3457 12.4639L9.625 12.1982ZM16.9395 13.6406L16.7471 13.9756L15.8506 13.459L16.042 13.124L16.9395 13.6406ZM13.5332 12.9014C14.0131 12.6 14.5956 12.5204 15.1445 12.6787L14.9453 13.0244C14.561 12.9369 14.165 12.9916 13.8242 13.1768L13.5332 12.9014ZM7.4248 8.75781C7.4275 8.80436 7.43077 8.85418 7.43848 8.90723C7.51328 9.424 7.85513 10.2539 8.93652 11.4727L8.65723 11.7383C7.61832 10.5684 7.20546 9.70805 7.08105 9.0957L7.05762 8.96484C7.02551 8.74386 7.03467 8.56034 7.05957 8.41113L7.4248 8.75781ZM8.21484 5.50879C8.48742 6.15928 8.44954 6.90146 8.10938 7.49902L7.82031 7.22461C8.04505 6.77319 8.07436 6.2293 7.89258 5.73633L8.21484 5.50879ZM2.16504 5.31152C2.06348 5.47725 1.98678 5.65421 1.93945 5.83984L1.53809 5.86133C1.59617 5.56441 1.71853 5.28937 1.88086 5.04199L2.16504 5.31152ZM7.68457 4.65918L7.36914 4.88184L6.7832 4.05273L7.09766 3.83008L7.68457 4.65918ZM3.5752 3.75098L2.81543 4.55078L2.53613 4.28516L3.29492 3.48438L3.5752 3.75098ZM4.03027 2.80273C4.79131 2.32245 5.78377 2.42455 6.47461 3.0459L6.14941 3.27539C5.61268 2.83714 4.89503 2.76823 4.32129 3.0791L4.03027 2.80273Z" fill="#4787FD" stroke="white"/>
<path d="M13.1715 2.13913C13.218 2.18322 13.2548 2.23558 13.28 2.29322C13.3052 2.35085 13.3181 2.41263 13.3181 2.47502C13.3181 2.53741 13.3052 2.59919 13.28 2.65683C13.2548 2.71446 13.218 2.76682 13.1715 2.81091C12.4214 3.52344 12.0001 4.48976 12.0001 5.49733C12.0001 6.50491 12.4214 7.47123 13.1715 8.18375C13.2192 8.22755 13.2573 8.27994 13.2835 8.33786C13.3097 8.39578 13.3235 8.45808 13.3241 8.52112C13.3247 8.58415 13.312 8.64667 13.2869 8.70502C13.2617 8.76336 13.2246 8.81637 13.1777 8.86095C13.1308 8.90552 13.075 8.94078 13.0135 8.96465C12.9521 8.98852 12.8863 9.00053 12.8199 8.99998C12.7535 8.99943 12.6879 8.98634 12.627 8.96146C12.566 8.93657 12.5108 8.90041 12.4647 8.85506C10.5118 7.00066 10.5118 3.99354 12.4647 2.13913C12.5584 2.05013 12.6856 2.00013 12.8181 2.00013C12.9506 2.00013 13.0778 2.05013 13.1715 2.13913ZM19.5357 2.13913C21.4881 3.99401 21.4881 7.00066 19.5357 8.85506C19.4419 8.94415 19.3148 8.99422 19.1822 8.99426C19.0496 8.99431 18.9224 8.94432 18.8286 8.8553C18.7348 8.76628 18.6821 8.64552 18.6821 8.51958C18.682 8.39364 18.7346 8.27284 18.8284 8.18375C19.5784 7.47123 19.9998 6.50491 19.9998 5.49733C19.9998 4.48976 19.5784 3.52344 18.8284 2.81091C18.7346 2.72183 18.6819 2.60101 18.6819 2.47502C18.6819 2.34904 18.7346 2.22821 18.8284 2.13913C18.9222 2.05005 19.0494 2 19.182 2C19.3147 2 19.4419 2.05005 19.5357 2.13913ZM14.6546 3.50359C14.7483 3.59262 14.8009 3.71335 14.8009 3.83924C14.8009 3.96513 14.7483 4.08586 14.6546 4.17489C14.4726 4.34771 14.3283 4.55288 14.2298 4.77869C14.1313 5.00449 14.0806 5.24651 14.0806 5.49092C14.0806 5.73534 14.1313 5.97736 14.2298 6.20316C14.3283 6.42897 14.4726 6.63414 14.6546 6.80696C14.701 6.85107 14.7378 6.90342 14.7629 6.96104C14.788 7.01867 14.8009 7.08042 14.8009 7.14278C14.8009 7.20514 14.7879 7.26688 14.7628 7.32448C14.7376 7.38209 14.7008 7.43442 14.6543 7.4785C14.6079 7.52258 14.5528 7.55754 14.4921 7.58138C14.4314 7.60522 14.3664 7.61749 14.3007 7.61746C14.2351 7.61744 14.1701 7.60514 14.1094 7.58125C14.0488 7.55737 13.9937 7.52237 13.9473 7.47826C13.3924 6.95118 13.0806 6.23632 13.0806 5.49092C13.0806 4.74553 13.3924 4.03067 13.9473 3.50359C13.9937 3.45944 14.0488 3.42443 14.1095 3.40054C14.1702 3.37664 14.2352 3.36435 14.3009 3.36435C14.3666 3.36435 14.4317 3.37664 14.4923 3.40054C14.553 3.42443 14.6082 3.45944 14.6546 3.50359ZM18.1326 3.50359C18.6875 4.03067 18.9993 4.74553 18.9993 5.49092C18.9993 6.23632 18.6875 6.95118 18.1326 7.47826C18.0383 7.56474 17.912 7.6126 17.781 7.61152C17.6499 7.61043 17.5245 7.5605 17.4319 7.47248C17.3392 7.38446 17.2866 7.26538 17.2855 7.1409C17.2843 7.01642 17.3347 6.8965 17.4258 6.80696C17.6077 6.63414 17.7521 6.42897 17.8506 6.20316C17.9491 5.97736 17.9998 5.73534 17.9998 5.49092C17.9998 5.24651 17.9491 5.00449 17.8506 4.77869C17.7521 4.55288 17.6077 4.34771 17.4258 4.17489C17.3347 4.08535 17.2843 3.96543 17.2855 3.84095C17.2866 3.71647 17.3392 3.59739 17.4319 3.50937C17.5245 3.42135 17.6499 3.37142 17.781 3.37033C17.912 3.36925 18.0383 3.41711 18.1326 3.50359ZM16.0402 4.81867C16.239 4.81867 16.4297 4.8937 16.5704 5.02725C16.711 5.1608 16.79 5.34193 16.79 5.5308C16.79 5.71967 16.711 5.90081 16.5704 6.03436C16.4297 6.16791 16.239 6.24294 16.0402 6.24294C15.8413 6.24294 15.6506 6.16791 15.51 6.03436C15.3694 5.90081 15.2904 5.71967 15.2904 5.5308C15.2904 5.34193 15.3694 5.1608 15.51 5.02725C15.6506 4.8937 15.8413 4.81867 16.0402 4.81867Z" fill="white"/>
</svg>
