<svg width="50" height="50" viewBox="0 0 50 50" fill="none" xmlns="http://www.w3.org/2000/svg">
<path d="M49.9685 42.2548C49.6433 43.7103 48.8372 45.0142 47.6799 45.9568C46.4155 47.2373 44.9089 48.2541 43.2476 48.9482C41.5862 49.6423 39.8034 49.9999 38.0025 50H37.1611C33.3813 49.7951 29.6804 48.8398 26.2746 47.1899H26.2488C25.4591 46.8228 24.6436 46.4557 23.854 46.0085C19.8785 43.7826 16.232 41.0159 13.0193 37.7876C8.85003 33.8771 5.42862 29.2413 2.92253 24.1068C1.59065 21.293 0.70168 18.2907 0.287004 15.206C-0.322788 11.9772 0.0440266 8.6401 1.3407 5.62018C2.1593 4.25774 3.1591 3.01241 4.31278 1.9182C4.8319 1.33201 5.46657 0.859093 6.17709 0.529033C6.88761 0.198973 7.6587 0.0188727 8.44212 0C9.29414 0.0940212 10.119 0.356109 10.8687 0.77105C11.6185 1.18599 12.2782 1.74552 12.8096 2.41714C13.9928 3.70198 15.4374 5.0411 16.6231 6.27682L18.2542 7.87963C19.2121 8.72757 19.8049 9.91159 19.9111 11.1887C19.9111 12.3598 19.4787 13.4895 18.6994 14.3659C18.1948 14.9788 17.659 15.5655 17.0943 16.1238L16.5688 16.6744C16.2633 16.9588 16.0303 17.3104 15.8853 17.7007C15.7558 18.0851 15.7041 18.4789 15.7299 18.8822C16.1468 19.9964 16.8018 21.0098 17.6458 21.85C18.9635 23.6337 20.2787 25.1848 21.6198 26.8652C24.0454 29.6772 26.9242 32.0651 30.1373 33.9305C30.4661 34.1709 30.8441 34.3312 31.2454 34.401C31.5923 34.4269 31.9444 34.3752 32.2706 34.2459C33.1897 33.7056 34.0052 33.0128 34.6887 32.1959C35.6078 31.0719 36.9273 30.3473 38.3701 30.1742C39.7585 30.1933 41.083 30.7602 42.0541 31.7512C42.5797 32.1959 43.157 32.8008 43.7111 33.3799L44.4981 34.1916L45.3136 34.9801L46.709 36.3968C47.5409 37.1344 48.3211 37.9229 49.0494 38.7622C49.7795 39.7704 50.1083 41.0191 49.9685 42.2548Z" fill="#130D38"/>
<path d="M33.343 2.27826C33.436 2.36645 33.5097 2.47117 33.56 2.58644C33.6103 2.70171 33.6362 2.82526 33.6362 2.95004C33.6362 3.07483 33.6103 3.19838 33.56 3.31365C33.5097 3.42892 33.436 3.53364 33.343 3.62183C31.8429 5.04688 31.0001 6.97951 31.0001 8.99467C31.0001 11.0098 31.8429 12.9425 33.343 14.3675C33.4385 14.4551 33.5146 14.5599 33.567 14.6757C33.6194 14.7916 33.647 14.9162 33.6482 15.0422C33.6493 15.1683 33.624 15.2933 33.5738 15.41C33.5235 15.5267 33.4493 15.6327 33.3554 15.7219C33.2615 15.811 33.1499 15.8815 33.027 15.9293C32.9042 15.977 32.7725 16.0011 32.6398 16C32.5071 15.9989 32.3759 15.9727 32.2539 15.9229C32.1319 15.8731 32.0216 15.8008 31.9294 15.7101C28.0235 12.0013 28.0235 5.98707 31.9294 2.27826C32.1169 2.10026 32.3711 2.00026 32.6362 2.00026C32.9013 2.00026 33.1555 2.10026 33.343 2.27826ZM46.0713 2.27826C49.9762 5.98802 49.9762 12.0013 46.0713 15.7101C45.8839 15.8883 45.6296 15.9884 45.3644 15.9885C45.0992 15.9886 44.8448 15.8886 44.6572 15.7106C44.4697 15.5326 44.3642 15.291 44.3641 15.0392C44.364 14.7873 44.4693 14.5457 44.6567 14.3675C46.1569 12.9425 46.9996 11.0098 46.9996 8.99467C46.9996 6.97951 46.1569 5.04688 44.6567 3.62183C44.4692 3.44366 44.3638 3.20201 44.3638 2.95004C44.3638 2.69808 44.4692 2.45643 44.6567 2.27826C44.8443 2.10009 45.0988 2 45.364 2C45.6293 2 45.8838 2.10009 46.0713 2.27826ZM36.3091 5.00717C36.4966 5.18523 36.6019 5.4267 36.6019 5.67848C36.6019 5.93026 36.4966 6.17173 36.3091 6.34979C35.9452 6.69542 35.6565 7.10576 35.4595 7.55737C35.2626 8.00898 35.1612 8.49302 35.1612 8.98185C35.1612 9.47067 35.2626 9.95471 35.4595 10.4063C35.6565 10.8579 35.9452 11.2683 36.3091 11.6139C36.402 11.7021 36.4756 11.8068 36.5258 11.9221C36.576 12.0373 36.6018 12.1608 36.6018 12.2856C36.6017 12.4103 36.5758 12.5338 36.5255 12.649C36.4752 12.7642 36.4015 12.8688 36.3086 12.957C36.2158 13.0452 36.1055 13.1151 35.9842 13.1628C35.8628 13.2104 35.7328 13.235 35.6015 13.2349C35.4702 13.2349 35.3402 13.2103 35.2189 13.1625C35.0976 13.1147 34.9874 13.0447 34.8946 12.9565C33.7847 11.9024 33.1612 10.4726 33.1612 8.98185C33.1612 7.49106 33.7847 6.06133 34.8946 5.00717C34.9874 4.91889 35.0977 4.84885 35.219 4.80107C35.3404 4.75329 35.4705 4.72869 35.6019 4.72869C35.7332 4.72869 35.8633 4.75329 35.9847 4.80107C36.106 4.84885 36.2163 4.91889 36.3091 5.00717ZM43.2652 5.00717C44.375 6.06133 44.9985 7.49106 44.9985 8.98185C44.9985 10.4726 44.375 11.9024 43.2652 12.9565C43.0766 13.1295 42.8241 13.2252 42.562 13.223C42.2998 13.2209 42.0491 13.121 41.8637 12.945C41.6784 12.7689 41.5732 12.5308 41.571 12.2818C41.5687 12.0328 41.6695 11.793 41.8516 11.6139C42.2155 11.2683 42.5042 10.8579 42.7012 10.4063C42.8981 9.95471 42.9995 9.47067 42.9995 8.98185C42.9995 8.49302 42.8981 8.00898 42.7012 7.55737C42.5042 7.10576 42.2155 6.69542 41.8516 6.34979C41.6695 6.17071 41.5687 5.93086 41.571 5.6819C41.5732 5.43294 41.6784 5.19479 41.8637 5.01874C42.0491 4.84269 42.2998 4.74283 42.562 4.74067C42.8241 4.7385 43.0766 4.83421 43.2652 5.00717ZM39.0804 7.63733C39.4781 7.63733 39.8595 7.78739 40.1407 8.05449C40.4219 8.3216 40.5799 8.68387 40.5799 9.06161C40.5799 9.43935 40.4219 9.80162 40.1407 10.0687C39.8595 10.3358 39.4781 10.4859 39.0804 10.4859C38.6826 10.4859 38.3012 10.3358 38.02 10.0687C37.7388 9.80162 37.5808 9.43935 37.5808 9.06161C37.5808 8.68387 37.7388 8.3216 38.02 8.05449C38.3012 7.78739 38.6826 7.63733 39.0804 7.63733Z" fill="#130D38"/>
</svg>
