<svg width="22" height="20" viewBox="0 0 22 20" fill="none" xmlns="http://www.w3.org/2000/svg">
<path d="M3.992 0.127256C1.84101 0.732224 0.251774 2.61434 0.0261119 4.83255C-0.0795171 5.86483 0.12694 6.86351 0.799124 8.57758C1.77379 11.0695 3.20939 13.2349 5.14912 15.1314C7.2521 17.1959 9.59514 18.6219 12.4135 19.5534C13.4698 19.8991 13.8923 19.9807 14.6701 19.9807C15.8176 19.9807 16.7059 19.7118 17.671 19.0733C19.2698 18.0218 20.3261 15.842 19.9084 14.4688C19.7883 14.0751 19.4955 13.6094 19.217 13.3837C18.9001 13.1292 16.0289 11.4344 15.6784 11.2999C15.2655 11.1415 14.5069 11.1031 14.0364 11.2135C13.2105 11.4056 12.6776 11.8281 12.0198 12.8219C11.7797 13.182 11.5685 13.4941 11.5445 13.5181C11.5013 13.5662 10.8147 13.1868 10.2049 12.7787C9.10541 12.0393 8.03471 10.9734 7.2665 9.84993C6.85359 9.24496 6.44067 8.50556 6.48869 8.46235C6.51269 8.43834 6.82478 8.22708 7.18968 7.98222C7.57859 7.71814 7.95309 7.42526 8.11153 7.25241C8.42842 6.91152 8.7309 6.32096 8.81733 5.87444C8.90375 5.41831 8.85094 4.71252 8.7021 4.31881C8.51484 3.83388 6.81998 0.991495 6.5367 0.689011C6.36865 0.511362 6.1766 0.372124 5.88852 0.232885C5.49481 0.0360317 5.47081 0.0312309 4.95227 0.0216274C4.51054 0.0120258 4.3473 0.0312309 3.992 0.127256ZM5.26435 1.70209C5.38918 1.78371 5.64366 2.17742 6.29663 3.27212C6.77677 4.07874 7.19448 4.81334 7.22329 4.90937C7.36253 5.3655 7.22329 5.91765 6.8872 6.22973C6.79597 6.31136 6.29663 6.66665 5.77809 7.01235C5.0915 7.46847 4.80823 7.68453 4.75061 7.79496C4.61137 8.05904 4.64498 8.33751 4.87064 8.84165C5.8165 10.9734 7.46816 12.894 9.50872 14.2335C10.1041 14.6224 11.4196 15.2946 11.6693 15.3378C11.8758 15.3762 12.1879 15.285 12.3367 15.1458C12.4087 15.0834 12.7256 14.6368 13.0473 14.1567C13.3642 13.6766 13.6955 13.2109 13.7771 13.1196C14.1132 12.7547 14.7422 12.6251 15.1791 12.8219C15.2895 12.87 16.0145 13.2925 16.7971 13.7582C18.3623 14.6945 18.4152 14.7425 18.4152 15.1602C18.4152 15.4675 18.1943 16.0964 17.9302 16.5334C17.6566 17.0039 17.0084 17.6377 16.5426 17.9017C15.9761 18.2186 15.5056 18.3579 14.8814 18.3867C14.5789 18.3963 14.214 18.3867 14.0364 18.3531C13.3162 18.2282 11.7317 17.6473 10.661 17.1143C8.90855 16.2453 7.52097 15.2418 6.12379 13.8398C4.17925 11.8905 2.81088 9.67228 1.95624 7.06516C1.67296 6.20573 1.60575 5.87444 1.60575 5.31748C1.61055 3.70904 2.65723 2.27345 4.21766 1.7309C4.7122 1.55805 5.03869 1.54845 5.26435 1.70209Z" fill="currentColor"/>
<path d="M15.8336 0.490514C15.8096 0.500116 15.7232 0.519322 15.6416 0.538527C15.5359 0.562534 14.9838 1.08108 13.5194 2.54548L11.5364 4.52362V3.63058C11.5364 2.78554 11.5316 2.72793 11.426 2.57909C11.1091 2.10376 10.4273 2.10376 10.1104 2.57909C10 2.73753 10 2.74233 10 4.71087C10 6.59299 10.0048 6.68902 10.096 6.84266C10.1488 6.92908 10.2593 7.03951 10.3457 7.09233C10.4993 7.18355 10.5954 7.18835 12.4775 7.18835C14.446 7.18835 14.4508 7.18835 14.6093 7.07792C14.8349 6.92908 14.9646 6.68902 14.9646 6.42014C14.9646 6.15127 14.8349 5.9112 14.6093 5.76236C14.4604 5.65673 14.4028 5.65193 13.5578 5.65193H12.6647L14.6429 3.66899C16.1073 2.20459 16.6258 1.65243 16.6498 1.5468C16.669 1.46518 16.693 1.37396 16.7026 1.33555C16.7363 1.23472 16.6354 0.922633 16.525 0.783394C16.381 0.596143 16.0065 0.442501 15.8336 0.490514Z" fill="currentColor"/>
<path d="M15.1931 9.68051C15.2171 9.6709 15.3035 9.6517 15.3852 9.63249C15.4908 9.60849 16.0429 9.08994 17.5073 7.62554L19.4903 5.6474L19.4903 6.54044C19.4903 7.38548 19.4951 7.44309 19.6007 7.59193C19.9176 8.06726 20.5994 8.06726 20.9163 7.59193C21.0267 7.43349 21.0267 7.42869 21.0267 5.46015C21.0267 3.57803 21.0219 3.482 20.9307 3.32836C20.8779 3.24194 20.7674 3.13151 20.681 3.07869C20.5274 2.98747 20.4313 2.98267 18.5492 2.98267C16.5807 2.98267 16.5759 2.98267 16.4174 3.0931C16.1918 3.24194 16.0621 3.482 16.0621 3.75088C16.0621 4.01975 16.1918 4.25982 16.4174 4.40866C16.5663 4.51429 16.6239 4.51909 17.4689 4.51909L18.362 4.51909L16.3838 6.50203C14.9194 7.96644 14.4009 8.51859 14.3769 8.62422C14.3577 8.70584 14.3337 8.79706 14.3241 8.83548C14.2905 8.9363 14.3913 9.24839 14.5017 9.38763C14.6458 9.57488 15.0203 9.72852 15.1931 9.68051Z" fill="currentColor"/>
</svg>
