<svg width="64" height="64" viewBox="0 0 64 64" fill="none" xmlns="http://www.w3.org/2000/svg">
<rect width="64" height="64" rx="32" fill="#D81B60"/>
<path d="M49.9443 42.446C49.9749 42.9044 49.9048 43.3646 49.7412 43.7943C49.5794 44.2419 49.3277 44.65 49.0023 44.997C48.3072 45.5661 47.4411 45.8851 46.5429 45.9031H41.6422C40.8746 45.935 40.1208 45.6929 39.5154 45.2199C39.0243 44.7191 38.7181 44.0661 38.6471 43.3682V41.5201C38.6691 41.3041 38.6305 41.0862 38.5356 40.8909C38.4767 40.7258 38.3749 40.5794 38.2408 40.4666C37.6648 40.1828 37.0328 40.0311 36.3908 40.0226C35.0425 39.8194 33.8955 39.6522 32.6928 39.5785C30.5593 39.4282 28.4157 39.6348 26.3502 40.1897C26.1548 40.2132 25.9696 40.2897 25.8145 40.4109C25.687 40.5084 25.5852 40.6355 25.5179 40.7812C25.3794 41.3565 25.3363 41.9498 25.3884 42.5377C25.4423 42.9727 25.4064 43.4132 25.2787 43.8321C25.1618 44.2715 24.9535 44.6813 24.6675 45.0348C24.3724 45.3431 24.016 45.5863 23.6212 45.7485C23.2264 45.9108 22.802 45.9886 22.3753 45.9768H18.5479C17.9306 46.0128 17.3146 46.0128 16.6997 45.9768C15.9155 45.8879 15.1945 45.5043 14.6826 44.9035C14.2017 44.158 13.9806 43.2744 14.0534 42.3902C14.0315 41.2453 14.2585 40.1093 14.7186 39.0607C15.1915 37.9861 15.8927 37.0272 16.7734 36.2508C18.3754 34.7475 20.2608 33.5783 22.3196 32.8116L23.7614 32.3119C26.3207 31.6001 28.9649 31.2396 31.6213 31.2404C34.9467 31.1144 38.2672 31.597 41.4192 32.6642C43.1577 33.3146 44.7811 34.2383 46.2283 35.4005C47.8249 36.4662 49.057 37.9951 49.7592 39.7816C49.9299 40.659 49.9929 41.5543 49.9443 42.446ZM21.7461 18.4078L21.9493 18.2604C21.8738 18.3053 21.8054 18.361 21.7461 18.4258V18.4078ZM23.0028 18.0195C22.8193 17.9909 22.6325 17.9909 22.449 18.0195H23.0028Z" fill="white"/>
<path d="M42.1222 20.3897L34.8771 27.6347C34.0915 28.4078 33.0362 28.8392 31.936 28.8374C31.3937 28.8402 30.8562 28.7353 30.3547 28.5289C29.8533 28.3224 29.3978 28.0185 29.0146 27.6347L24.1138 22.7555V26.7682C24.1138 27.1361 23.9677 27.4888 23.7076 27.7489C23.4475 28.0091 23.0947 28.1552 22.7268 28.1552C22.359 28.1552 22.0062 28.0091 21.7461 27.7489C21.486 27.4888 21.3398 27.1361 21.3398 26.7682V19.3721C21.3416 19.1458 21.3981 18.9233 21.5046 18.7235C21.611 18.5238 21.7642 18.3528 21.9511 18.2251C22.0989 18.1159 22.2689 18.0405 22.4491 18.004H30.1058C30.4734 18.004 30.826 18.15 31.0859 18.41C31.3459 18.6699 31.4919 19.0225 31.4919 19.3901C31.4919 19.7577 31.3459 20.1103 31.0859 20.3702C30.826 20.6302 30.4734 20.7762 30.1058 20.7762H26.0932L30.9742 25.659C31.2315 25.8795 31.5593 26.0007 31.8982 26.0007C32.2371 26.0007 32.5649 25.8795 32.8223 25.659L40.0709 18.4103C40.1995 18.2815 40.3522 18.1793 40.5204 18.1095C40.6885 18.0398 40.8687 18.0039 41.0507 18.0039C41.2327 18.0039 41.413 18.0398 41.5811 18.1095C41.7492 18.1793 41.9019 18.2815 42.0305 18.4103C42.3004 18.6629 42.4612 19.0108 42.4786 19.3801C42.4961 19.7494 42.3689 20.1109 42.124 20.3879" fill="white"/>
</svg>
