<svg width="424" height="138" viewBox="0 0 424 138" fill="none" xmlns="http://www.w3.org/2000/svg">
<path d="M0 0H424V138H359.215C337.705 138 316.723 131.33 299.161 118.909L269.702 98.0731C231.452 71.0197 179.835 72.8814 143.633 102.62L129.339 114.362C110.734 129.646 87.4024 138 63.3246 138H0V0Z" fill="#E7E7FF"/>
<path d="M64.9824 39.6627C64.8003 40.4778 64.3488 41.208 63.7007 41.7358C62.9927 42.4529 62.149 43.0223 61.2186 43.411C60.2883 43.7997 59.2899 43.9999 58.2814 44H57.8102C55.6935 43.8852 53.621 43.3503 51.7138 42.4263H51.6993C51.2571 42.2208 50.8004 42.0152 50.3582 41.7647C48.1319 40.5183 46.0899 38.9689 44.2908 37.1611C41.956 34.9712 40.04 32.3751 38.6366 29.4998C37.8908 27.9241 37.3929 26.2428 37.1607 24.5154C36.8192 22.7072 37.0247 20.8385 37.7508 19.1473C38.2092 18.3843 38.7691 17.687 39.4152 17.0742C39.7059 16.7459 40.0613 16.4811 40.4592 16.2963C40.8571 16.1114 41.2889 16.0106 41.7276 16C42.2047 16.0527 42.6666 16.1994 43.0865 16.4318C43.5063 16.6642 43.8758 16.9775 44.1734 17.3536C44.836 18.0731 45.6449 18.823 46.309 19.515L47.2223 20.4126C47.7587 20.8874 48.0908 21.5505 48.1502 22.2657C48.1502 22.9215 47.9081 23.5541 47.4717 24.0449C47.1891 24.3881 46.8891 24.7167 46.5728 25.0293L46.2785 25.3377C46.1074 25.4969 45.9769 25.6938 45.8958 25.9124C45.8233 26.1276 45.7943 26.3482 45.8088 26.574C46.0422 27.198 46.409 27.7655 46.8816 28.236C47.6196 29.2349 48.3561 30.1035 49.1071 31.0445C50.4655 32.6192 52.0775 33.9564 53.8769 35.0011C54.061 35.1357 54.2727 35.2255 54.4974 35.2646C54.6917 35.279 54.8889 35.2501 55.0715 35.1777C55.5862 34.8751 56.0429 34.4872 56.4256 34.0297C56.9404 33.4003 57.6793 32.9945 58.4873 32.8976C59.2648 32.9082 60.0065 33.2257 60.5503 33.7807C60.8446 34.0297 61.1679 34.3684 61.4782 34.6927L61.9189 35.1473L62.3756 35.5889L63.1571 36.3822C63.6229 36.7953 64.0598 37.2368 64.4677 37.7068C64.8765 38.2714 65.0606 38.9707 64.9824 39.6627ZM59.6964 29.5881C59.4043 29.5851 59.1251 29.4679 58.9186 29.2617C58.712 29.0555 58.5947 28.7766 58.5916 28.485C58.5932 27.6522 58.43 26.8274 58.1116 26.0577C57.7932 25.2881 57.3257 24.5888 56.736 23.9999C56.1463 23.4111 55.446 22.9443 54.6752 22.6263C53.9044 22.3083 53.0784 22.1454 52.2444 22.1469C51.9514 22.1469 51.6704 22.0307 51.4633 21.8238C51.2561 21.617 51.1397 21.3364 51.1397 21.0438C51.1397 20.7512 51.2561 20.4706 51.4633 20.2637C51.6704 20.0569 51.9514 19.9406 52.2444 19.9406C53.3686 19.9389 54.482 20.1588 55.521 20.5875C56.5599 21.0163 57.5039 21.6456 58.2988 22.4394C59.0937 23.2332 59.7239 24.1758 60.1533 25.2132C60.5827 26.2506 60.8029 27.3624 60.8011 28.485C60.8015 28.63 60.7732 28.7736 60.7178 28.9076C60.6624 29.0416 60.5811 29.1634 60.4784 29.2659C60.3758 29.3684 60.2538 29.4496 60.1196 29.5049C59.9854 29.5602 59.8416 29.5885 59.6964 29.5881Z" fill="black" style="mix-blend-mode:overlay"/>
<path d="M64.908 28.9986C64.6196 28.9956 64.3438 28.8796 64.1397 28.6754C63.9356 28.4712 63.8194 28.1951 63.8161 27.9061C63.8183 26.4992 63.5436 25.1056 63.0077 23.8051C62.4717 22.5046 61.685 21.3227 60.6926 20.3271C59.7002 19.3315 58.5216 18.5417 57.2242 18.0029C55.9268 17.4641 54.536 17.1868 53.1315 17.187C52.9849 17.1924 52.8387 17.168 52.7016 17.1155C52.5646 17.0629 52.4396 16.9833 52.3339 16.8812C52.2283 16.7792 52.1443 16.6569 52.0869 16.5216C52.0296 16.3863 52 16.2409 52 16.0939C52 15.9469 52.0296 15.8014 52.0869 15.6661C52.1443 15.5308 52.2283 15.4085 52.3339 15.3065C52.4396 15.2045 52.5646 15.1248 52.7016 15.0723C52.8387 15.0197 52.9849 14.9954 53.1315 15.0007C54.8226 15.0007 56.4972 15.3346 58.0594 15.9834C59.6216 16.6321 61.0408 17.5829 62.236 18.7815C63.4311 19.9801 64.3787 21.4029 65.0246 22.9685C65.6704 24.5342 66.0019 26.212 66 27.9061C66.0004 28.0499 65.9724 28.1923 65.9176 28.3252C65.8629 28.4581 65.7825 28.5788 65.681 28.6805C65.5795 28.7821 65.459 28.8627 65.3264 28.9175C65.1937 28.9723 65.0515 28.9989 64.908 28.9986Z" fill="black" style="mix-blend-mode:overlay"/>
<path d="M350.982 34.6627C350.8 35.4778 350.349 36.208 349.701 36.7358C348.993 37.4529 348.149 38.0223 347.219 38.411C346.288 38.7997 345.29 38.9999 344.281 39H343.81C341.694 38.8852 339.621 38.3503 337.714 37.4263H337.699C337.257 37.2208 336.8 37.0152 336.358 36.7647C334.132 35.5183 332.09 33.9689 330.291 32.1611C327.956 29.9712 326.04 27.3751 324.637 24.4998C323.891 22.9241 323.393 21.2428 323.161 19.5154C322.819 17.7072 323.025 15.8385 323.751 14.1473C324.209 13.3843 324.769 12.687 325.415 12.0742C325.706 11.7459 326.061 11.4811 326.459 11.2963C326.857 11.1114 327.289 11.0106 327.728 11C328.205 11.0527 328.667 11.1994 329.086 11.4318C329.506 11.6642 329.876 11.9775 330.173 12.3536C330.836 13.0731 331.645 13.823 332.309 14.515L333.222 15.4126C333.759 15.8874 334.091 16.5505 334.15 17.2657C334.15 17.9215 333.908 18.5541 333.472 19.0449C333.189 19.3881 332.889 19.7167 332.573 20.0293L332.279 20.3377C332.107 20.4969 331.977 20.6938 331.896 20.9124C331.823 21.1276 331.794 21.3482 331.809 21.574C332.042 22.198 332.409 22.7655 332.882 23.236C333.62 24.2349 334.356 25.1035 335.107 26.0445C336.465 27.6192 338.078 28.9564 339.877 30.0011C340.061 30.1357 340.273 30.2255 340.497 30.2646C340.692 30.279 340.889 30.2501 341.072 30.1777C341.586 29.8751 342.043 29.4872 342.426 29.0297C342.94 28.4003 343.679 27.9945 344.487 27.8976C345.265 27.9082 346.006 28.2257 346.55 28.7807C346.845 29.0297 347.168 29.3684 347.478 29.6927L347.919 30.1473L348.376 30.5889L349.157 31.3822C349.623 31.7953 350.06 32.2368 350.468 32.7068C350.877 33.2714 351.061 33.9707 350.982 34.6627ZM345.696 24.5881C345.404 24.5851 345.125 24.4679 344.919 24.2617C344.712 24.0555 344.595 23.7766 344.592 23.485C344.593 22.6522 344.43 21.8274 344.112 21.0577C343.793 20.2881 343.326 19.5888 342.736 18.9999C342.146 18.4111 341.446 17.9443 340.675 17.6263C339.904 17.3083 339.078 17.1454 338.244 17.1469C337.951 17.1469 337.67 17.0307 337.463 16.8238C337.256 16.617 337.14 16.3364 337.14 16.0438C337.14 15.7512 337.256 15.4706 337.463 15.2637C337.67 15.0569 337.951 14.9406 338.244 14.9406C339.369 14.9389 340.482 15.1588 341.521 15.5875C342.56 16.0163 343.504 16.6456 344.299 17.4394C345.094 18.2332 345.724 19.1758 346.153 20.2132C346.583 21.2506 346.803 22.3624 346.801 23.485C346.802 23.63 346.773 23.7736 346.718 23.9076C346.662 24.0416 346.581 24.1634 346.478 24.2659C346.376 24.3684 346.254 24.4496 346.12 24.5049C345.985 24.5602 345.842 24.5885 345.696 24.5881Z" fill="black" style="mix-blend-mode:overlay"/>
<path d="M350.908 23.9986C350.62 23.9956 350.344 23.8796 350.14 23.6754C349.936 23.4712 349.819 23.1951 349.816 22.9061C349.818 21.4992 349.544 20.1056 349.008 18.8051C348.472 17.5046 347.685 16.3227 346.693 15.3271C345.7 14.3315 344.522 13.5417 343.224 13.0029C341.927 12.4641 340.536 12.1868 339.132 12.187C338.985 12.1924 338.839 12.168 338.702 12.1155C338.565 12.0629 338.44 11.9833 338.334 11.8812C338.228 11.7792 338.144 11.6569 338.087 11.5216C338.03 11.3863 338 11.2409 338 11.0939C338 10.9469 338.03 10.8014 338.087 10.6661C338.144 10.5308 338.228 10.4085 338.334 10.3065C338.44 10.2045 338.565 10.1248 338.702 10.0723C338.839 10.0197 338.985 9.99539 339.132 10.0007C340.823 10.0007 342.497 10.3346 344.059 10.9834C345.622 11.6321 347.041 12.5829 348.236 13.7815C349.431 14.9801 350.379 16.4029 351.025 17.9685C351.67 19.5342 352.002 21.212 352 22.9061C352 23.0499 351.972 23.1923 351.918 23.3252C351.863 23.4581 351.782 23.5788 351.681 23.6805C351.58 23.7821 351.459 23.8627 351.326 23.9175C351.194 23.9723 351.052 23.9989 350.908 23.9986Z" fill="black" style="mix-blend-mode:overlay"/>
<path d="M139.37 75.2561L139.356 75.2588L139.26 75.3056L139.234 75.311L139.215 75.3056L139.12 75.2588C139.105 75.2543 139.095 75.2565 139.088 75.2655L139.082 75.2789L139.06 75.8522L139.066 75.879L139.08 75.8964L139.219 75.9955L139.239 76.0009L139.255 75.9955L139.394 75.8964L139.41 75.875L139.416 75.8522L139.393 75.2802C139.389 75.2659 139.382 75.2579 139.37 75.2561ZM139.725 75.1047L139.708 75.1074L139.46 75.232L139.447 75.2454L139.443 75.2601L139.467 75.8361L139.473 75.8522L139.484 75.8616L139.753 75.9861C139.77 75.9906 139.783 75.987 139.792 75.9754L139.798 75.9567L139.752 75.1342C139.748 75.1181 139.739 75.1083 139.725 75.1047ZM138.767 75.1074C138.762 75.1038 138.755 75.1027 138.748 75.1042C138.741 75.1057 138.735 75.1097 138.731 75.1154L138.723 75.1342L138.678 75.9567C138.679 75.9727 138.686 75.9835 138.701 75.9888L138.721 75.9861L138.99 75.8616L139.003 75.8508L139.009 75.8361L139.031 75.2601L139.027 75.244L139.014 75.2306L138.767 75.1074Z" fill="black" style="mix-blend-mode:overlay"/>
<path d="M129.751 47.1613C130.064 47.026 130.408 46.9745 130.747 47.0118C131.086 47.0492 131.41 47.1741 131.687 47.3743C133.218 48.4902 134.41 50.0132 135.428 51.4707L136.02 52.3334L136.579 53.1572C137.114 53.9395 137.03 54.991 136.383 55.6755L136.236 55.8175L133.622 57.7585C133.496 57.8497 133.408 57.9833 133.373 58.1348C133.338 58.2863 133.359 58.4453 133.432 58.5824C134.024 59.6594 135.077 61.2615 136.283 62.4671C137.488 63.6727 139.167 64.7952 140.317 65.4543C140.442 65.525 140.587 65.5518 140.729 65.5304C140.871 65.509 141.002 65.4407 141.101 65.3364L141.18 65.2373L142.881 62.6479C143.194 62.2324 143.655 61.9541 144.169 61.8712C144.682 61.7883 145.208 61.9073 145.635 62.2032L146.581 62.8596C148.314 64.0692 150.019 65.3458 151.33 67.0229C151.546 67.3014 151.684 67.6329 151.728 67.9829C151.773 68.3328 151.723 68.6883 151.583 69.0121C150.468 71.6122 147.61 73.8546 144.673 73.7461L144.272 73.7247L143.959 73.6979L143.614 73.6577L143.237 73.6068L142.829 73.5385L142.392 73.4527L141.929 73.3483L141.438 73.2237L140.923 73.075L140.384 72.9008C137.911 72.0636 134.773 70.416 131.553 67.197C128.332 63.9781 126.686 60.8382 125.848 58.3654L125.674 57.8269L125.526 57.3111L125.4 56.8209L125.296 56.3574L125.211 55.9207L125.144 55.5121L125.091 55.1357L125.052 54.7901L125.025 54.478L125.004 54.0761C124.895 51.1345 127.147 48.2758 129.751 47.1613ZM149.292 48.1178C149.647 48.1178 149.988 48.2589 150.239 48.5101C150.491 48.7613 150.632 49.1021 150.632 49.4573V54.8155C150.632 55.1708 150.491 55.5115 150.239 55.7628C149.988 56.014 149.647 56.1551 149.292 56.1551C148.937 56.1551 148.596 56.014 148.345 55.7628C148.094 55.5115 147.953 55.1708 147.953 54.8155V52.691L143.542 57.1022C143.289 57.3462 142.951 57.4812 142.599 57.4781C142.248 57.4751 141.912 57.3342 141.664 57.0858C141.415 56.8375 141.275 56.5015 141.271 56.1503C141.268 55.7991 141.403 55.4607 141.647 55.208L146.058 50.7969H143.934C143.579 50.7969 143.238 50.6558 142.987 50.4045C142.736 50.1533 142.594 49.8126 142.594 49.4573C142.594 49.1021 142.736 48.7613 142.987 48.5101C143.238 48.2589 143.579 48.1178 143.934 48.1178H149.292Z" fill="black" style="mix-blend-mode:overlay"/>
<path d="M36.3703 111.256L36.3555 111.259L36.2604 111.306L36.2336 111.311L36.2149 111.306L36.1198 111.259C36.1055 111.254 36.0948 111.257 36.0876 111.265L36.0823 111.279L36.0595 111.852L36.0662 111.879L36.0796 111.896L36.2189 111.996L36.239 112.001L36.2551 111.996L36.3944 111.896L36.4105 111.875L36.4158 111.852L36.393 111.28C36.3895 111.266 36.3819 111.258 36.3703 111.256ZM36.7252 111.105L36.7078 111.107L36.46 111.232L36.4466 111.245L36.4426 111.26L36.4667 111.836L36.4734 111.852L36.4841 111.862L36.7534 111.986C36.7703 111.991 36.7833 111.987 36.7922 111.975L36.7976 111.957L36.752 111.134C36.7476 111.118 36.7386 111.108 36.7252 111.105ZM35.7675 111.107C35.7616 111.104 35.7545 111.103 35.7478 111.104C35.741 111.106 35.7351 111.11 35.7313 111.115L35.7233 111.134L35.6777 111.957C35.6786 111.973 35.6862 111.983 35.7005 111.989L35.7206 111.986L35.9898 111.862L36.0032 111.851L36.0086 111.836L36.0314 111.26L36.0274 111.244L36.014 111.231L35.7675 111.107Z" fill="black" style="mix-blend-mode:overlay"/>
<path d="M26.7511 83.1613C27.0645 83.026 27.4077 82.9745 27.747 83.0118C28.0864 83.0492 28.4102 83.1741 28.6867 83.3743C30.2178 84.4902 31.4099 86.0132 32.428 87.4707L33.0201 88.3334L33.5786 89.1572C34.1145 89.9395 34.0301 90.991 33.3831 91.6755L33.2357 91.8175L30.6223 93.7585C30.4964 93.8497 30.4077 93.9833 30.3727 94.1348C30.3378 94.2863 30.3589 94.4453 30.4321 94.5824C31.0242 95.6594 32.077 97.2615 33.2826 98.4671C34.4882 99.6727 36.1666 100.795 37.3173 101.454C37.4423 101.525 37.5874 101.552 37.7294 101.53C37.8714 101.509 38.0022 101.441 38.1009 101.336L38.1799 101.237L39.8811 98.6479C40.1939 98.2324 40.6553 97.9541 41.1687 97.8712C41.682 97.7883 42.2076 97.9073 42.6352 98.2032L43.5809 98.8596C45.3143 100.069 47.0195 101.346 48.3295 103.023C48.5461 103.301 48.6838 103.633 48.7283 103.983C48.7728 104.333 48.7226 104.688 48.5827 105.012C47.4682 107.612 44.6097 109.855 41.6734 109.746L41.2716 109.725L40.9595 109.698L40.6139 109.658L40.2374 109.607L39.8289 109.538L39.3922 109.453L38.9287 109.348L38.4385 109.224L37.9227 109.075L37.3842 108.901C34.9115 108.064 31.773 106.416 28.5527 103.197C25.3325 99.9781 23.6862 96.8382 22.8477 94.3654L22.6735 93.8269L22.5262 93.3111L22.4003 92.8209L22.2958 92.3574L22.2114 91.9207L22.1444 91.5121L22.0908 91.1357L22.052 90.7901L22.0252 90.478L22.0038 90.0761C21.8953 87.1345 24.147 84.2758 26.7511 83.1613ZM46.2921 84.1178C46.6474 84.1178 46.9881 84.2589 47.2393 84.5101C47.4905 84.7613 47.6317 85.1021 47.6317 85.4573V90.8155C47.6317 91.1708 47.4905 91.5115 47.2393 91.7628C46.9881 92.014 46.6474 92.1551 46.2921 92.1551C45.9369 92.1551 45.5961 92.014 45.3449 91.7628C45.0937 91.5115 44.9526 91.1708 44.9526 90.8155V88.691L40.5415 93.1022C40.2889 93.3462 39.9505 93.4812 39.5993 93.4781C39.2481 93.4751 38.9121 93.3342 38.6637 93.0858C38.4154 92.8375 38.2745 92.5015 38.2715 92.1503C38.2684 91.7991 38.4034 91.4607 38.6474 91.208L43.0585 86.7969H40.934C40.5787 86.7969 40.238 86.6558 39.9868 86.4045C39.7356 86.1533 39.5945 85.8126 39.5945 85.4573C39.5945 85.1021 39.7356 84.7613 39.9868 84.5101C40.238 84.2589 40.5787 84.1178 40.934 84.1178H46.2921Z" fill="black" style="mix-blend-mode:overlay"/>
<path d="M392.222 76H372.778C372.041 76 371.335 76.2969 370.814 76.8254C370.293 77.3538 370 78.0706 370 78.8179V98.5434C370 100.093 371.25 101.361 372.778 101.361H378.333L381.514 104.588C382.056 105.137 382.931 105.137 383.472 104.588L386.667 101.361H392.222C393.75 101.361 395 100.093 395 98.5434V78.8179C395 77.2681 393.75 76 392.222 76ZM382.5 80.6496C384.569 80.6496 386.25 82.3544 386.25 84.4538C386.25 86.5531 384.569 88.258 382.5 88.258C380.431 88.258 378.75 86.5531 378.75 84.4538C378.75 82.3544 380.431 80.6496 382.5 80.6496ZM390.833 95.7255H374.167V94.4574C374.167 91.6395 379.722 90.0896 382.5 90.0896C385.278 90.0896 390.833 91.6395 390.833 94.4574V95.7255Z" fill="black" style="mix-blend-mode:overlay"/>
<path d="M204.906 8.94252L186.613 15.5348C185.92 15.7846 185.356 16.3034 185.045 16.9772C184.734 17.651 184.702 18.4245 184.955 19.1276L191.643 37.6848C192.168 39.1429 193.774 39.9121 195.212 39.3941L200.438 37.5106L204.524 39.4677C205.22 39.8011 206.043 39.5044 206.367 38.8038L208.278 34.6853L213.504 32.8018C214.942 32.2839 215.688 30.6671 215.162 29.209L208.475 10.6518C207.949 9.19373 206.343 8.42455 204.906 8.94252ZM197.336 16.6129C199.283 15.9113 201.442 16.9454 202.154 18.9204C202.865 20.8954 201.862 23.0691 199.916 23.7707C197.969 24.4723 195.81 23.4382 195.098 21.4631C194.386 19.4881 195.389 17.3145 197.336 16.6129ZM210.287 27.9706L194.607 33.6212L194.178 32.4282C193.222 29.7772 197.923 26.4356 200.537 25.4938C203.15 24.5521 208.902 24.1266 209.857 26.7777L210.287 27.9706Z" fill="black" style="mix-blend-mode:overlay"/>
<path d="M307.142 70.0555C307.367 70.4747 307.499 70.9385 307.529 71.4132C307.569 71.9042 307.508 72.3962 307.351 72.8619C306.943 73.6945 306.267 74.3643 305.433 74.7638L300.837 76.8515C300.131 77.2086 299.32 77.3014 298.55 77.1134C297.875 76.8504 297.308 76.3652 296.942 75.7375L296.151 73.9951C296.079 73.782 295.949 73.593 295.777 73.4493C295.651 73.3188 295.493 73.2241 295.319 73.1749C294.657 73.1527 293.999 73.2789 293.394 73.5443C292.042 73.9271 290.895 74.2581 289.735 74.701C287.67 75.4681 285.748 76.576 284.049 77.9791C283.875 78.0844 283.734 78.2355 283.641 78.4158C283.563 78.562 283.522 78.7253 283.521 78.8913C283.638 79.4927 283.851 80.0704 284.152 80.6024C284.389 80.9896 284.544 81.4202 284.604 81.8695C284.682 82.3336 284.662 82.8087 284.545 83.2638C284.401 83.6803 284.17 84.0613 283.87 84.3825C283.569 84.7036 283.204 84.9577 282.799 85.1284L279.209 86.7589C278.646 87.0557 278.068 87.3181 277.476 87.5461C276.703 87.7964 275.862 87.7418 275.125 87.3935C274.355 86.8954 273.769 86.1567 273.458 85.292C272.948 84.2219 272.674 83.0542 272.656 81.8696C272.64 80.6549 272.887 79.4522 273.38 78.345C274.239 76.2453 275.506 74.3398 277.109 72.74L278.247 71.6546C280.343 69.8933 282.668 68.4271 285.16 67.2962C288.224 65.7609 291.545 64.8013 294.958 64.4648C296.867 64.3374 298.785 64.5167 300.64 64.9959C302.594 65.3206 304.404 66.2371 305.828 67.6224C306.364 68.3768 306.806 69.1941 307.142 70.0555ZM270.403 59.4043L270.53 59.1788C270.479 59.2533 270.438 59.335 270.41 59.4213L270.403 59.4043ZM271.415 58.5029C271.231 58.5541 271.056 58.6337 270.896 58.7388L271.415 58.5029Z" fill="black" style="mix-blend-mode:overlay"/>
<path d="M290.142 52.8756L286.284 63.4421C285.86 64.5752 285.012 65.4852 283.922 65.9784C283.386 66.2252 282.805 66.3612 282.214 66.3786C281.623 66.3961 281.032 66.2945 280.477 66.0799L273.387 63.3643L275.225 67.411C275.394 67.782 275.411 68.2036 275.272 68.5829C275.134 68.9623 274.851 69.2684 274.487 69.4339C274.123 69.5994 273.706 69.6107 273.329 69.4655C272.953 69.3202 272.646 69.0301 272.478 68.6591L269.09 61.2002C268.988 60.9711 268.942 60.7213 268.956 60.472C268.97 60.2226 269.043 59.9812 269.17 59.7684C269.266 59.5918 269.4 59.4392 269.562 59.3213L277.146 55.8763C277.51 55.7109 277.927 55.6995 278.303 55.8447C278.68 55.9899 278.986 56.2798 279.154 56.6505C279.323 57.0212 279.339 57.4425 279.201 57.8216C279.063 58.2007 278.78 58.5066 278.416 58.672L274.441 60.4775L281.513 63.2057C281.869 63.3122 282.249 63.287 282.585 63.1345C282.921 62.982 283.19 62.7123 283.344 62.3741L287.204 51.8024C287.272 51.6146 287.376 51.4428 287.511 51.2968C287.646 51.1509 287.808 51.0336 287.988 50.9517C288.168 50.8698 288.363 50.8249 288.562 50.8196C288.76 50.8142 288.958 50.8486 289.145 50.9207C289.528 51.054 289.846 51.3326 290.033 51.6971C290.219 52.0617 290.259 52.4835 290.143 52.873" fill="black" style="mix-blend-mode:overlay"/>
</svg>
