<svg width="104" height="104" viewBox="0 0 104 104" fill="none" xmlns="http://www.w3.org/2000/svg">
<circle cx="52.3353" cy="51.6644" r="50.3226" fill="#E7E7FF"/>
<path d="M69.6083 72C64.863 72 60.1745 70.9659 55.5431 68.8977C50.9116 66.8294 46.6977 63.8964 42.9014 60.0986C39.1051 56.3008 36.1728 52.0869 34.1046 47.4569C32.0364 42.827 31.0015 38.1386 31 33.3917C31 32.7083 31.2278 32.1389 31.6833 31.6833C32.1389 31.2278 32.7083 31 33.3917 31H42.6167C43.1481 31 43.6227 31.1807 44.0403 31.5421C44.4579 31.9035 44.7046 32.3302 44.7806 32.8222L46.2611 40.7944C46.337 41.4019 46.3181 41.9144 46.2042 42.3319C46.0903 42.7495 45.8815 43.1102 45.5778 43.4139L40.0542 48.9944C40.8134 50.3991 41.7147 51.7559 42.7579 53.0648C43.8011 54.3738 44.9499 55.6364 46.2042 56.8528C47.381 58.0296 48.6148 59.1214 49.9056 60.1282C51.1963 61.135 52.563 62.0552 54.0056 62.8889L59.3583 57.5361C59.7 57.1944 60.1464 56.9386 60.6977 56.7685C61.2489 56.5984 61.7895 56.5506 62.3194 56.625L70.1778 58.2194C70.7093 58.3713 71.1458 58.6469 71.4875 59.0463C71.8292 59.4456 72 59.8913 72 60.3833V69.6083C72 70.2917 71.7722 70.8611 71.3167 71.3167C70.8611 71.7722 70.2917 72 69.6083 72Z" fill="black"/>
</svg>
