<svg width="17" height="17" viewBox="0 0 17 17" fill="none" xmlns="http://www.w3.org/2000/svg">
<path d="M8.5 0C7.38376 0 6.27846 0.219859 5.24719 0.647024C4.21592 1.07419 3.27889 1.70029 2.48959 2.48959C0.895533 4.08365 0 6.24566 0 8.5C0 10.7543 0.895533 12.9163 2.48959 14.5104C3.27889 15.2997 4.21592 15.9258 5.24719 16.353C6.27846 16.7801 7.38376 17 8.5 17C10.7543 17 12.9163 16.1045 14.5104 14.5104C16.1045 12.9163 17 10.7543 17 8.5C17 7.38376 16.7801 6.27846 16.353 5.24719C15.9258 4.21592 15.2997 3.27889 14.5104 2.48959C13.7211 1.70029 12.7841 1.07419 11.7528 0.647024C10.7215 0.219859 9.61624 0 8.5 0Z" fill="#4787FD"/>
<path d="M12.4267 11.6926C12.3719 11.9384 12.236 12.1587 12.0408 12.3179C11.8276 12.5342 11.5735 12.706 11.2933 12.8233C11.0132 12.9405 10.7125 13.0009 10.4088 13.0009H10.2669C9.62946 12.9663 9.00533 12.8049 8.43099 12.5262H8.42662C8.29346 12.4642 8.15593 12.4022 8.02277 12.3267C7.35233 11.9507 6.73739 11.4833 6.1956 10.938C5.49248 10.2774 4.91549 9.49427 4.49286 8.62693C4.26825 8.1516 4.11833 7.64444 4.0484 7.12337C3.94556 6.57793 4.00742 6.01422 4.2261 5.50408C4.36415 5.27393 4.53275 5.06356 4.72731 4.87872C4.81486 4.7797 4.92189 4.69981 5.04171 4.64405C5.16154 4.5883 5.29157 4.55788 5.42369 4.55469C5.56738 4.57057 5.70648 4.61484 5.83291 4.68494C5.95935 4.75503 6.07061 4.84955 6.16023 4.963C6.35976 5.18004 6.60338 5.40626 6.80334 5.615L7.0784 5.88575C7.23994 6.02899 7.33993 6.229 7.35783 6.44473C7.35783 6.64256 7.28491 6.8334 7.1535 6.98144C7.06839 7.08498 6.97804 7.18409 6.88281 7.2784L6.79418 7.37141C6.74266 7.41945 6.70336 7.47884 6.67891 7.54478C6.65708 7.60971 6.64835 7.67623 6.65272 7.74436C6.72301 7.93258 6.83347 8.10376 6.9758 8.24569C7.19803 8.54702 7.41982 8.80904 7.64598 9.09289C8.05505 9.5679 8.54053 9.97128 9.0824 10.2864C9.13784 10.327 9.20159 10.3541 9.26926 10.3659C9.32776 10.3702 9.38714 10.3615 9.44215 10.3397C9.59715 10.2484 9.73467 10.1314 9.84994 9.99337C10.0049 9.80351 10.2275 9.68111 10.4708 9.65187C10.7049 9.65509 10.9283 9.75086 11.0921 9.91826C11.1807 9.99337 11.2781 10.0956 11.3715 10.1934L11.5042 10.3305L11.6417 10.4637L11.8771 10.703C12.0174 10.8276 12.1489 10.9608 12.2718 11.1026C12.3949 11.2729 12.4503 11.4838 12.4267 11.6926ZM10.8349 8.65357C10.747 8.65266 10.6629 8.61731 10.6007 8.5551C10.5385 8.49289 10.5031 8.40878 10.5022 8.3208C10.5027 8.0696 10.4536 7.82078 10.3577 7.58861C10.2618 7.35645 10.121 7.1455 9.9434 6.96787C9.76581 6.79025 9.55492 6.64944 9.3228 6.55352C9.09069 6.4576 8.84193 6.40846 8.59078 6.40892C8.50255 6.40892 8.41793 6.37386 8.35554 6.31146C8.29315 6.24905 8.25809 6.16441 8.25809 6.07616C8.25809 5.9879 8.29315 5.90326 8.35554 5.84086C8.41793 5.77845 8.50255 5.74339 8.59078 5.74339C8.92932 5.74287 9.26463 5.80919 9.5775 5.93853C9.89037 6.06787 10.1746 6.2577 10.414 6.49714C10.6534 6.73658 10.8432 7.02092 10.9725 7.33386C11.1018 7.6468 11.1681 7.98219 11.1676 8.3208C11.1677 8.36454 11.1592 8.40786 11.1425 8.44828C11.1258 8.48871 11.1013 8.52544 11.0704 8.55636C11.0395 8.58729 11.0028 8.61179 10.9624 8.62848C10.9219 8.64516 10.8786 8.65369 10.8349 8.65357Z" fill="white"/>
<path d="M12.645 8.49648C12.5522 8.49552 12.4635 8.45826 12.3978 8.39267C12.3321 8.32709 12.2948 8.23839 12.2937 8.14558C12.2944 7.69365 12.206 7.24601 12.0336 6.82828C11.8612 6.41055 11.6081 6.03092 11.2888 5.71112C10.9695 5.39133 10.5903 5.13763 10.1729 4.96456C9.75552 4.79149 9.30808 4.70243 8.85622 4.7025C8.80905 4.70421 8.76201 4.69639 8.71792 4.67951C8.67384 4.66264 8.6336 4.63705 8.59962 4.60427C8.56565 4.5715 8.53862 4.53221 8.52016 4.48876C8.5017 4.44531 8.49219 4.39858 8.49219 4.35136C8.49219 4.30415 8.5017 4.25742 8.52016 4.21397C8.53862 4.17051 8.56565 4.13123 8.59962 4.09845C8.6336 4.06568 8.67384 4.04009 8.71792 4.02321C8.76201 4.00634 8.80905 3.99852 8.85622 4.00023C9.40029 4.00023 9.93903 4.10749 10.4416 4.31587C10.9442 4.52425 11.4008 4.82966 11.7853 5.21465C12.1698 5.59965 12.4747 6.05666 12.6825 6.55957C12.8903 7.06248 12.9969 7.60142 12.9963 8.14558C12.9964 8.19175 12.9874 8.2375 12.9698 8.28018C12.9522 8.32287 12.9263 8.36165 12.8937 8.3943C12.861 8.42695 12.8223 8.45283 12.7796 8.47044C12.7369 8.48806 12.6912 8.4966 12.645 8.49648Z" fill="white"/>
</svg>
