<svg width="16" height="16" viewBox="0 0 16 16" fill="none" xmlns="http://www.w3.org/2000/svg">
<path d="M14.98 13.6732C14.8825 14.1103 14.6409 14.5018 14.2939 14.7849C13.9149 15.1694 13.4632 15.4748 12.9652 15.6832C12.4671 15.8916 11.9326 15.999 11.3927 15.999H11.1405C10.0074 15.9375 8.89786 15.6506 7.87686 15.1552H7.8691C7.63238 15.0449 7.3879 14.9347 7.15118 14.8004C5.95935 14.132 4.86619 13.3012 3.90306 12.3317C2.65314 11.1574 1.62744 9.76532 0.876144 8.22348C0.476861 7.3785 0.210356 6.47694 0.0860406 5.55064C-0.0967684 4.58103 0.0131987 3.57894 0.401926 2.67208C0.647336 2.26295 0.947065 1.88898 1.29293 1.5604C1.44855 1.38437 1.63882 1.24235 1.85183 1.14324C2.06483 1.04413 2.296 0.990042 2.53086 0.984375C2.78628 1.01261 3.03356 1.09131 3.25833 1.21592C3.4831 1.34052 3.68088 1.50854 3.84019 1.71023C4.19489 2.09605 4.62797 2.49818 4.98344 2.86926L5.4724 3.35057C5.75957 3.6052 5.9373 3.96075 5.96913 4.34425C5.96913 4.69592 5.83951 5.03517 5.6059 5.29834C5.4546 5.4824 5.29399 5.65859 5.12469 5.82623L4.96714 5.99159C4.87555 6.07698 4.8057 6.18256 4.76224 6.29978C4.72343 6.41519 4.70791 6.53345 4.71567 6.65456C4.84063 6.98915 5.03699 7.29346 5.29001 7.54576C5.68506 8.08142 6.07934 8.5472 6.48137 9.05181C7.20857 9.89622 8.07159 10.6133 9.03485 11.1735C9.13342 11.2457 9.24673 11.2938 9.36703 11.3148C9.47104 11.3225 9.57659 11.307 9.67438 11.2682C9.94991 11.1059 10.1944 10.8979 10.3993 10.6526C10.6748 10.315 11.0704 10.0975 11.503 10.0455C11.9192 10.0512 12.3162 10.2214 12.6074 10.519C12.7649 10.6526 12.938 10.8342 13.1041 11.0081L13.3401 11.2519L13.5845 11.4886L14.0029 11.9141C14.2523 12.1356 14.4861 12.3723 14.7045 12.6244C14.9234 12.9272 15.0219 13.3021 14.98 13.6732ZM12.1502 8.27084C11.9939 8.26922 11.8444 8.20638 11.7338 8.09579C11.6233 7.9852 11.5604 7.83567 11.5588 7.67929C11.5597 7.23274 11.4723 6.79041 11.3018 6.3777C11.1314 5.96498 10.8811 5.58998 10.5654 5.27422C10.2497 4.95846 9.87484 4.70815 9.46221 4.53764C9.04959 4.36713 8.60737 4.27978 8.16092 4.28059C8.00407 4.28059 7.85364 4.21827 7.74273 4.10733C7.63182 3.9964 7.56951 3.84593 7.56951 3.68904C7.56951 3.53216 7.63182 3.38169 7.74273 3.27076C7.85364 3.15982 8.00407 3.0975 8.16092 3.0975C8.76273 3.09658 9.35881 3.21446 9.91498 3.44439C10.4712 3.67432 10.9765 4.01178 11.402 4.43742C11.8276 4.86306 12.165 5.36852 12.3948 5.92482C12.6247 6.48113 12.7426 7.07734 12.7417 7.67929C12.7419 7.75703 12.7267 7.83404 12.6971 7.90591C12.6674 7.97777 12.6239 8.04306 12.5689 8.09803C12.5139 8.153 12.4487 8.19657 12.3768 8.22622C12.305 8.25588 12.228 8.27104 12.1502 8.27084Z" fill="#4787FD"/>
<path d="M15.3753 7.99419C15.2104 7.99249 15.0526 7.92624 14.9359 7.80963C14.8191 7.69302 14.7527 7.53533 14.7508 7.37033C14.7521 6.56685 14.595 5.77101 14.2884 5.02833C13.9819 4.28566 13.532 3.61073 12.9644 3.04217C12.3968 2.4736 11.7227 2.02257 10.9806 1.71487C10.2386 1.40717 9.44312 1.24884 8.63983 1.24895C8.55597 1.25199 8.47235 1.2381 8.39398 1.20809C8.3156 1.17809 8.24408 1.13259 8.18367 1.07432C8.12326 1.01606 8.07522 0.946208 8.0424 0.868953C8.00959 0.791697 7.99268 0.708619 7.99268 0.624681C7.99268 0.540742 8.00959 0.457664 8.0424 0.380408C8.07522 0.303153 8.12326 0.233305 8.18367 0.175036C8.24408 0.116768 8.3156 0.0712728 8.39398 0.0412695C8.47235 0.0112662 8.55597 -0.00263037 8.63983 0.000409916C9.60706 0.000409316 10.5648 0.191097 11.4583 0.561571C12.3518 0.932044 13.1635 1.47504 13.8471 2.15951C14.5306 2.84397 15.0726 3.65649 15.442 4.5506C15.8114 5.44471 16.0009 6.40288 15.9999 7.37033C16.0001 7.45242 15.9841 7.53375 15.9528 7.60964C15.9214 7.68553 15.8755 7.75448 15.8174 7.81253C15.7594 7.87058 15.6904 7.91658 15.6146 7.9479C15.5387 7.97921 15.4574 7.99441 15.3753 7.99419Z" fill="#4787FD"/>
</svg>
