<svg width="36" height="36" viewBox="0 0 36 36" fill="none" xmlns="http://www.w3.org/2000/svg">
<path d="M6.39537 0.217133C6.81726 0.0349936 7.27926 -0.0343525 7.73605 0.0158997C8.19284 0.0661519 8.62871 0.234276 9.00089 0.503773C11.0619 2.00548 12.6667 4.05523 14.037 6.01664L14.834 7.17763L15.5859 8.28633C16.3072 9.33915 16.1936 10.7543 15.3227 11.6755L15.1243 11.8666L11.6064 14.4788C11.4369 14.6015 11.3176 14.7814 11.2705 14.9852C11.2234 15.189 11.2518 15.403 11.3504 15.5876C12.1474 17.037 13.5646 19.1931 15.1874 20.8156C16.8103 22.4381 19.0696 23.9488 20.6185 24.8358C20.7868 24.9309 20.9821 24.967 21.1732 24.9382C21.3644 24.9095 21.5405 24.8176 21.6733 24.6771L21.7797 24.5437L24.0697 21.059C24.4907 20.4998 25.1117 20.1252 25.8028 20.0137C26.4938 19.9021 27.2013 20.0622 27.7769 20.4604L29.0499 21.3438C31.3832 22.9717 33.6786 24.6897 35.442 26.9468C35.7335 27.3216 35.9188 27.7678 35.9788 28.2387C36.0387 28.7097 35.9711 29.1881 35.7828 29.6239C34.2826 33.1231 30.4347 36.1409 26.4823 35.9949L25.9413 35.9661L25.5212 35.93L25.056 35.8759L24.5493 35.8074L23.9993 35.7155L23.4115 35.6001L22.7876 35.4595L22.1277 35.2918L21.4335 35.0917L20.7086 34.8574C17.38 33.7306 13.1553 31.5132 8.82058 27.1812C4.48585 22.8491 2.2698 18.6234 1.14104 15.2955L0.906635 14.5708L0.70829 13.8767L0.538796 13.2169L0.398152 12.5932L0.284554 12.0054L0.194398 11.4556L0.122272 10.949L0.0699817 10.4839L0.0339189 10.0639L0.00506893 9.52303C-0.140985 5.56415 2.89008 1.71704 6.39537 0.217133ZM32.6995 1.50431C33.1777 1.50431 33.6363 1.69425 33.9745 2.03233C34.3126 2.37041 34.5026 2.82896 34.5026 3.30708V10.5182C34.5026 10.9963 34.3126 11.4548 33.9745 11.7929C33.6363 12.131 33.1777 12.3209 32.6995 12.3209C32.2212 12.3209 31.7626 12.131 31.4244 11.7929C31.0863 11.4548 30.8963 10.9963 30.8963 10.5182V7.65897L24.9586 13.5955C24.6185 13.9239 24.1631 14.1056 23.6903 14.1015C23.2175 14.0974 22.7653 13.9078 22.4309 13.5735C22.0966 13.2393 21.907 12.7871 21.9029 12.3144C21.8988 11.8418 22.0805 11.3864 22.409 11.0464L28.3467 5.10985H25.4869C25.0087 5.10985 24.5501 4.91992 24.2119 4.58183C23.8738 4.24375 23.6838 3.78521 23.6838 3.30708C23.6838 2.82896 23.8738 2.37041 24.2119 2.03233C24.5501 1.69425 25.0087 1.50431 25.4869 1.50431H32.6995Z" fill="white"/>
</svg>
