<svg width="36" height="36" viewBox="0 0 36 36" fill="none" xmlns="http://www.w3.org/2000/svg">
<path d="M6.39537 0.217133C6.81726 0.0349936 7.27926 -0.0343525 7.73605 0.0158997C8.19284 0.0661519 8.62871 0.234276 9.00089 0.503773C11.0619 2.00548 12.6667 4.05523 14.037 6.01664L14.834 7.17763L15.5859 8.28633C16.3072 9.33915 16.1936 10.7543 15.3227 11.6755L15.1243 11.8666L11.6064 14.4788C11.4369 14.6015 11.3176 14.7814 11.2705 14.9852C11.2234 15.189 11.2518 15.403 11.3504 15.5876C12.1474 17.037 13.5646 19.1931 15.1874 20.8156C16.8103 22.4381 19.0696 23.9488 20.6185 24.8358C20.7868 24.9309 20.9821 24.967 21.1732 24.9382C21.3644 24.9095 21.5405 24.8176 21.6733 24.6771L21.7797 24.5437L24.0697 21.059C24.4907 20.4998 25.1117 20.1252 25.8028 20.0137C26.4938 19.9021 27.2013 20.0622 27.7769 20.4604L29.0499 21.3438C31.3832 22.9717 33.6786 24.6897 35.442 26.9468C35.7335 27.3216 35.9188 27.7678 35.9788 28.2387C36.0387 28.7097 35.9711 29.1881 35.7828 29.6239C34.2826 33.1231 30.4347 36.1409 26.4823 35.9949L25.9413 35.9661L25.5212 35.93L25.056 35.8759L24.5493 35.8074L23.9993 35.7155L23.4115 35.6001L22.7876 35.4595L22.1277 35.2918L21.4335 35.0917L20.7086 34.8574C17.38 33.7306 13.1553 31.5132 8.82058 27.1812C4.48585 22.8491 2.2698 18.6234 1.14104 15.2955L0.906635 14.5708L0.70829 13.8767L0.538796 13.2169L0.398152 12.5932L0.284554 12.0054L0.194398 11.4556L0.122272 10.949L0.0699817 10.4839L0.0339189 10.0639L0.00506893 9.52303C-0.140985 5.56415 2.89008 1.71704 6.39537 0.217133Z" fill="white"/>
<path d="M25.7577 1C25.3357 1 24.9311 1.17755 24.6327 1.49358C24.3344 1.80961 24.1667 2.23825 24.1667 2.68519V12.3148C24.1667 13.245 24.8795 14 25.7577 14H26.6667C27.0887 14 27.4933 13.8225 27.7917 13.5064C28.09 13.1904 28.2577 12.7618 28.2577 12.3148V2.68519C28.2577 2.23825 28.09 1.80961 27.7917 1.49358C27.4933 1.17755 27.0887 1 26.6667 1H25.7577ZM31.6667 1C31.2448 1 30.8402 1.17755 30.5418 1.49358C30.2435 1.80961 30.0758 2.23825 30.0758 2.68519V12.3148C30.0758 13.245 30.7886 14 31.6667 14H32.5758C32.9978 14 33.4024 13.8225 33.7008 13.5064C33.9991 13.1904 34.1667 12.7618 34.1667 12.3148V2.68519C34.1667 2.23825 33.9991 1.80961 33.7008 1.49358C33.4024 1.17755 32.9978 1 32.5758 1H31.6667Z" fill="white"/>
</svg>
