<svg width="13" height="16" viewBox="0 0 13 16" fill="none" xmlns="http://www.w3.org/2000/svg">
<path d="M6.5 10.2846C5.60625 10.2846 4.84115 10.0048 4.20469 9.44531C3.56823 8.88579 3.25 8.21317 3.25 7.42746C3.25 6.64174 3.56823 5.96912 4.20469 5.4096C4.84115 4.85007 5.60625 4.57031 6.5 4.57031C7.39375 4.57031 8.15885 4.85007 8.79531 5.4096C9.43177 5.96912 9.75 6.64174 9.75 7.42746C9.75 8.21317 9.43177 8.88579 8.79531 9.44531C8.15885 10.0048 7.39375 10.2846 6.5 10.2846ZM0 15.9989V13.9989C0 13.5941 0.118625 13.2222 0.355875 12.8832C0.593125 12.5441 0.907833 12.2851 1.3 12.106C2.13958 11.737 2.99271 11.4603 3.85937 11.276C4.72604 11.0917 5.60625 10.9994 6.5 10.9989C7.39375 10.9984 8.27396 11.0908 9.14062 11.276C10.0073 11.4613 10.8604 11.7379 11.7 12.106C12.0927 12.2846 12.4077 12.5436 12.6449 12.8832C12.8822 13.2227 13.0005 13.5946 13 13.9989V15.9989H0ZM1.625 14.5703H11.375V13.9989C11.375 13.8679 11.3379 13.7489 11.2637 13.6417C11.1895 13.5346 11.0912 13.4513 10.9687 13.3917C10.2375 13.0703 9.49948 12.8294 8.75469 12.6689C8.00989 12.5084 7.25833 12.4279 6.5 12.4275C5.74167 12.427 4.9901 12.5075 4.24531 12.6689C3.50052 12.8303 2.7625 13.0713 2.03125 13.3917C1.90937 13.4513 1.81106 13.5346 1.73631 13.6417C1.66156 13.7489 1.62446 13.8679 1.625 13.9989V14.5703ZM6.5 8.85603C6.94687 8.85603 7.32956 8.71627 7.64806 8.43674C7.96656 8.15722 8.12554 7.82079 8.125 7.42746C8.12446 7.03412 7.96548 6.69793 7.64806 6.41888C7.33064 6.13984 6.94796 5.99984 6.5 5.99888C6.05204 5.99793 5.66962 6.13793 5.35275 6.41888C5.03587 6.69984 4.87662 7.03603 4.875 7.42746C4.87337 7.81888 5.03262 8.15531 5.35275 8.43674C5.67287 8.71817 6.05529 8.85793 6.5 8.85603Z" fill="white"/>
<path d="M11.1089 2.90705V4.36123C11.1089 4.89927 10.6531 5.33068 10.0846 5.33068H7.01191H5.98767H2.91494C2.34649 5.33068 1.8907 4.89927 1.8907 4.36123V2.90705H0.866455V-0.00130224H3.93918V2.90705H2.91494V4.36123H5.98767V2.90705H4.96342V-0.00130224H8.03615V2.90705H7.01191V4.36123H10.0846V2.90705H9.06039V-0.00130224H12.1331V2.90705H11.1089ZM2.91494 0.968149H1.8907V1.9376H2.91494V0.968149ZM7.01191 0.968149H5.98767V1.9376H7.01191V0.968149ZM11.1089 0.968149H10.0846V1.9376H11.1089V0.968149Z" fill="white"/>
</svg>
