<svg width="22" height="22" viewBox="0 0 22 22" fill="none" xmlns="http://www.w3.org/2000/svg">
<g clip-path="url(#clip0_171661_4752)">
<path d="M3.66663 18.3333H7.33329L16.9583 8.70828C17.199 8.46753 17.39 8.18171 17.5203 7.86714C17.6506 7.55258 17.7177 7.21543 17.7177 6.87495C17.7177 6.53447 17.6506 6.19732 17.5203 5.88276C17.39 5.56819 17.199 5.28237 16.9583 5.04162C16.7175 4.80086 16.4317 4.60988 16.1172 4.47959C15.8026 4.34929 15.4654 4.28223 15.125 4.28223C14.7845 4.28223 14.4473 4.34929 14.1328 4.47959C13.8182 4.60988 13.5324 4.80086 13.2916 5.04162L3.66663 14.6666V18.3333Z" stroke="currentColor" stroke-width="1.4" stroke-linecap="round" stroke-linejoin="round"/>
<path d="M12.375 5.95837L16.0417 9.62504" stroke="currentColor" stroke-width="1.4" stroke-linecap="round" stroke-linejoin="round"/>
<path d="M14.6666 17.4166H20.1666" stroke="currentColor" stroke-width="1.4" stroke-linecap="round" stroke-linejoin="round"/>
</g>
<defs>
<clipPath id="clip0_171661_4752">
<rect width="22" height="22" fill="white"/>
</clipPath>
</defs>
</svg>
