<svg width="24" height="24" viewBox="0 0 24 24" fill="none" xmlns="http://www.w3.org/2000/svg">
<rect x="0.75" y="0.75" width="22.5" height="22.5" rx="11.25" fill="white" stroke="currentColor" stroke-width="1.5"/>
<path d="M10 8.44456V15.5554C9.99998 15.6345 10.0221 15.7122 10.0641 15.7804C10.1061 15.8486 10.1665 15.9049 10.2389 15.9435C10.3114 15.9821 10.3934 16.0016 10.4764 15.9999C10.5594 15.9983 10.6405 15.9755 10.7112 15.9341L16.7777 12.3787C16.8456 12.3389 16.9017 12.2832 16.9406 12.2169C16.9796 12.1506 17 12.076 17 12C17 11.9241 16.9796 11.8494 16.9406 11.7831C16.9017 11.7168 16.8456 11.6611 16.7777 11.6213L10.7112 8.0659C10.6405 8.02446 10.5594 8.00175 10.4764 8.0001C10.3934 7.99845 10.3114 8.01792 10.2389 8.05651C10.1665 8.09509 10.1061 8.1514 10.0641 8.21961C10.0221 8.28783 9.99998 8.36548 10 8.44456Z" fill="currentColor"/>
</svg>
