<svg width="21" height="19" viewBox="0 0 21 19" fill="none" xmlns="http://www.w3.org/2000/svg">
<path d="M4.48809 0.769495C4.21434 0.906364 4.08139 1.04714 3.93669 1.35217L3.83502 1.56725L3.82329 4.22253L3.81156 6.8739L3.15849 6.23257C2.32554 5.41526 2.22777 5.36051 1.60599 5.36051C1.19929 5.36051 1.16019 5.36833 0.917731 5.48565C0.608795 5.63816 0.37025 5.88453 0.225559 6.19346C0.131705 6.3929 0.119973 6.46329 0.119973 6.84653C0.119973 7.54261 0.0456725 7.44485 2.07917 9.48617L3.81156 11.2264L3.82329 13.69L3.83502 16.1537L3.93669 16.3688C4.08139 16.6738 4.21434 16.8146 4.48809 16.9515L4.72663 17.0727H8.60201H12.4774L12.6455 17.2682C13.1617 17.8665 14.0768 18.3827 14.9411 18.5626C15.3829 18.6526 16.1885 18.6604 16.6304 18.5783C18.3667 18.2498 19.7354 16.8811 20.0639 15.1448C20.1382 14.742 20.1382 13.9286 20.0639 13.5258C19.8606 12.4582 19.2544 11.4962 18.3745 10.847C17.8974 10.4951 17.2287 10.2018 16.6578 10.1001L16.388 10.0493L16.3684 7.07725L16.3489 4.10913L16.255 3.93315C16.1963 3.81974 15.6567 3.2488 14.7103 2.30244C13.498 1.08625 13.2243 0.832064 13.0444 0.749941L12.8293 0.648266H8.77799H4.72663L4.48809 0.769495ZM12.4266 2.70914L12.4383 3.99181L12.5478 4.1756C12.6143 4.28901 12.7198 4.39851 12.8254 4.46108L12.9936 4.55884H14.2684H15.5472V7.28842V10.018L15.1991 10.0649C14.4796 10.1627 13.717 10.4912 13.1265 10.9565L12.8098 11.2068H10.9757H9.14558L9.03999 11.3085C8.8953 11.4571 8.8953 11.7387 9.03999 11.8873L9.14558 11.9889H10.6629H12.1763L11.9886 12.3487C11.8869 12.5481 11.7696 12.8141 11.7305 12.9353L11.6601 13.1621H10.6003H9.53664L9.43105 13.2638C9.28636 13.4124 9.28636 13.6939 9.43105 13.8425L9.53664 13.9442H10.526H11.5193V14.4018C11.5193 15.047 11.6366 15.5554 11.9377 16.2397C11.9651 16.3062 5.16853 16.314 4.9378 16.2475C4.64842 16.1693 4.65624 16.2397 4.64451 14.0263L4.63278 12.0515L5.19199 12.5951L5.7512 13.1426L6.96348 13.5453C8.29307 13.9833 8.43386 14.0068 8.60201 13.8425C8.76625 13.6744 8.74279 13.5336 8.30481 12.204L7.90593 10.9917L6.27131 9.34538L4.63669 7.70294L4.64451 4.71135C4.65624 1.93484 4.66015 1.71194 4.72663 1.61418C4.76183 1.55943 4.85177 1.49295 4.92216 1.4734C4.99646 1.45384 6.56851 1.43429 8.73106 1.43429L12.4109 1.43038L12.4266 2.70914ZM1.89146 6.21692C1.95012 6.24821 2.13783 6.41636 2.3099 6.58843L2.62274 6.90519L2.14174 7.38228L1.66465 7.86328L1.34789 7.55043C0.952926 7.15937 0.90991 7.07725 0.929462 6.78396C0.956836 6.40463 1.21102 6.16609 1.59817 6.16218C1.69985 6.16218 1.83281 6.18564 1.89146 6.21692ZM5.21154 9.49399L7.17856 11.461L7.4132 12.161C7.54224 12.5481 7.64001 12.8688 7.6361 12.8766C7.62828 12.8805 7.30761 12.7828 6.92046 12.6537L6.22047 12.4191L4.24563 10.4443L2.27079 8.46942L2.74006 8.00015C2.99816 7.74205 3.21715 7.53088 3.22888 7.53088C3.24061 7.53088 4.13222 8.41467 5.21154 9.49399ZM16.4388 10.8979C17.0723 10.9956 17.7879 11.375 18.2807 11.8677C18.9572 12.5442 19.3013 13.3772 19.3013 14.3353C19.3013 15.309 18.9455 16.1498 18.2416 16.838C16.8807 18.1716 14.7181 18.152 13.3612 16.795C12.9584 16.3922 12.7003 15.9777 12.5009 15.4224L12.3601 15.0196V14.3353V13.6509L12.5009 13.2481C12.7003 12.6928 12.9584 12.2783 13.3612 11.8755C14.1863 11.0504 15.25 10.7102 16.4388 10.8979Z" fill="currentColor"/>
<path d="M5.91149 5.44261C5.82937 5.52473 5.80981 5.58339 5.80981 5.73199C5.80981 5.88059 5.82937 5.93925 5.91149 6.02137L6.01707 6.12305H9.32933H12.6416L12.7472 6.02137C12.8293 5.93925 12.8488 5.88059 12.8488 5.73199C12.8488 5.58339 12.8293 5.52473 12.7472 5.44261L12.6416 5.34093H9.32933H6.01707L5.91149 5.44261Z" fill="currentColor"/>
<path d="M5.91149 7.39793C5.82937 7.48005 5.80981 7.53871 5.80981 7.68731C5.80981 7.83591 5.82937 7.89457 5.91149 7.97669L6.01707 8.07837H10.1114H14.2058L14.3114 7.97669C14.3935 7.89457 14.4131 7.83591 14.4131 7.68731C14.4131 7.53871 14.3935 7.48005 14.3114 7.39793L14.2058 7.29625H10.1114H6.01707L5.91149 7.39793Z" fill="currentColor"/>
<path d="M7.86681 9.35313C7.78469 9.43525 7.76514 9.49391 7.76514 9.64251C7.76514 9.79111 7.78469 9.84977 7.86681 9.93189L7.9724 10.0336H11.0891H14.2059L14.3114 9.93189C14.3936 9.84977 14.4131 9.79111 14.4131 9.64251C14.4131 9.49391 14.3936 9.43525 14.3114 9.35313L14.2059 9.25145H11.0891H7.9724L7.86681 9.35313Z" fill="currentColor"/>
<path d="M16.9195 13.18C17.0344 13.245 17.6319 13.7806 17.8351 14.0024C18.0856 14.2736 18.1595 14.4327 18.1471 14.668C18.1369 14.8898 18.0835 15.0041 17.8659 15.2506C17.714 15.4254 17.057 16.0327 16.9318 16.1133C16.9072 16.129 16.8415 16.1402 16.786 16.1425C16.5951 16.1425 16.4678 16.0035 16.4678 15.7929C16.4678 15.6315 16.515 15.5688 16.8538 15.2685L17.1474 15.0108L15.7555 14.9996C14.189 14.9862 14.2835 14.9974 14.189 14.8136C14.1028 14.6478 14.1582 14.4394 14.3143 14.3385C14.382 14.296 14.4313 14.2937 15.7596 14.2825L17.135 14.2713L16.8353 14.0091C16.5109 13.7245 16.4678 13.6663 16.4678 13.487C16.4678 13.3481 16.5294 13.236 16.6403 13.1823C16.747 13.1307 16.8291 13.1285 16.9195 13.18Z" fill="currentColor"/>
</svg>
