<svg width="20" height="18" viewBox="0 0 20 18" fill="none" xmlns="http://www.w3.org/2000/svg">
<path d="M4.36846 0.134241C4.09472 0.271111 3.96176 0.41189 3.81707 0.716915L3.71539 0.931997L3.70366 3.58728L3.69193 6.23865L3.03886 5.59731C2.20591 4.78 2.10814 4.72526 1.48636 4.72526C1.07966 4.72526 1.04056 4.73308 0.798102 4.85039C0.489166 5.00291 0.250621 5.24927 0.10593 5.55821C0.0120763 5.75765 0.000344582 5.82804 0.000344582 6.21127C0.000344582 6.90736 -0.0739564 6.80959 1.95954 8.85091L3.69193 10.5911L3.70366 13.0548L3.71539 15.5184L3.81707 15.7335C3.96176 16.0385 4.09472 16.1793 4.36846 16.3162L4.607 16.4374H8.48238H12.3578L12.5259 16.633C13.0421 17.2313 13.9572 17.7475 14.8214 17.9274C15.2633 18.0173 16.0689 18.0251 16.5108 17.943C18.2471 17.6145 19.6158 16.2458 19.9443 14.5095C20.0186 14.1067 20.0186 13.2933 19.9443 12.8905C19.7409 11.8229 19.1348 10.8609 18.2549 10.2118C17.7778 9.85984 17.1091 9.56655 16.5382 9.46487L16.2683 9.41403L16.2488 6.442L16.2292 3.47387L16.1354 3.2979C16.0767 3.18449 15.5371 2.61354 14.5907 1.66718C13.3784 0.450996 13.1047 0.19681 12.9248 0.114687L12.7097 0.0130119H8.65836H4.607L4.36846 0.134241ZM12.3069 2.07388L12.3187 3.35655L12.4282 3.54035C12.4946 3.65376 12.6002 3.76325 12.7058 3.82582L12.874 3.92359H14.1488H15.4276V6.65317V9.38275L15.0795 9.42968C14.36 9.52744 13.5974 9.85593 13.0069 10.3213L12.6902 10.5716H10.8561H9.02595L8.92037 10.6732C8.77567 10.8218 8.77567 11.1034 8.92037 11.252L9.02595 11.3537H10.5433H12.0566L11.8689 11.7135C11.7673 11.9129 11.6499 12.1788 11.6108 12.3L11.5405 12.5269H10.4807H9.41701L9.31142 12.6285C9.16673 12.7771 9.16673 13.0587 9.31142 13.2073L9.41701 13.309H10.4064H11.3997V13.7665C11.3997 14.4117 11.517 14.9201 11.8181 15.6045C11.8455 15.671 5.0489 15.6788 4.81817 15.6123C4.52879 15.5341 4.53661 15.6045 4.52488 13.3911L4.51315 11.4162L5.07236 11.9598L5.63157 12.5073L6.84385 12.9101C8.17345 13.3481 8.31423 13.3715 8.48238 13.2073C8.64663 13.0391 8.62316 12.8984 8.18518 11.5688L7.7863 10.3565L6.15168 8.71013L4.51706 7.06769L4.52488 4.0761C4.53661 1.29959 4.54052 1.07669 4.607 0.978924C4.6422 0.924177 4.73214 0.857697 4.80253 0.838144C4.87683 0.81859 6.44888 0.799038 8.61143 0.799038L12.2913 0.795128L12.3069 2.07388ZM1.77183 5.58167C1.83049 5.61296 2.0182 5.78111 2.19027 5.95318L2.50311 6.26993L2.02211 6.74702L1.54502 7.22802L1.22826 6.91518C0.833297 6.52412 0.790281 6.442 0.809834 6.1487C0.837208 5.76938 1.09139 5.53083 1.47854 5.52692C1.58022 5.52692 1.71318 5.55039 1.77183 5.58167ZM5.09191 8.85873L7.05893 10.8258L7.29357 11.5257C7.42262 11.9129 7.52038 12.2336 7.51647 12.2414C7.50865 12.2453 7.18798 12.1475 6.80083 12.0185L6.10084 11.7838L4.126 9.809L2.15116 7.83416L2.62043 7.36489C2.87853 7.10679 3.09752 6.89562 3.10925 6.89562C3.12098 6.89562 4.01259 7.77941 5.09191 8.85873ZM16.3192 10.2626C16.9527 10.3604 17.6683 10.7397 18.1611 11.2325C18.8376 11.909 19.1817 12.7419 19.1817 13.7C19.1817 14.6738 18.8258 15.5145 18.1219 16.2028C16.7611 17.5363 14.5985 17.5167 13.2416 16.1598C12.8388 15.757 12.5807 15.3425 12.3812 14.7872L12.2404 14.3844V13.7V13.0157L12.3812 12.6129C12.5807 12.0576 12.8388 11.6431 13.2416 11.2403C14.0667 10.4151 15.1304 10.0749 16.3192 10.2626Z" fill="currentColor"/>
<path d="M5.79186 4.80735C5.70974 4.88947 5.69019 4.94813 5.69019 5.09674C5.69019 5.24534 5.70974 5.304 5.79186 5.38612L5.89745 5.48779H9.2097H12.522L12.6275 5.38612C12.7097 5.304 12.7292 5.24534 12.7292 5.09674C12.7292 4.94813 12.7097 4.88947 12.6275 4.80735L12.522 4.70568H9.2097H5.89745L5.79186 4.80735Z" fill="currentColor"/>
<path d="M5.79186 6.76268C5.70974 6.8448 5.69019 6.90346 5.69019 7.05206C5.69019 7.20066 5.70974 7.25932 5.79186 7.34144L5.89745 7.44312H9.99182H14.0862L14.1918 7.34144C14.2739 7.25932 14.2935 7.20066 14.2935 7.05206C14.2935 6.90346 14.2739 6.8448 14.1918 6.76268L14.0862 6.661H9.99182H5.89745L5.79186 6.76268Z" fill="currentColor"/>
<path d="M7.74718 8.71788C7.66506 8.8 7.64551 8.85866 7.64551 9.00726C7.64551 9.15586 7.66506 9.21452 7.74718 9.29664L7.85277 9.39832H10.9695H14.0862L14.1918 9.29664C14.2739 9.21452 14.2935 9.15586 14.2935 9.00726C14.2935 8.85866 14.2739 8.8 14.1918 8.71788L14.0862 8.6162H10.9695H7.85277L7.74718 8.71788Z" fill="currentColor"/>
<path d="M15.3729 11.2325C15.3103 11.2755 15.2243 11.3654 15.1773 11.4397C15.0991 11.561 15.0952 11.6157 15.0952 12.7224C15.0952 13.8056 15.0991 13.8838 15.1734 14.0051C15.2907 14.1967 15.4589 14.2866 15.7053 14.2866C15.9399 14.2866 16.0924 14.2084 16.2136 14.0285C16.2801 13.9229 16.2879 13.8252 16.2879 12.7224C16.2879 11.4045 16.2879 11.4045 16.0298 11.2325C15.8734 11.1308 15.5254 11.1308 15.3729 11.2325Z" fill="currentColor"/>
<path d="M15.3728 15.1429C15.193 15.2642 15.1147 15.4128 15.1147 15.6552C15.1147 16.0267 15.3298 16.2418 15.7013 16.2418C16.0728 16.2418 16.2879 16.0267 16.2879 15.6552C16.2879 15.2837 16.0728 15.0686 15.7013 15.0686C15.5566 15.0686 15.4511 15.0921 15.3728 15.1429Z" fill="currentColor"/>
</svg>
