<svg width="21" height="19" viewBox="0 0 21 19" fill="none" xmlns="http://www.w3.org/2000/svg">
<path d="M5.20781 0.367395C4.93407 0.504265 4.80111 0.645044 4.65642 0.950069L4.55475 1.16515L4.54301 3.82043L4.53128 6.4718L3.87822 5.83047C3.04526 5.01316 2.9475 4.95841 2.32572 4.95841C1.91902 4.95841 1.87991 4.96623 1.63746 5.08355C1.32852 5.23606 1.08998 5.48243 0.945286 5.79136C0.851432 5.9908 0.8397 6.06119 0.8397 6.44443C0.8397 7.14051 0.765399 7.04275 2.7989 9.08407L4.53128 10.8243L4.54301 13.2879L4.55475 15.7516L4.65642 15.9667C4.80111 16.2717 4.93407 16.4125 5.20781 16.5494L5.44636 16.6706H9.32174H13.1971L13.3653 16.8661C13.8815 17.4644 14.7965 17.9806 15.6608 18.1605C16.1027 18.2505 16.9083 18.2583 17.3501 18.1762C19.0864 17.8477 20.4551 16.479 20.7836 14.7427C20.8579 14.3399 20.8579 13.5265 20.7836 13.1237C20.5803 12.0561 19.9741 11.0941 19.0943 10.4449C18.6172 10.093 17.9485 9.7997 17.3775 9.69803L17.1077 9.64719L17.0881 6.67515L17.0686 3.70703L16.9747 3.53105C16.9161 3.41764 16.3764 2.8467 15.4301 1.90034C14.2178 0.684151 13.944 0.429964 13.7641 0.347841L13.5491 0.246166H9.49771H5.44636L5.20781 0.367395ZM13.1463 2.30704L13.158 3.58971L13.2675 3.77351C13.334 3.88691 13.4396 3.99641 13.5452 4.05898L13.7133 4.15674H14.9882H16.2669V6.88632V9.6159L15.9189 9.66283C15.1993 9.76059 14.4368 10.0891 13.8463 10.5544L13.5295 10.8047H11.6955H9.86531L9.75972 10.9064C9.61503 11.055 9.61503 11.3366 9.75972 11.4852L9.86531 11.5868H11.3826H12.896L12.7083 11.9466C12.6066 12.146 12.4893 12.412 12.4502 12.5332L12.3798 12.76H11.32H10.2564L10.1508 12.8617C10.0061 13.0103 10.0061 13.2918 10.1508 13.4404L10.2564 13.5421H11.2457H12.239V13.9997C12.239 14.6449 12.3563 15.1533 12.6575 15.8376C12.6848 15.9041 5.88825 15.9119 5.65753 15.8454C5.36815 15.7672 5.37597 15.8376 5.36423 13.6242L5.3525 11.6494L5.91172 12.193L6.47093 12.7405L7.68321 13.1432C9.0128 13.5812 9.15358 13.6047 9.32174 13.4404C9.48598 13.2723 9.46252 13.1315 9.02453 11.8019L8.62565 10.5896L6.99103 8.94328L5.35641 7.30084L5.36423 4.30925C5.37597 1.53275 5.37988 1.30984 5.44636 1.21208C5.48155 1.15733 5.5715 1.09085 5.64189 1.0713C5.71619 1.05174 7.28824 1.03219 9.45079 1.03219L13.1306 1.02828L13.1463 2.30704ZM2.61119 5.81483C2.66985 5.84611 2.85756 6.01426 3.02962 6.18633L3.34247 6.50309L2.86147 6.98018L2.38438 7.46118L2.06762 7.14833C1.67265 6.75727 1.62964 6.67515 1.64919 6.38186C1.67656 6.00253 1.93075 5.76399 2.3179 5.76008C2.41957 5.76008 2.55253 5.78354 2.61119 5.81483ZM5.93127 9.09189L7.89829 11.0589L8.13292 11.7589C8.26197 12.146 8.35974 12.4667 8.35582 12.4745C8.348 12.4784 8.02734 12.3807 7.64019 12.2516L6.9402 12.017L4.96536 10.0422L2.99052 8.06732L3.45979 7.59805C3.71788 7.33995 3.93688 7.12878 3.94861 7.12878C3.96034 7.12878 4.85195 8.01257 5.93127 9.09189ZM17.1585 10.4958C17.792 10.5935 18.5077 10.9729 19.0004 11.4656C19.6769 12.1421 20.0211 12.9751 20.0211 13.9332C20.0211 14.9069 19.6652 15.7477 18.9613 16.4359C17.6004 17.7695 15.4379 17.7499 14.0809 16.3929C13.6781 15.9901 13.42 15.5756 13.2206 15.0203L13.0798 14.6175V13.9332V13.2488L13.2206 12.846C13.42 12.2907 13.6781 11.8762 14.0809 11.4734C14.906 10.6483 15.9697 10.3081 17.1585 10.4958Z" fill="currentColor"/>
<path d="M6.63146 5.04051C6.54934 5.12263 6.52979 5.18129 6.52979 5.32989C6.52979 5.47849 6.54934 5.53715 6.63146 5.61927L6.73705 5.72095H10.0493H13.3616L13.4671 5.61927C13.5493 5.53715 13.5688 5.47849 13.5688 5.32989C13.5688 5.18129 13.5493 5.12263 13.4671 5.04051L13.3616 4.93883H10.0493H6.73705L6.63146 5.04051Z" fill="currentColor"/>
<path d="M6.63146 6.99583C6.54934 7.07795 6.52979 7.13661 6.52979 7.28521C6.52979 7.43381 6.54934 7.49247 6.63146 7.57459L6.73705 7.67627H10.8314H14.9258L15.0314 7.57459C15.1135 7.49247 15.133 7.43381 15.133 7.28521C15.133 7.13661 15.1135 7.07795 15.0314 6.99583L14.9258 6.89415H10.8314H6.73705L6.63146 6.99583Z" fill="currentColor"/>
<path d="M8.58654 8.95103C8.50442 9.03315 8.48486 9.09181 8.48486 9.24041C8.48486 9.38901 8.50442 9.44767 8.58654 9.52979L8.69212 9.63147H11.8089H14.9256L15.0312 9.52979C15.1133 9.44767 15.1328 9.38901 15.1328 9.24041C15.1328 9.09181 15.1133 9.03315 15.0312 8.95103L14.9256 8.84935H11.8089H8.69212L8.58654 8.95103Z" fill="currentColor"/>
<path d="M16.0971 12.7779C15.9822 12.8429 15.3847 13.3785 15.1815 13.6003C14.931 13.8715 14.8571 14.0306 14.8695 14.2659C14.8797 14.4877 14.9331 14.602 15.1507 14.8485C15.3026 15.0233 15.9596 15.6306 16.0848 15.7112C16.1094 15.7269 16.1751 15.7381 16.2306 15.7404C16.4215 15.7404 16.5488 15.6014 16.5488 15.3908C16.5488 15.2294 16.5016 15.1667 16.1628 14.8664L15.8692 14.6087L17.2612 14.5975C18.8276 14.5841 18.7331 14.5953 18.8276 14.4115C18.9138 14.2457 18.8584 14.0373 18.7023 13.9364C18.6346 13.8939 18.5853 13.8916 17.257 13.8804L15.8816 13.8692L16.1813 13.607C16.5057 13.3224 16.5488 13.2642 16.5488 13.0849C16.5488 12.946 16.4872 12.8339 16.3763 12.7802C16.2696 12.7286 16.1875 12.7264 16.0971 12.7779Z" fill="currentColor"/>
</svg>
