<svg width="20" height="24" viewBox="0 0 20 24" fill="none" xmlns="http://www.w3.org/2000/svg">
<path d="M6.19727 0.0949898C5.76596 0.19813 5.21276 0.446602 4.89865 0.671635C4.39233 1.03262 1.62161 3.37202 1.39189 3.63456C0.918387 4.15964 0.566773 4.89099 0.449569 5.59891C0.407375 5.84269 0.397999 7.87267 0.407375 13.7095L0.42144 21.4918L0.548021 21.8341C0.735548 22.3498 0.941827 22.6686 1.35908 23.0858C1.79508 23.5218 2.21701 23.7656 2.77022 23.9062C3.12183 24 3.29998 24 10.0088 24C16.7175 24 16.8957 24 17.2473 23.9062C17.8005 23.7656 18.2224 23.5218 18.6584 23.0858C19.0757 22.6686 19.282 22.3498 19.4695 21.8341L19.5961 21.4918V11.9983V2.50471L19.4695 2.16248C19.282 1.64678 19.0757 1.32798 18.6584 0.910732C18.2271 0.474731 17.8052 0.230946 17.2473 0.0903015C16.8957 0.00122452 16.7129 -0.00346375 11.7246 0.00122452C6.80674 0.00122452 6.5442 0.00591278 6.19727 0.0949898ZM17.1254 1.82024C17.4723 2.00776 17.6646 2.21404 17.8333 2.57504L17.9552 2.83288V11.9983V21.1637L17.8333 21.4215C17.6646 21.7825 17.4723 21.9888 17.1254 22.1763L16.8301 22.3357H10.0088H3.18746L2.95306 22.2185C2.65301 22.0732 2.32484 21.745 2.17951 21.4449L2.0623 21.2105L2.04824 13.6391C2.03886 8.03676 2.04824 6.00209 2.08574 5.80988C2.16075 5.45826 2.37172 5.02695 2.59207 4.77379C2.82179 4.51125 5.71439 2.12966 6.01443 1.95151C6.13633 1.88118 6.36136 1.78273 6.51607 1.73116C6.78798 1.64678 6.96145 1.64209 11.8137 1.65146L16.8301 1.66084L17.1254 1.82024Z" fill="currentColor"/>
<path d="M12.9389 4.73618C12.8639 4.75494 12.742 4.82995 12.6717 4.89558C12.3857 5.15812 12.3951 5.04091 12.4091 8.00853C12.4232 10.6714 12.4232 10.7277 12.5216 10.8543C12.6904 11.084 12.8498 11.1684 13.1452 11.1918C13.478 11.2152 13.7171 11.1027 13.9 10.8402L14.0172 10.6667L14.0312 8.04135C14.0406 5.71601 14.0359 5.38784 13.9703 5.21438C13.8156 4.81119 13.3749 4.60491 12.9389 4.73618Z" fill="currentColor"/>
<path d="M9.61017 6.55075C9.42264 6.67264 9.32419 6.78984 9.23512 6.99612C9.17886 7.13677 9.16479 7.43681 9.16479 8.79638C9.16479 9.77621 9.18355 10.4982 9.21168 10.6013C9.27262 10.8076 9.45546 11.0373 9.6383 11.1311C9.70862 11.1686 9.88209 11.2014 10.0227 11.2014C10.3134 11.2014 10.5291 11.0842 10.6978 10.8311C10.8057 10.6717 10.8057 10.667 10.8057 8.83389C10.8057 7.0055 10.8057 6.99612 10.7025 6.84141C10.5244 6.58356 10.3697 6.49449 10.0415 6.47573C9.81645 6.46636 9.718 6.48042 9.61017 6.55075Z" fill="currentColor"/>
<path d="M6.52557 7.14595C6.30522 7.22096 6.14583 7.36161 6.05206 7.56789C5.99112 7.69916 5.97705 7.95701 5.97705 9.1478C5.97705 10.5543 5.97705 10.5824 6.08488 10.784C6.24428 11.0793 6.48337 11.2106 6.84436 11.1918C7.18191 11.1731 7.38819 11.0465 7.52415 10.7793C7.61322 10.6058 7.61791 10.498 7.61791 9.16187C7.61791 7.58664 7.60854 7.52101 7.34131 7.29597C7.20066 7.17877 6.92875 7.07563 6.77404 7.07563C6.73654 7.08032 6.62402 7.10845 6.52557 7.14595Z" fill="currentColor"/>
<path d="M4.92211 13.6577C4.3314 13.9202 4.32203 14.8485 4.91274 15.1345C5.11433 15.2329 5.13308 15.2329 10.0838 15.2329C14.8142 15.2329 15.058 15.2282 15.2408 15.1438C15.8315 14.8719 15.8737 14.0796 15.3111 13.6999L15.1517 13.592H10.1072C6.00977 13.5967 5.03463 13.6061 4.92211 13.6577Z" fill="currentColor"/>
<path d="M4.76739 17.6569C4.45328 17.8116 4.25169 18.2007 4.31733 18.5382C4.35483 18.7398 4.50016 18.9649 4.67831 19.0961L4.80958 19.1946H10.0088H15.208L15.3392 19.0961C15.7518 18.7914 15.8315 18.2382 15.5174 17.8678C15.2595 17.5584 15.6018 17.5772 9.9994 17.5772C5.41905 17.5772 4.90804 17.5865 4.76739 17.6569Z" fill="currentColor"/>
</svg>
