<svg width="24" height="24" viewBox="0 0 24 24" fill="none" xmlns="http://www.w3.org/2000/svg">
<path d="M9.09887 0.0543842C8.62005 0.204601 8.18348 0.594229 7.97693 1.04019C7.90652 1.1904 7.81263 1.6035 7.71875 2.12926C7.63895 2.58931 7.54037 3.05404 7.49342 3.16201C7.28687 3.62675 6.84091 3.93188 6.31515 3.96943C6.0288 3.98821 5.96308 3.96943 5.16505 3.66899C4.33885 3.35917 4.31069 3.34978 3.87412 3.34978C3.25447 3.34978 2.96812 3.46714 2.55971 3.88024C2.29683 4.14781 2.11376 4.43416 1.2547 5.94103C0.700773 6.90337 0.212566 7.76712 0.165623 7.8657C-0.0690922 8.34921 -0.050315 9.00172 0.212566 9.5134C0.38156 9.84669 0.498918 9.96405 1.23592 10.5743C2.01987 11.2221 2.17948 11.4615 2.17948 12.0061C2.17948 12.5506 2.01987 12.79 1.23592 13.4378C0.498918 14.0481 0.38156 14.1701 0.212566 14.4987C0.0247938 14.8649 -0.0409264 15.2733 0.0247938 15.6582C0.0905139 16.0526 0.0717368 16.015 1.2547 18.0711C2.11376 19.578 2.29683 19.8643 2.55971 20.1319C2.96812 20.545 3.25447 20.6624 3.87412 20.6624C4.31069 20.6624 4.33885 20.653 5.16505 20.3431C5.96308 20.0427 6.0288 20.0239 6.31515 20.0427C6.84091 20.0803 7.28687 20.3854 7.49342 20.8501C7.54037 20.9581 7.63895 21.4228 7.71875 21.8829C7.81263 22.418 7.90652 22.8217 7.98163 22.9766C8.13185 23.3052 8.54025 23.7136 8.88293 23.8733L9.1552 24H11.6667H14.1781L14.4504 23.8733C14.7931 23.7136 15.2015 23.3052 15.3517 22.9766C15.4268 22.8217 15.5207 22.418 15.6146 21.8829C15.6944 21.4228 15.7929 20.9581 15.8399 20.8501C16.0464 20.3854 16.4924 20.0803 17.0182 20.0427C17.3045 20.0239 17.3702 20.0427 18.1683 20.3431C18.9945 20.653 19.0226 20.6624 19.4592 20.6624C20.0788 20.6624 20.3652 20.545 20.7736 20.1319C21.0365 19.8643 21.2196 19.578 22.0786 18.0805C22.6278 17.1229 23.116 16.2544 23.163 16.1511C23.3977 15.6723 23.3789 15.0057 23.1207 14.5034C22.9517 14.1654 22.8344 14.0481 22.0974 13.4378C21.3134 12.79 21.1538 12.5506 21.1538 12.0061C21.1538 11.485 21.3228 11.208 21.9706 10.6823C22.9799 9.85608 23.2099 9.55564 23.3085 8.9313C23.3648 8.57454 23.3085 8.16144 23.163 7.861C23.116 7.75773 22.6278 6.88928 22.0786 5.93165C21.2196 4.43416 21.0365 4.14781 20.7736 3.88024C20.3652 3.46714 20.0788 3.34978 19.4592 3.34978C19.0226 3.34978 18.9945 3.35917 18.1683 3.66899C17.3702 3.96943 17.3045 3.98821 17.0182 3.96943C16.4924 3.93188 16.0464 3.62675 15.8399 3.16201C15.7929 3.05404 15.6944 2.58931 15.6146 2.12457C15.5019 1.48145 15.4362 1.20918 15.3282 0.98855C15.1592 0.645866 14.8118 0.312571 14.4363 0.134188L14.1781 0.0121346L11.7371 0.00274658C9.81241 -0.00664139 9.25378 0.00744057 9.09887 0.0543842ZM13.7275 2.55644C13.8542 3.35448 13.995 3.84268 14.211 4.22762C14.7931 5.26036 15.8962 5.90348 17.0886 5.90348C17.6002 5.90348 17.9711 5.81429 18.8302 5.49508L19.4451 5.26036L20.4215 6.95031C21.2289 8.34921 21.3839 8.64495 21.3322 8.69189C21.2947 8.72475 21.0271 8.94538 20.7407 9.18479C20.0601 9.74342 19.83 10.0063 19.5719 10.5274C19.3277 11.0203 19.2245 11.4521 19.2245 12.0061C19.2245 12.56 19.3277 12.9919 19.5719 13.4848C19.83 14.0058 20.0601 14.2687 20.7407 14.8273C21.0271 15.0668 21.2947 15.2874 21.3322 15.3202C21.3839 15.3672 21.2289 15.6629 20.4215 17.0618L19.4451 18.7518L18.8302 18.5171C17.9711 18.1978 17.6002 18.1087 17.0886 18.1087C15.638 18.1087 14.3847 19.024 13.9481 20.4089C13.8871 20.6013 13.7885 21.0708 13.7275 21.451L13.6195 22.1458H11.6667H9.71383L9.60586 21.4557C9.54483 21.0708 9.44625 20.6013 9.38522 20.4089C8.94866 19.024 7.69528 18.1087 6.24474 18.1087C5.73306 18.1087 5.36221 18.1978 4.50315 18.5171L3.8882 18.7518L2.91179 17.0618C2.10906 15.6676 1.94946 15.3672 2.00109 15.3202C2.03865 15.2874 2.30622 15.0668 2.59258 14.8273C3.27325 14.2687 3.50327 14.0058 3.76146 13.4848C4.00556 12.9919 4.10883 12.56 4.10883 12.0061C4.10883 11.4521 4.00556 11.0203 3.76146 10.5274C3.50327 10.0063 3.27325 9.74342 2.59258 9.18479C2.30622 8.94538 2.03865 8.72475 2.00109 8.69189C1.94946 8.64495 2.10906 8.34451 2.91179 6.95031L3.8882 5.26505L4.55949 5.51385C5.50304 5.86592 5.76123 5.91756 6.38557 5.8894C7.29626 5.85184 8.02857 5.51855 8.6623 4.84257C9.19745 4.27456 9.41808 3.73941 9.60586 2.55644L9.71383 1.86638H11.6667H13.6195L13.7275 2.55644Z" fill="currentColor"/>
<path d="M10.7278 7.45258C8.53555 7.92201 7.01929 9.78565 7.01929 12.0061C7.01929 14.2734 8.62943 16.1934 10.8545 16.583C13.7134 17.0806 16.314 14.9024 16.314 12.0061C16.314 9.75279 14.7367 7.8516 12.5116 7.4338C11.9999 7.33522 11.2301 7.34461 10.7278 7.45258ZM12.3708 9.38194C12.8496 9.51338 13.1313 9.67298 13.5115 10.0298C14.6287 11.0813 14.6851 12.7431 13.6429 13.8509C12.5867 14.9682 10.9296 15.0245 9.82178 13.9824C8.64821 12.8745 8.64821 11.1329 9.82178 10.0298C10.5259 9.36785 11.4648 9.12845 12.3708 9.38194Z" fill="currentColor"/>
</svg>
