<svg width="24" height="24" viewBox="0 0 24 24" fill="none" xmlns="http://www.w3.org/2000/svg">
<path d="M3.1875 0.967901C1.68214 1.33754 0.471429 2.55897 0.107143 4.06968C0.00535714 4.50897 0 4.69111 0 9.42683C0 14.1625 0.00535714 14.3447 0.107143 14.784C0.396429 15.984 1.22679 17.0286 2.325 17.5643C2.87143 17.8322 3.25179 17.934 3.98571 17.9983C4.64464 18.0625 4.8375 18.1429 5.00893 18.4268C5.11071 18.6036 5.11607 18.7268 5.14286 20.6233C5.16429 22.1125 5.18571 22.6643 5.23929 22.75C5.3625 22.9697 5.67857 23.1411 5.95714 23.1411C6.09643 23.1411 6.26786 23.1197 6.34286 23.0875C6.42321 23.0608 7.88571 21.9786 9.60536 20.6875C12.9214 18.1858 12.9696 18.159 13.7036 18.0518C13.9018 18.025 15.4714 17.9983 17.1964 17.9983C20.1536 17.9983 20.3571 17.9929 20.7857 17.8911C22.3125 17.5268 23.5286 16.3108 23.8929 14.784C23.9946 14.3447 24 14.1625 24 9.42683C24 4.69111 23.9946 4.50897 23.8929 4.06968C23.5286 2.5429 22.3125 1.32683 20.7857 0.962543C20.3357 0.8554 20.1857 0.8554 11.9732 0.860758C3.86786 0.860758 3.60536 0.866114 3.1875 0.967901ZM19.9768 2.62326C21.2036 2.76254 22.0929 3.65183 22.2321 4.87861C22.3018 5.4679 22.3018 13.3858 22.2321 13.975C22.0929 15.2018 21.2036 16.0911 19.9768 16.2304C19.7304 16.2572 18.1554 16.284 16.4732 16.284C13.1679 16.284 13.1411 16.2893 12.3804 16.5893C11.7964 16.8197 11.55 16.9858 9.16607 18.7858L6.88393 20.5054L6.85179 19.3483C6.825 18.1429 6.80893 18.0465 6.54643 17.5375C6.29464 17.0554 5.82857 16.6536 5.25536 16.4393C5.07857 16.375 4.66607 16.3 4.26429 16.2572C3.675 16.1929 3.51964 16.1554 3.17679 15.9947C2.38393 15.6143 1.86964 14.8858 1.76786 13.975C1.69821 13.3858 1.69821 5.4679 1.76786 4.87861C1.90179 3.68933 2.80714 2.75718 3.94821 2.62861C4.48929 2.56433 19.4357 2.55897 19.9768 2.62326Z" fill="currentColor"/>
<path d="M5.53389 6.08395C5.27139 6.21252 5.14282 6.45895 5.14282 6.83395C5.14282 7.21967 5.26604 7.47681 5.52318 7.6161C5.69461 7.70717 6.00532 7.71252 12 7.71252C17.9946 7.71252 18.3053 7.70717 18.4768 7.6161C18.7285 7.48217 18.8571 7.21967 18.8571 6.85538C18.8571 6.4911 18.7285 6.2286 18.4768 6.09467C18.3053 6.0036 17.9946 5.99824 12 5.99824C6.34282 5.99824 5.68925 6.00895 5.53389 6.08395Z" fill="currentColor"/>
<path d="M5.53389 11.2268C5.27139 11.3553 5.14282 11.6018 5.14282 11.9768C5.14282 12.3625 5.26604 12.6196 5.52318 12.7589C5.69461 12.85 6.00532 12.8553 12 12.8553C17.9946 12.8553 18.3053 12.85 18.4768 12.7589C18.7285 12.625 18.8571 12.3625 18.8571 11.9982C18.8571 11.6339 18.7285 11.3714 18.4768 11.2375C18.3053 11.1464 17.9946 11.1411 12 11.1411C6.34282 11.1411 5.68925 11.1518 5.53389 11.2268Z" fill="currentColor"/>
</svg>
