<svg width="19" height="18" viewBox="0 0 19 18" fill="none" xmlns="http://www.w3.org/2000/svg">
<path d="M5.7 8.1C5.96917 8.1 6.19495 8.0136 6.37735 7.8408C6.55975 7.668 6.65063 7.4544 6.65 7.2C6.64937 6.9456 6.55817 6.732 6.3764 6.5592C6.19463 6.3864 5.96917 6.3 5.7 6.3C5.43083 6.3 5.20537 6.3864 5.0236 6.5592C4.84183 6.732 4.75063 6.9456 4.75 7.2C4.74937 7.4544 4.84057 7.6683 5.0236 7.8417C5.20663 8.0151 5.4321 8.1012 5.7 8.1ZM9.5 8.1C9.76917 8.1 9.99495 8.0136 10.1773 7.8408C10.3597 7.668 10.4506 7.4544 10.45 7.2C10.4494 6.9456 10.3582 6.732 10.1764 6.5592C9.99463 6.3864 9.76917 6.3 9.5 6.3C9.23083 6.3 9.00537 6.3864 8.8236 6.5592C8.64183 6.732 8.55063 6.9456 8.55 7.2C8.54937 7.4544 8.64057 7.6683 8.8236 7.8417C9.00663 8.0151 9.2321 8.1012 9.5 8.1ZM13.3 8.1C13.5692 8.1 13.7949 8.0136 13.9773 7.8408C14.1597 7.668 14.2506 7.4544 14.25 7.2C14.2494 6.9456 14.1582 6.732 13.9764 6.5592C13.7946 6.3864 13.5692 6.3 13.3 6.3C13.0308 6.3 12.8054 6.3864 12.6236 6.5592C12.4418 6.732 12.3506 6.9456 12.35 7.2C12.3494 7.4544 12.4406 7.6683 12.6236 7.8417C12.8066 8.0151 13.0321 8.1012 13.3 8.1ZM0 18V1.8C0 1.305 0.1862 0.8814 0.5586 0.5292C0.931 0.177 1.37813 0.0006 1.9 0H17.1C17.6225 0 18.0699 0.1764 18.4423 0.5292C18.8147 0.882 19.0006 1.3056 19 1.8V12.6C19 13.095 18.8141 13.5189 18.4423 13.8717C18.0706 14.2245 17.6231 14.4006 17.1 14.4H3.8L0 18ZM2.9925 12.6H17.1V1.8H1.9V13.6125L2.9925 12.6Z" fill="white"/>
</svg>
