<svg width="12" height="15" viewBox="0 0 12 15" fill="none" xmlns="http://www.w3.org/2000/svg">
<path d="M6.44194 0.576552C6.19786 0.332474 5.80214 0.332474 5.55806 0.576552L1.58058 4.55403C1.33651 4.79811 1.33651 5.19383 1.58058 5.43791C1.82466 5.68199 2.22039 5.68199 2.46447 5.43791L6 1.90238L9.53553 5.43791C9.77961 5.68199 10.1753 5.68199 10.4194 5.43791C10.6635 5.19383 10.6635 4.79811 10.4194 4.55403L6.44194 0.576552ZM6 1.01849L5.375 1.01849L5.375 2.01849L6 2.01849L6.625 2.01849L6.625 1.01849L6 1.01849Z" fill="#96A5B8"/>
<path d="M5.55806 14.4604C5.80214 14.7045 6.19786 14.7045 6.44194 14.4604L10.4194 10.483C10.6635 10.2389 10.6635 9.84315 10.4194 9.59908C10.1753 9.355 9.77961 9.355 9.53553 9.59908L6 13.1346L2.46447 9.59908C2.22039 9.355 1.82466 9.355 1.58058 9.59908C1.3365 9.84315 1.3365 10.2389 1.58058 10.483L5.55806 14.4604ZM6 13.0185L5.375 13.0185L5.375 14.0185L6 14.0185L6.625 14.0185L6.625 13.0185L6 13.0185Z" fill="#96A5B8"/>
</svg>
